<?xml version="1.0" encoding="UTF-8" standalone="no"?>
<!DOCTYPE svg PUBLIC "-//W3C//DTD SVG 1.1//EN"
 "http://www.w3.org/Graphics/SVG/1.1/DTD/svg11.dtd">
<!-- Generated by graphviz version 13.1.0 (20250701.0955)
 -->
<!-- Title: src/driver_bmp390.h Pages: 1 -->
<svg width="1148pt" height="232pt"
 viewBox="0.00 0.00 1148.00 232.00" xmlns="http://www.w3.org/2000/svg" xmlns:xlink="http://www.w3.org/1999/xlink">
<g id="graph0" class="graph" transform="scale(1 1) rotate(0) translate(4 228)">
<title>src/driver_bmp390.h</title>
<!-- Node1 -->
<g id="Node000001" class="node">
<title>Node1</title>
<g id="a_Node000001"><a xlink:title="driver bmp390 header file">
<polygon fill="#999999" stroke="#666666" points="729,-224 624.5,-224 624.5,-204 729,-204 729,-224"/>
<text xml:space="preserve" text-anchor="middle" x="676.75" y="-210.5" font-family="Helvetica,sans-Serif" font-size="10.00">src/driver_bmp390.h</text>
</a>
</g>
</g>
<!-- Node2 -->
<g id="Node000002" class="node">
<title>Node2</title>
<g id="a_Node000002"><a xlink:href="driver__bmp390__interface_8h.html" target="_top" xlink:title="driver bmp390 interface header file">
<polygon fill="white" stroke="#666666" points="671.88,-168 551.62,-168 551.62,-136 671.88,-136 671.88,-168"/>
<text xml:space="preserve" text-anchor="start" x="559.62" y="-154.5" font-family="Helvetica,sans-Serif" font-size="10.00">interface/driver_bmp390</text>
<text xml:space="preserve" text-anchor="middle" x="611.75" y="-142.5" font-family="Helvetica,sans-Serif" font-size="10.00">_interface.h</text>
</a>
</g>
</g>
<!-- Node1&#45;&gt;Node2 -->
<g id="edge1_Node000001_Node000002" class="edge">
<title>Node1&#45;&gt;Node2</title>
<g id="a_edge1_Node000001_Node000002"><a xlink:title=" ">
<path fill="none" stroke="#63b8ff" d="M658.31,-195.98C648.9,-187.29 637.54,-176.81 628.4,-168.37"/>
<polygon fill="#63b8ff" stroke="#63b8ff" points="655.76,-198.39 665.48,-202.6 660.51,-193.24 655.76,-198.39"/>
</a>
</g>
</g>
<!-- Node20 -->
<g id="Node000020" class="node">
<title>Node20</title>
<g id="a_Node000020"><a xlink:href="driver__bmp390_8c.html" target="_top" xlink:title="driver bmp390 source file">
<polygon fill="white" stroke="#666666" points="794,-162 689.5,-162 689.5,-142 794,-142 794,-162"/>
<text xml:space="preserve" text-anchor="middle" x="741.75" y="-148.5" font-family="Helvetica,sans-Serif" font-size="10.00">src/driver_bmp390.c</text>
</a>
</g>
</g>
<!-- Node1&#45;&gt;Node20 -->
<g id="edge19_Node000001_Node000020" class="edge">
<title>Node1&#45;&gt;Node20</title>
<g id="a_edge19_Node000001_Node000020"><a xlink:title=" ">
<path fill="none" stroke="#63b8ff" d="M695.27,-195.9C707.19,-184.91 722.19,-171.05 731.88,-162.11"/>
<polygon fill="#63b8ff" stroke="#63b8ff" points="692.99,-193.24 688.02,-202.6 697.74,-198.39 692.99,-193.24"/>
</a>
</g>
</g>
<!-- Node3 -->
<g id="Node000003" class="node">
<title>Node3</title>
<g id="a_Node000003"><a xlink:href="driver__bmp390__basic_8h.html" target="_top" xlink:title="driver bmp390 basic header file">
<polygon fill="white" stroke="#666666" points="119.5,-100 0,-100 0,-68 119.5,-68 119.5,-100"/>
<text xml:space="preserve" text-anchor="start" x="8" y="-86.5" font-family="Helvetica,sans-Serif" font-size="10.00">example/driver_bmp390</text>
<text xml:space="preserve" text-anchor="middle" x="59.75" y="-74.5" font-family="Helvetica,sans-Serif" font-size="10.00">_basic.h</text>
</a>
</g>
</g>
<!-- Node2&#45;&gt;Node3 -->
<g id="edge2_Node000002_Node000003" class="edge">
<title>Node2&#45;&gt;Node3</title>
<g id="a_edge2_Node000002_Node000003"><a xlink:title=" ">
<path fill="none" stroke="#63b8ff" d="M539.79,-145.86C445.14,-138.54 273.8,-123.35 128.75,-100 125.85,-99.53 122.88,-99.02 119.89,-98.48"/>
<polygon fill="#63b8ff" stroke="#63b8ff" points="539.48,-149.35 549.72,-146.62 540.02,-142.37 539.48,-149.35"/>
</a>
</g>
</g>
<!-- Node5 -->
<g id="Node000005" class="node">
<title>Node5</title>
<g id="a_Node000005"><a xlink:href="driver__bmp390__fifo_8h.html" target="_top" xlink:title="driver bmp390 fifo header file">
<polygon fill="white" stroke="#666666" points="257.5,-100 138,-100 138,-68 257.5,-68 257.5,-100"/>
<text xml:space="preserve" text-anchor="start" x="146" y="-86.5" font-family="Helvetica,sans-Serif" font-size="10.00">example/driver_bmp390</text>
<text xml:space="preserve" text-anchor="middle" x="197.75" y="-74.5" font-family="Helvetica,sans-Serif" font-size="10.00">_fifo.h</text>
</a>
</g>
</g>
<!-- Node2&#45;&gt;Node5 -->
<g id="edge4_Node000002_Node000005" class="edge">
<title>Node2&#45;&gt;Node5</title>
<g id="a_edge4_Node000002_Node000005"><a xlink:title=" ">
<path fill="none" stroke="#63b8ff" d="M540.1,-141.84C470.16,-132.56 360.84,-117.16 266.75,-100 263.86,-99.47 260.9,-98.91 257.91,-98.33"/>
<polygon fill="#63b8ff" stroke="#63b8ff" points="539.53,-145.29 549.91,-143.13 540.45,-138.36 539.53,-145.29"/>
</a>
</g>
</g>
<!-- Node7 -->
<g id="Node000007" class="node">
<title>Node7</title>
<g id="a_Node000007"><a xlink:href="driver__bmp390__interrupt_8h.html" target="_top" xlink:title="driver bmp390 interrupt header file">
<polygon fill="white" stroke="#666666" points="395.5,-100 276,-100 276,-68 395.5,-68 395.5,-100"/>
<text xml:space="preserve" text-anchor="start" x="284" y="-86.5" font-family="Helvetica,sans-Serif" font-size="10.00">example/driver_bmp390</text>
<text xml:space="preserve" text-anchor="middle" x="335.75" y="-74.5" font-family="Helvetica,sans-Serif" font-size="10.00">_interrupt.h</text>
</a>
</g>
</g>
<!-- Node2&#45;&gt;Node7 -->
<g id="edge6_Node000002_Node000007" class="edge">
<title>Node2&#45;&gt;Node7</title>
<g id="a_edge6_Node000002_Node000007"><a xlink:title=" ">
<path fill="none" stroke="#63b8ff" d="M540.06,-133.86C495.22,-123.13 438.13,-109.48 395.7,-99.34"/>
<polygon fill="#63b8ff" stroke="#63b8ff" points="539.17,-137.24 549.71,-136.16 540.8,-130.43 539.17,-137.24"/>
</a>
</g>
</g>
<!-- Node9 -->
<g id="Node000009" class="node">
<title>Node9</title>
<g id="a_Node000009"><a xlink:href="driver__bmp390__shot_8h.html" target="_top" xlink:title="driver bmp390 shot header file">
<polygon fill="white" stroke="#666666" points="533.5,-100 414,-100 414,-68 533.5,-68 533.5,-100"/>
<text xml:space="preserve" text-anchor="start" x="422" y="-86.5" font-family="Helvetica,sans-Serif" font-size="10.00">example/driver_bmp390</text>
<text xml:space="preserve" text-anchor="middle" x="473.75" y="-74.5" font-family="Helvetica,sans-Serif" font-size="10.00">_shot.h</text>
</a>
</g>
</g>
<!-- Node2&#45;&gt;Node9 -->
<g id="edge8_Node000002_Node000009" class="edge">
<title>Node2&#45;&gt;Node9</title>
<g id="a_edge8_Node000002_Node000009"><a xlink:title=" ">
<path fill="none" stroke="#63b8ff" d="M569.11,-130.61C548.72,-120.86 524.72,-109.38 505.9,-100.38"/>
<polygon fill="#63b8ff" stroke="#63b8ff" points="567.5,-133.72 578.03,-134.87 570.52,-127.4 567.5,-133.72"/>
</a>
</g>
</g>
<!-- Node11 -->
<g id="Node000011" class="node">
<title>Node11</title>
<g id="a_Node000011"><a xlink:href="driver__bmp390__interface__template_8c.html" target="_top" xlink:title="driver bmp390 interface template source file">
<polygon fill="white" stroke="#666666" points="671.88,-100 551.62,-100 551.62,-68 671.88,-68 671.88,-100"/>
<text xml:space="preserve" text-anchor="start" x="559.62" y="-86.5" font-family="Helvetica,sans-Serif" font-size="10.00">interface/driver_bmp390</text>
<text xml:space="preserve" text-anchor="middle" x="611.75" y="-74.5" font-family="Helvetica,sans-Serif" font-size="10.00">_interface_template.c</text>
</a>
</g>
</g>
<!-- Node2&#45;&gt;Node11 -->
<g id="edge10_Node000002_Node000011" class="edge">
<title>Node2&#45;&gt;Node11</title>
<g id="a_edge10_Node000002_Node000011"><a xlink:title=" ">
<path fill="none" stroke="#63b8ff" d="M611.75,-124.31C611.75,-116.12 611.75,-107.38 611.75,-100.22"/>
<polygon fill="#63b8ff" stroke="#63b8ff" points="608.25,-124.18 611.75,-134.18 615.25,-124.18 608.25,-124.18"/>
</a>
</g>
</g>
<!-- Node12 -->
<g id="Node000012" class="node">
<title>Node12</title>
<g id="a_Node000012"><a xlink:href="driver__bmp390__fifo__test_8h.html" target="_top" xlink:title="driver bmp390 fifo test header file">
<polygon fill="white" stroke="#666666" points="789.38,-100 690.12,-100 690.12,-68 789.38,-68 789.38,-100"/>
<text xml:space="preserve" text-anchor="start" x="698.12" y="-86.5" font-family="Helvetica,sans-Serif" font-size="10.00">test/driver_bmp390</text>
<text xml:space="preserve" text-anchor="middle" x="739.75" y="-74.5" font-family="Helvetica,sans-Serif" font-size="10.00">_fifo_test.h</text>
</a>
</g>
</g>
<!-- Node2&#45;&gt;Node12 -->
<g id="edge11_Node000002_Node000012" class="edge">
<title>Node2&#45;&gt;Node12</title>
<g id="a_edge11_Node000002_Node000012"><a xlink:title=" ">
<path fill="none" stroke="#63b8ff" d="M651.82,-130.34C670.62,-120.65 692.63,-109.3 709.93,-100.38"/>
<polygon fill="#63b8ff" stroke="#63b8ff" points="650.39,-127.14 643.11,-134.83 653.6,-133.36 650.39,-127.14"/>
</a>
</g>
</g>
<!-- Node14 -->
<g id="Node000014" class="node">
<title>Node14</title>
<g id="a_Node000014"><a xlink:href="driver__bmp390__interrupt__test_8h.html" target="_top" xlink:title="driver bmp390 interrupt test header file">
<polygon fill="white" stroke="#666666" points="906.38,-100 807.12,-100 807.12,-68 906.38,-68 906.38,-100"/>
<text xml:space="preserve" text-anchor="start" x="815.12" y="-86.5" font-family="Helvetica,sans-Serif" font-size="10.00">test/driver_bmp390</text>
<text xml:space="preserve" text-anchor="middle" x="856.75" y="-74.5" font-family="Helvetica,sans-Serif" font-size="10.00">_interrupt_test.h</text>
</a>
</g>
</g>
<!-- Node2&#45;&gt;Node14 -->
<g id="edge13_Node000002_Node000014" class="edge">
<title>Node2&#45;&gt;Node14</title>
<g id="a_edge13_Node000002_Node000014"><a xlink:title=" ">
<path fill="none" stroke="#63b8ff" d="M680.24,-132.55C720.41,-121.73 770.25,-108.3 806.72,-98.48"/>
<polygon fill="#63b8ff" stroke="#63b8ff" points="679.4,-129.15 670.65,-135.13 681.22,-135.91 679.4,-129.15"/>
</a>
</g>
</g>
<!-- Node16 -->
<g id="Node000016" class="node">
<title>Node16</title>
<g id="a_Node000016"><a xlink:href="driver__bmp390__read__test_8h.html" target="_top" xlink:title="driver bmp390 read test header file">
<polygon fill="white" stroke="#666666" points="1023.38,-100 924.12,-100 924.12,-68 1023.38,-68 1023.38,-100"/>
<text xml:space="preserve" text-anchor="start" x="932.12" y="-86.5" font-family="Helvetica,sans-Serif" font-size="10.00">test/driver_bmp390</text>
<text xml:space="preserve" text-anchor="middle" x="973.75" y="-74.5" font-family="Helvetica,sans-Serif" font-size="10.00">_read_test.h</text>
</a>
</g>
</g>
<!-- Node2&#45;&gt;Node16 -->
<g id="edge15_Node000002_Node000016" class="edge">
<title>Node2&#45;&gt;Node16</title>
<g id="a_edge15_Node000002_Node000016"><a xlink:title=" ">
<path fill="none" stroke="#63b8ff" d="M683.52,-135.57C786.62,-117.04 815.78,-120.53 915.75,-100 918.4,-99.46 921.11,-98.87 923.84,-98.25"/>
<polygon fill="#63b8ff" stroke="#63b8ff" points="682.99,-132.11 673.78,-137.34 684.24,-138.99 682.99,-132.11"/>
</a>
</g>
</g>
<!-- Node18 -->
<g id="Node000018" class="node">
<title>Node18</title>
<g id="a_Node000018"><a xlink:href="driver__bmp390__register__test_8h.html" target="_top" xlink:title="driver bmp390 register test header file">
<polygon fill="white" stroke="#666666" points="1140.38,-100 1041.12,-100 1041.12,-68 1140.38,-68 1140.38,-100"/>
<text xml:space="preserve" text-anchor="start" x="1049.12" y="-86.5" font-family="Helvetica,sans-Serif" font-size="10.00">test/driver_bmp390</text>
<text xml:space="preserve" text-anchor="middle" x="1090.75" y="-74.5" font-family="Helvetica,sans-Serif" font-size="10.00">_register_test.h</text>
</a>
</g>
</g>
<!-- Node2&#45;&gt;Node18 -->
<g id="edge17_Node000002_Node000018" class="edge">
<title>Node2&#45;&gt;Node18</title>
<g id="a_edge17_Node000002_Node000018"><a xlink:title=" ">
<path fill="none" stroke="#63b8ff" d="M683.58,-135.67C838.08,-112.01 881.59,-127.12 1032.75,-100 1035.41,-99.52 1038.13,-98.99 1040.87,-98.41"/>
<polygon fill="#63b8ff" stroke="#63b8ff" points="683.09,-132.21 673.75,-137.21 684.18,-139.12 683.09,-132.21"/>
</a>
</g>
</g>
<!-- Node4 -->
<g id="Node000004" class="node">
<title>Node4</title>
<g id="a_Node000004"><a xlink:href="driver__bmp390__basic_8c.html" target="_top" xlink:title="driver bmp390 basic source file">
<polygon fill="white" stroke="#666666" points="119.5,-32 0,-32 0,0 119.5,0 119.5,-32"/>
<text xml:space="preserve" text-anchor="start" x="8" y="-18.5" font-family="Helvetica,sans-Serif" font-size="10.00">example/driver_bmp390</text>
<text xml:space="preserve" text-anchor="middle" x="59.75" y="-6.5" font-family="Helvetica,sans-Serif" font-size="10.00">_basic.c</text>
</a>
</g>
</g>
<!-- Node3&#45;&gt;Node4 -->
<g id="edge3_Node000003_Node000004" class="edge">
<title>Node3&#45;&gt;Node4</title>
<g id="a_edge3_Node000003_Node000004"><a xlink:title=" ">
<path fill="none" stroke="#63b8ff" d="M59.75,-56.31C59.75,-48.12 59.75,-39.38 59.75,-32.22"/>
<polygon fill="#63b8ff" stroke="#63b8ff" points="56.25,-56.18 59.75,-66.18 63.25,-56.18 56.25,-56.18"/>
</a>
</g>
</g>
<!-- Node6 -->
<g id="Node000006" class="node">
<title>Node6</title>
<g id="a_Node000006"><a xlink:href="driver__bmp390__fifo_8c.html" target="_top" xlink:title="driver bmp390 fifo source file">
<polygon fill="white" stroke="#666666" points="257.5,-32 138,-32 138,0 257.5,0 257.5,-32"/>
<text xml:space="preserve" text-anchor="start" x="146" y="-18.5" font-family="Helvetica,sans-Serif" font-size="10.00">example/driver_bmp390</text>
<text xml:space="preserve" text-anchor="middle" x="197.75" y="-6.5" font-family="Helvetica,sans-Serif" font-size="10.00">_fifo.c</text>
</a>
</g>
</g>
<!-- Node5&#45;&gt;Node6 -->
<g id="edge5_Node000005_Node000006" class="edge">
<title>Node5&#45;&gt;Node6</title>
<g id="a_edge5_Node000005_Node000006"><a xlink:title=" ">
<path fill="none" stroke="#63b8ff" d="M197.75,-56.31C197.75,-48.12 197.75,-39.38 197.75,-32.22"/>
<polygon fill="#63b8ff" stroke="#63b8ff" points="194.25,-56.18 197.75,-66.18 201.25,-56.18 194.25,-56.18"/>
</a>
</g>
</g>
<!-- Node8 -->
<g id="Node000008" class="node">
<title>Node8</title>
<g id="a_Node000008"><a xlink:href="driver__bmp390__interrupt_8c.html" target="_top" xlink:title="driver bmp390 interrupt source file">
<polygon fill="white" stroke="#666666" points="395.5,-32 276,-32 276,0 395.5,0 395.5,-32"/>
<text xml:space="preserve" text-anchor="start" x="284" y="-18.5" font-family="Helvetica,sans-Serif" font-size="10.00">example/driver_bmp390</text>
<text xml:space="preserve" text-anchor="middle" x="335.75" y="-6.5" font-family="Helvetica,sans-Serif" font-size="10.00">_interrupt.c</text>
</a>
</g>
</g>
<!-- Node7&#45;&gt;Node8 -->
<g id="edge7_Node000007_Node000008" class="edge">
<title>Node7&#45;&gt;Node8</title>
<g id="a_edge7_Node000007_Node000008"><a xlink:title=" ">
<path fill="none" stroke="#63b8ff" d="M335.75,-56.31C335.75,-48.12 335.75,-39.38 335.75,-32.22"/>
<polygon fill="#63b8ff" stroke="#63b8ff" points="332.25,-56.18 335.75,-66.18 339.25,-56.18 332.25,-56.18"/>
</a>
</g>
</g>
<!-- Node10 -->
<g id="Node000010" class="node">
<title>Node10</title>
<g id="a_Node000010"><a xlink:href="driver__bmp390__shot_8c.html" target="_top" xlink:title="driver bmp390 shot source file">
<polygon fill="white" stroke="#666666" points="533.5,-32 414,-32 414,0 533.5,0 533.5,-32"/>
<text xml:space="preserve" text-anchor="start" x="422" y="-18.5" font-family="Helvetica,sans-Serif" font-size="10.00">example/driver_bmp390</text>
<text xml:space="preserve" text-anchor="middle" x="473.75" y="-6.5" font-family="Helvetica,sans-Serif" font-size="10.00">_shot.c</text>
</a>
</g>
</g>
<!-- Node9&#45;&gt;Node10 -->
<g id="edge9_Node000009_Node000010" class="edge">
<title>Node9&#45;&gt;Node10</title>
<g id="a_edge9_Node000009_Node000010"><a xlink:title=" ">
<path fill="none" stroke="#63b8ff" d="M473.75,-56.31C473.75,-48.12 473.75,-39.38 473.75,-32.22"/>
<polygon fill="#63b8ff" stroke="#63b8ff" points="470.25,-56.18 473.75,-66.18 477.25,-56.18 470.25,-56.18"/>
</a>
</g>
</g>
<!-- Node13 -->
<g id="Node000013" class="node">
<title>Node13</title>
<g id="a_Node000013"><a xlink:href="driver__bmp390__fifo__test_8c.html" target="_top" xlink:title="driver bmp390 fifo test source file">
<polygon fill="white" stroke="#666666" points="789.38,-32 690.12,-32 690.12,0 789.38,0 789.38,-32"/>
<text xml:space="preserve" text-anchor="start" x="698.12" y="-18.5" font-family="Helvetica,sans-Serif" font-size="10.00">test/driver_bmp390</text>
<text xml:space="preserve" text-anchor="middle" x="739.75" y="-6.5" font-family="Helvetica,sans-Serif" font-size="10.00">_fifo_test.c</text>
</a>
</g>
</g>
<!-- Node12&#45;&gt;Node13 -->
<g id="edge12_Node000012_Node000013" class="edge">
<title>Node12&#45;&gt;Node13</title>
<g id="a_edge12_Node000012_Node000013"><a xlink:title=" ">
<path fill="none" stroke="#63b8ff" d="M739.75,-56.31C739.75,-48.12 739.75,-39.38 739.75,-32.22"/>
<polygon fill="#63b8ff" stroke="#63b8ff" points="736.25,-56.18 739.75,-66.18 743.25,-56.18 736.25,-56.18"/>
</a>
</g>
</g>
<!-- Node15 -->
<g id="Node000015" class="node">
<title>Node15</title>
<g id="a_Node000015"><a xlink:href="driver__bmp390__interrupt__test_8c.html" target="_top" xlink:title=" ">
<polygon fill="white" stroke="#666666" points="906.38,-32 807.12,-32 807.12,0 906.38,0 906.38,-32"/>
<text xml:space="preserve" text-anchor="start" x="815.12" y="-18.5" font-family="Helvetica,sans-Serif" font-size="10.00">test/driver_bmp390</text>
<text xml:space="preserve" text-anchor="middle" x="856.75" y="-6.5" font-family="Helvetica,sans-Serif" font-size="10.00">_interrupt_test.c</text>
</a>
</g>
</g>
<!-- Node14&#45;&gt;Node15 -->
<g id="edge14_Node000014_Node000015" class="edge">
<title>Node14&#45;&gt;Node15</title>
<g id="a_edge14_Node000014_Node000015"><a xlink:title=" ">
<path fill="none" stroke="#63b8ff" d="M856.75,-56.31C856.75,-48.12 856.75,-39.38 856.75,-32.22"/>
<polygon fill="#63b8ff" stroke="#63b8ff" points="853.25,-56.18 856.75,-66.18 860.25,-56.18 853.25,-56.18"/>
</a>
</g>
</g>
<!-- Node17 -->
<g id="Node000017" class="node">
<title>Node17</title>
<g id="a_Node000017"><a xlink:href="driver__bmp390__read__test_8c.html" target="_top" xlink:title="driver bmp390 read test source file">
<polygon fill="white" stroke="#666666" points="1023.38,-32 924.12,-32 924.12,0 1023.38,0 1023.38,-32"/>
<text xml:space="preserve" text-anchor="start" x="932.12" y="-18.5" font-family="Helvetica,sans-Serif" font-size="10.00">test/driver_bmp390</text>
<text xml:space="preserve" text-anchor="middle" x="973.75" y="-6.5" font-family="Helvetica,sans-Serif" font-size="10.00">_read_test.c</text>
</a>
</g>
</g>
<!-- Node16&#45;&gt;Node17 -->
<g id="edge16_Node000016_Node000017" class="edge">
<title>Node16&#45;&gt;Node17</title>
<g id="a_edge16_Node000016_Node000017"><a xlink:title=" ">
<path fill="none" stroke="#63b8ff" d="M973.75,-56.31C973.75,-48.12 973.75,-39.38 973.75,-32.22"/>
<polygon fill="#63b8ff" stroke="#63b8ff" points="970.25,-56.18 973.75,-66.18 977.25,-56.18 970.25,-56.18"/>
</a>
</g>
</g>
<!-- Node19 -->
<g id="Node000019" class="node">
<title>Node19</title>
<g id="a_Node000019"><a xlink:href="driver__bmp390__register__test_8c.html" target="_top" xlink:title="driver bmp390 register test source file">
<polygon fill="white" stroke="#666666" points="1140.38,-32 1041.12,-32 1041.12,0 1140.38,0 1140.38,-32"/>
<text xml:space="preserve" text-anchor="start" x="1049.12" y="-18.5" font-family="Helvetica,sans-Serif" font-size="10.00">test/driver_bmp390</text>
<text xml:space="preserve" text-anchor="middle" x="1090.75" y="-6.5" font-family="Helvetica,sans-Serif" font-size="10.00">_register_test.c</text>
</a>
</g>
</g>
<!-- Node18&#45;&gt;Node19 -->
<g id="edge18_Node000018_Node000019" class="edge">
<title>Node18&#45;&gt;Node19</title>
<g id="a_edge18_Node000018_Node000019"><a xlink:title=" ">
<path fill="none" stroke="#63b8ff" d="M1090.75,-56.31C1090.75,-48.12 1090.75,-39.38 1090.75,-32.22"/>
<polygon fill="#63b8ff" stroke="#63b8ff" points="1087.25,-56.18 1090.75,-66.18 1094.25,-56.18 1087.25,-56.18"/>
</a>
</g>
</g>
</g>
</svg>
