<?xml version="1.0" encoding="UTF-8" standalone="no"?>
<!DOCTYPE svg PUBLIC "-//W3C//DTD SVG 1.1//EN"
 "http://www.w3.org/Graphics/SVG/1.1/DTD/svg11.dtd">
<!-- Generated by graphviz version 13.1.0 (20250701.0955)
 -->
<!-- Title: bmp390_fifo_read Pages: 1 -->
<svg width="236pt" height="66pt"
 viewBox="0.00 0.00 236.00 66.00" xmlns="http://www.w3.org/2000/svg" xmlns:xlink="http://www.w3.org/1999/xlink">
<g id="graph0" class="graph" transform="scale(1 1) rotate(0) translate(4 62)">
<title>bmp390_fifo_read</title>
<!-- Node1 -->
<g id="Node000001" class="node">
<title>Node1</title>
<g id="a_Node000001"><a xlink:title="fifo example read">
<polygon fill="#999999" stroke="#666666" points="93.25,-39 0,-39 0,-19 93.25,-19 93.25,-39"/>
<text xml:space="preserve" text-anchor="middle" x="46.62" y="-25.5" font-family="Helvetica,sans-Serif" font-size="10.00">bmp390_fifo_read</text>
</a>
</g>
</g>
<!-- Node2 -->
<g id="Node000002" class="node">
<title>Node2</title>
<g id="a_Node000002"><a xlink:href="group__bmp390__fifo__driver.html#ga006e8bac41f91ecd62be7f8aaa065745" target="_top" xlink:title="parse the fifo data">
<polygon fill="white" stroke="#666666" points="227.75,-58 129.25,-58 129.25,-38 227.75,-38 227.75,-58"/>
<text xml:space="preserve" text-anchor="middle" x="178.5" y="-44.5" font-family="Helvetica,sans-Serif" font-size="10.00">bmp390_fifo_parse</text>
</a>
</g>
</g>
<!-- Node1&#45;&gt;Node2 -->
<g id="edge1_Node000001_Node000002" class="edge">
<title>Node1&#45;&gt;Node2</title>
<g id="a_edge1_Node000001_Node000002"><a xlink:title=" ">
<path fill="none" stroke="#63b8ff" d="M93.41,-35.7C101.26,-36.85 109.51,-38.05 117.65,-39.24"/>
<polygon fill="#63b8ff" stroke="#63b8ff" points="117.14,-42.71 127.55,-40.69 118.16,-35.78 117.14,-42.71"/>
</a>
</g>
</g>
<!-- Node3 -->
<g id="Node000003" class="node">
<title>Node3</title>
<g id="a_Node000003"><a xlink:href="group__bmp390__fifo__driver.html#ga7cd8b666bc45dbd6a874bf815f05da34" target="_top" xlink:title="read the fifo">
<polygon fill="white" stroke="#666666" points="225.12,-20 131.88,-20 131.88,0 225.12,0 225.12,-20"/>
<text xml:space="preserve" text-anchor="middle" x="178.5" y="-6.5" font-family="Helvetica,sans-Serif" font-size="10.00">bmp390_read_fifo</text>
</a>
</g>
</g>
<!-- Node1&#45;&gt;Node3 -->
<g id="edge2_Node000001_Node000003" class="edge">
<title>Node1&#45;&gt;Node3</title>
<g id="a_edge2_Node000001_Node000003"><a xlink:title=" ">
<path fill="none" stroke="#63b8ff" d="M93.41,-22.3C102.14,-21.02 111.38,-19.67 120.41,-18.35"/>
<polygon fill="#63b8ff" stroke="#63b8ff" points="120.8,-21.83 130.19,-16.92 119.79,-14.91 120.8,-21.83"/>
</a>
</g>
</g>
</g>
</svg>
