<?xml version="1.0" encoding="UTF-8" standalone="no"?>
<!DOCTYPE svg PUBLIC "-//W3C//DTD SVG 1.1//EN"
 "http://www.w3.org/Graphics/SVG/1.1/DTD/svg11.dtd">
<!-- Generated by graphviz version 13.1.0 (20250701.0955)
 -->
<!-- Title: bmp390_shot_init Pages: 1 -->
<svg width="440pt" height="1086pt"
 viewBox="0.00 0.00 440.00 1086.00" xmlns="http://www.w3.org/2000/svg" xmlns:xlink="http://www.w3.org/1999/xlink">
<g id="graph0" class="graph" transform="scale(1 1) rotate(0) translate(4 1082)">
<title>bmp390_shot_init</title>
<!-- Node1 -->
<g id="Node000001" class="node">
<title>Node1</title>
<g id="a_Node000001"><a xlink:title="shot example init">
<polygon fill="#999999" stroke="#666666" points="92.5,-546 0,-546 0,-526 92.5,-526 92.5,-546"/>
<text xml:space="preserve" text-anchor="middle" x="46.25" y="-532.5" font-family="Helvetica,sans-Serif" font-size="10.00">bmp390_shot_init</text>
</a>
</g>
</g>
<!-- Node2 -->
<g id="Node000002" class="node">
<title>Node2</title>
<g id="a_Node000002"><a xlink:href="group__bmp390__base__driver.html#gad0163bb34f04eb7d0888ebfa18534760" target="_top" xlink:title="close the chip">
<polygon fill="white" stroke="#666666" points="239.38,-1078 160.38,-1078 160.38,-1058 239.38,-1058 239.38,-1078"/>
<text xml:space="preserve" text-anchor="middle" x="199.88" y="-1064.5" font-family="Helvetica,sans-Serif" font-size="10.00">bmp390_deinit</text>
</a>
</g>
</g>
<!-- Node1&#45;&gt;Node2 -->
<g id="edge1_Node000001_Node000002" class="edge">
<title>Node1&#45;&gt;Node2</title>
<g id="a_edge1_Node000001_Node000002"><a xlink:title=" ">
<path fill="none" stroke="#63b8ff" d="M47.41,-546.2C48.62,-611.55 58.43,-971.03 128.5,-1049 134.02,-1055.15 141.31,-1059.4 149.1,-1062.31"/>
<polygon fill="#63b8ff" stroke="#63b8ff" points="147.88,-1065.6 158.47,-1065.09 149.87,-1058.89 147.88,-1065.6"/>
</a>
</g>
</g>
<!-- Node3 -->
<g id="Node000003" class="node">
<title>Node3</title>
<g id="a_Node000003"><a xlink:href="group__bmp390__base__driver.html#ga9b7e1b2a9ba82b52b325d528fddc9947" target="_top" xlink:title="initialize the chip">
<polygon fill="white" stroke="#666666" points="234.12,-1040 165.62,-1040 165.62,-1020 234.12,-1020 234.12,-1040"/>
<text xml:space="preserve" text-anchor="middle" x="199.88" y="-1026.5" font-family="Helvetica,sans-Serif" font-size="10.00">bmp390_init</text>
</a>
</g>
</g>
<!-- Node1&#45;&gt;Node3 -->
<g id="edge2_Node000001_Node000003" class="edge">
<title>Node1&#45;&gt;Node3</title>
<g id="a_edge2_Node000001_Node000003"><a xlink:title=" ">
<path fill="none" stroke="#63b8ff" d="M47.65,-546.49C50.22,-609.11 66.4,-933.26 128.5,-1006 135.2,-1013.85 144.57,-1019.13 154.3,-1022.69"/>
<polygon fill="#63b8ff" stroke="#63b8ff" points="153.28,-1026.04 163.86,-1025.58 155.3,-1019.34 153.28,-1026.04"/>
</a>
</g>
</g>
<!-- Node4 -->
<g id="Node000004" class="node">
<title>Node4</title>
<g id="a_Node000004"><a xlink:href="group__bmp390__interface__driver.html#ga285886b933f3a6b3f4304911dadfe442" target="_top" xlink:title="interface print format data">
<polygon fill="white" stroke="#666666" points="432,-879 307.25,-879 307.25,-847 432,-847 432,-879"/>
<text xml:space="preserve" text-anchor="start" x="315.25" y="-865.5" font-family="Helvetica,sans-Serif" font-size="10.00">bmp390_interface_debug</text>
<text xml:space="preserve" text-anchor="middle" x="369.62" y="-853.5" font-family="Helvetica,sans-Serif" font-size="10.00">_print</text>
</a>
</g>
</g>
<!-- Node1&#45;&gt;Node4 -->
<g id="edge3_Node000001_Node000004" class="edge">
<title>Node1&#45;&gt;Node4</title>
<g id="a_edge3_Node000001_Node000004"><a xlink:title=" ">
<path fill="none" stroke="#63b8ff" d="M47.47,-546.45C49,-607.4 60.11,-916.15 128.5,-973 177.29,-1013.55 213.4,-999.05 271.25,-973 309.23,-955.9 338.38,-915.85 354.51,-889.09"/>
<polygon fill="#63b8ff" stroke="#63b8ff" points="357.49,-890.93 359.48,-880.53 351.43,-887.42 357.49,-890.93"/>
</a>
</g>
</g>
<!-- Node5 -->
<g id="Node000005" class="node">
<title>Node5</title>
<g id="a_Node000005"><a xlink:href="group__bmp390__interface__driver.html#gad15acd2ae92f6b2a13e62c2ead8371b6" target="_top" xlink:title="interface delay ms">
<polygon fill="white" stroke="#666666" points="270.12,-964 129.62,-964 129.62,-944 270.12,-944 270.12,-964"/>
<text xml:space="preserve" text-anchor="middle" x="199.88" y="-950.5" font-family="Helvetica,sans-Serif" font-size="10.00">bmp390_interface_delay_ms</text>
</a>
</g>
</g>
<!-- Node1&#45;&gt;Node5 -->
<g id="edge4_Node000001_Node000005" class="edge">
<title>Node1&#45;&gt;Node5</title>
<g id="a_edge4_Node000001_Node000005"><a xlink:title=" ">
<path fill="none" stroke="#63b8ff" d="M47.92,-546.41C51.8,-603.28 73.09,-876 128.5,-935 129.1,-935.64 129.72,-936.26 130.36,-936.86"/>
<polygon fill="#63b8ff" stroke="#63b8ff" points="128.17,-939.59 138.3,-942.68 132.3,-933.94 128.17,-939.59"/>
</a>
</g>
</g>
<!-- Node6 -->
<g id="Node000006" class="node">
<title>Node6</title>
<g id="a_Node000006"><a xlink:href="group__bmp390__interface__driver.html#ga321e928dd7c8f38e93c56af970ff0564" target="_top" xlink:title="interface iic bus deinit">
<polygon fill="white" stroke="#666666" points="254,-926 145.75,-926 145.75,-894 254,-894 254,-926"/>
<text xml:space="preserve" text-anchor="start" x="153.75" y="-912.5" font-family="Helvetica,sans-Serif" font-size="10.00">bmp390_interface_iic</text>
<text xml:space="preserve" text-anchor="middle" x="199.88" y="-900.5" font-family="Helvetica,sans-Serif" font-size="10.00">_deinit</text>
</a>
</g>
</g>
<!-- Node1&#45;&gt;Node6 -->
<g id="edge5_Node000001_Node000006" class="edge">
<title>Node1&#45;&gt;Node6</title>
<g id="a_edge5_Node000001_Node000006"><a xlink:title=" ">
<path fill="none" stroke="#63b8ff" d="M48.33,-546.39C53.96,-598.66 81.46,-832.34 128.5,-885 130.69,-887.45 133.13,-889.66 135.75,-891.65"/>
<polygon fill="#63b8ff" stroke="#63b8ff" points="133.67,-894.47 144,-896.82 137.39,-888.54 133.67,-894.47"/>
</a>
</g>
</g>
<!-- Node7 -->
<g id="Node000007" class="node">
<title>Node7</title>
<g id="a_Node000007"><a xlink:href="group__bmp390__interface__driver.html#ga5585f9fc8896d42b83a409fd8a5b753f" target="_top" xlink:title="interface iic bus init">
<polygon fill="white" stroke="#666666" points="263,-876 136.75,-876 136.75,-856 263,-856 263,-876"/>
<text xml:space="preserve" text-anchor="middle" x="199.88" y="-862.5" font-family="Helvetica,sans-Serif" font-size="10.00">bmp390_interface_iic_init</text>
</a>
</g>
</g>
<!-- Node1&#45;&gt;Node7 -->
<g id="edge6_Node000001_Node000007" class="edge">
<title>Node1&#45;&gt;Node7</title>
<g id="a_edge6_Node000001_Node000007"><a xlink:title=" ">
<path fill="none" stroke="#63b8ff" d="M48.55,-546.29C54.9,-595.05 84.19,-802.33 128.5,-847 129.24,-847.75 130.01,-848.47 130.8,-849.16"/>
<polygon fill="#63b8ff" stroke="#63b8ff" points="128.6,-851.89 138.81,-854.7 132.58,-846.13 128.6,-851.89"/>
</a>
</g>
</g>
<!-- Node8 -->
<g id="Node000008" class="node">
<title>Node8</title>
<g id="a_Node000008"><a xlink:href="group__bmp390__interface__driver.html#gaa1703bed8be2eb5032054b958248518c" target="_top" xlink:title="interface iic bus read">
<polygon fill="white" stroke="#666666" points="266,-838 133.75,-838 133.75,-818 266,-818 266,-838"/>
<text xml:space="preserve" text-anchor="middle" x="199.88" y="-824.5" font-family="Helvetica,sans-Serif" font-size="10.00">bmp390_interface_iic_read</text>
</a>
</g>
</g>
<!-- Node1&#45;&gt;Node8 -->
<g id="edge7_Node000001_Node000008" class="edge">
<title>Node1&#45;&gt;Node8</title>
<g id="a_edge7_Node000001_Node000008"><a xlink:title=" ">
<path fill="none" stroke="#63b8ff" d="M46.99,-546.45C46.6,-586.69 50.77,-733.24 128.5,-809 129.38,-809.86 130.3,-810.68 131.25,-811.47"/>
<polygon fill="#63b8ff" stroke="#63b8ff" points="128.99,-814.17 139.26,-816.78 132.86,-808.34 128.99,-814.17"/>
</a>
</g>
</g>
<!-- Node9 -->
<g id="Node000009" class="node">
<title>Node9</title>
<g id="a_Node000009"><a xlink:href="group__bmp390__interface__driver.html#gaa7a157a5d166f890e312e0bcea96e8ef" target="_top" xlink:title="interface iic bus write">
<polygon fill="white" stroke="#666666" points="254,-800 145.75,-800 145.75,-768 254,-768 254,-800"/>
<text xml:space="preserve" text-anchor="start" x="153.75" y="-786.5" font-family="Helvetica,sans-Serif" font-size="10.00">bmp390_interface_iic</text>
<text xml:space="preserve" text-anchor="middle" x="199.88" y="-774.5" font-family="Helvetica,sans-Serif" font-size="10.00">_write</text>
</a>
</g>
</g>
<!-- Node1&#45;&gt;Node9 -->
<g id="edge8_Node000001_Node000009" class="edge">
<title>Node1&#45;&gt;Node9</title>
<g id="a_edge8_Node000001_Node000009"><a xlink:title=" ">
<path fill="none" stroke="#63b8ff" d="M47.95,-546.04C50.91,-580.66 65.31,-696.32 128.5,-759 130.71,-761.19 133.13,-763.19 135.69,-765.02"/>
<polygon fill="#63b8ff" stroke="#63b8ff" points="133.83,-767.99 144.21,-770.12 137.42,-761.98 133.83,-767.99"/>
</a>
</g>
</g>
<!-- Node10 -->
<g id="Node000010" class="node">
<title>Node10</title>
<g id="a_Node000010"><a xlink:href="group__bmp390__interface__driver.html#gabfa274767f2bce14a65e8fd127b877bd" target="_top" xlink:title="interface receive callback">
<polygon fill="white" stroke="#666666" points="264.88,-750 134.88,-750 134.88,-718 264.88,-718 264.88,-750"/>
<text xml:space="preserve" text-anchor="start" x="142.88" y="-736.5" font-family="Helvetica,sans-Serif" font-size="10.00">bmp390_interface_receive</text>
<text xml:space="preserve" text-anchor="middle" x="199.88" y="-724.5" font-family="Helvetica,sans-Serif" font-size="10.00">_callback</text>
</a>
</g>
</g>
<!-- Node1&#45;&gt;Node10 -->
<g id="edge9_Node000001_Node000010" class="edge">
<title>Node1&#45;&gt;Node10</title>
<g id="a_edge9_Node000001_Node000010"><a xlink:title=" ">
<path fill="none" stroke="#63b8ff" d="M49.18,-546.22C55.27,-575.76 76.88,-662.19 128.5,-709 129.41,-709.83 130.35,-710.63 131.32,-711.4"/>
<polygon fill="#63b8ff" stroke="#63b8ff" points="129.13,-714.15 139.38,-716.84 133.05,-708.35 129.13,-714.15"/>
</a>
</g>
</g>
<!-- Node11 -->
<g id="Node000011" class="node">
<title>Node11</title>
<g id="a_Node000011"><a xlink:href="group__bmp390__interface__driver.html#ga6a6048cfb7319a197d0837d7b60b6185" target="_top" xlink:title="interface spi bus deinit">
<polygon fill="white" stroke="#666666" points="255.5,-700 144.25,-700 144.25,-668 255.5,-668 255.5,-700"/>
<text xml:space="preserve" text-anchor="start" x="152.25" y="-686.5" font-family="Helvetica,sans-Serif" font-size="10.00">bmp390_interface_spi</text>
<text xml:space="preserve" text-anchor="middle" x="199.88" y="-674.5" font-family="Helvetica,sans-Serif" font-size="10.00">_deinit</text>
</a>
</g>
</g>
<!-- Node1&#45;&gt;Node11 -->
<g id="edge11_Node000001_Node000011" class="edge">
<title>Node1&#45;&gt;Node11</title>
<g id="a_edge11_Node000001_Node000011"><a xlink:title=" ">
<path fill="none" stroke="#63b8ff" d="M51.28,-546.2C61.01,-569.55 87.99,-627.29 128.5,-659 130.26,-660.38 132.1,-661.69 134.01,-662.92"/>
<polygon fill="#63b8ff" stroke="#63b8ff" points="132.23,-665.94 142.66,-667.81 135.68,-659.84 132.23,-665.94"/>
</a>
</g>
</g>
<!-- Node12 -->
<g id="Node000012" class="node">
<title>Node12</title>
<g id="a_Node000012"><a xlink:href="group__bmp390__interface__driver.html#ga053f014efb2d0c4c3cf328ff160cc12f" target="_top" xlink:title="interface spi bus init">
<polygon fill="white" stroke="#666666" points="264.5,-650 135.25,-650 135.25,-630 264.5,-630 264.5,-650"/>
<text xml:space="preserve" text-anchor="middle" x="199.88" y="-636.5" font-family="Helvetica,sans-Serif" font-size="10.00">bmp390_interface_spi_init</text>
</a>
</g>
</g>
<!-- Node1&#45;&gt;Node12 -->
<g id="edge12_Node000001_Node000012" class="edge">
<title>Node1&#45;&gt;Node12</title>
<g id="a_edge12_Node000001_Node000012"><a xlink:title=" ">
<path fill="none" stroke="#63b8ff" d="M54.22,-546.37C66.85,-564.36 95.32,-601.3 128.5,-621 131.11,-622.55 133.86,-623.98 136.68,-625.29"/>
<polygon fill="#63b8ff" stroke="#63b8ff" points="135.2,-628.47 145.78,-629 137.83,-621.98 135.2,-628.47"/>
</a>
</g>
</g>
<!-- Node13 -->
<g id="Node000013" class="node">
<title>Node13</title>
<g id="a_Node000013"><a xlink:href="group__bmp390__interface__driver.html#ga1c36285d8c3dd3ec7694057b3d3eaa3a" target="_top" xlink:title="interface spi bus read">
<polygon fill="white" stroke="#666666" points="267.5,-612 132.25,-612 132.25,-592 267.5,-592 267.5,-612"/>
<text xml:space="preserve" text-anchor="middle" x="199.88" y="-598.5" font-family="Helvetica,sans-Serif" font-size="10.00">bmp390_interface_spi_read</text>
</a>
</g>
</g>
<!-- Node1&#45;&gt;Node13 -->
<g id="edge13_Node000001_Node000013" class="edge">
<title>Node1&#45;&gt;Node13</title>
<g id="a_edge13_Node000001_Node000013"><a xlink:title=" ">
<path fill="none" stroke="#63b8ff" d="M62.5,-546.45C78.38,-556.93 104.27,-572.93 128.5,-583 133.03,-584.88 137.79,-586.63 142.63,-588.24"/>
<polygon fill="#63b8ff" stroke="#63b8ff" points="141.21,-591.46 151.8,-591.1 143.29,-584.78 141.21,-591.46"/>
</a>
</g>
</g>
<!-- Node14 -->
<g id="Node000014" class="node">
<title>Node14</title>
<g id="a_Node000014"><a xlink:href="group__bmp390__interface__driver.html#ga3e56f990b6b1e08614caf1e2324cc573" target="_top" xlink:title="interface spi bus write">
<polygon fill="white" stroke="#666666" points="255.5,-574 144.25,-574 144.25,-542 255.5,-542 255.5,-574"/>
<text xml:space="preserve" text-anchor="start" x="152.25" y="-560.5" font-family="Helvetica,sans-Serif" font-size="10.00">bmp390_interface_spi</text>
<text xml:space="preserve" text-anchor="middle" x="199.88" y="-548.5" font-family="Helvetica,sans-Serif" font-size="10.00">_write</text>
</a>
</g>
</g>
<!-- Node1&#45;&gt;Node14 -->
<g id="edge14_Node000001_Node000014" class="edge">
<title>Node1&#45;&gt;Node14</title>
<g id="a_edge14_Node000001_Node000014"><a xlink:title=" ">
<path fill="none" stroke="#63b8ff" d="M92.74,-542.6C105.28,-544.42 119.15,-546.43 132.6,-548.38"/>
<polygon fill="#63b8ff" stroke="#63b8ff" points="131.88,-551.82 142.28,-549.79 132.88,-544.89 131.88,-551.82"/>
</a>
</g>
</g>
<!-- Node15 -->
<g id="Node000015" class="node">
<title>Node15</title>
<g id="a_Node000015"><a xlink:href="group__bmp390__base__driver.html#ga7e388d2661a18be5cfb9de05f6f2cf11" target="_top" xlink:title="set the iic address pin">
<polygon fill="white" stroke="#666666" points="255.5,-524 144.25,-524 144.25,-504 255.5,-504 255.5,-524"/>
<text xml:space="preserve" text-anchor="middle" x="199.88" y="-510.5" font-family="Helvetica,sans-Serif" font-size="10.00">bmp390_set_addr_pin</text>
</a>
</g>
</g>
<!-- Node1&#45;&gt;Node15 -->
<g id="edge15_Node000001_Node000015" class="edge">
<title>Node1&#45;&gt;Node15</title>
<g id="a_edge15_Node000001_Node000015"><a xlink:title=" ">
<path fill="none" stroke="#63b8ff" d="M92.74,-529.4C105.28,-527.58 119.15,-525.57 132.6,-523.62"/>
<polygon fill="#63b8ff" stroke="#63b8ff" points="132.88,-527.11 142.28,-522.21 131.88,-520.18 132.88,-527.11"/>
</a>
</g>
</g>
<!-- Node16 -->
<g id="Node000016" class="node">
<title>Node16</title>
<g id="a_Node000016"><a xlink:href="group__bmp390__fifo__driver.html#ga4109aebe94da750602f05273c0e4897f" target="_top" xlink:title="enable or disable the fifo">
<polygon fill="white" stroke="#666666" points="243.88,-486 155.88,-486 155.88,-466 243.88,-466 243.88,-486"/>
<text xml:space="preserve" text-anchor="middle" x="199.88" y="-472.5" font-family="Helvetica,sans-Serif" font-size="10.00">bmp390_set_fifo</text>
</a>
</g>
</g>
<!-- Node1&#45;&gt;Node16 -->
<g id="edge16_Node000001_Node000016" class="edge">
<title>Node1&#45;&gt;Node16</title>
<g id="a_edge16_Node000001_Node000016"><a xlink:title=" ">
<path fill="none" stroke="#63b8ff" d="M65.16,-525.63C81.31,-516.6 105.92,-503.64 128.5,-495 133.76,-492.99 139.31,-491.1 144.9,-489.36"/>
<polygon fill="#63b8ff" stroke="#63b8ff" points="145.58,-492.81 154.18,-486.61 143.6,-486.09 145.58,-492.81"/>
</a>
</g>
</g>
<!-- Node17 -->
<g id="Node000017" class="node">
<title>Node17</title>
<g id="a_Node000017"><a xlink:href="group__bmp390__base__driver.html#gaf6022756e12b6e5329ef3a3220ab9f6e" target="_top" xlink:title="set the filter coefficient">
<polygon fill="white" stroke="#666666" points="271.25,-448 128.5,-448 128.5,-428 271.25,-428 271.25,-448"/>
<text xml:space="preserve" text-anchor="middle" x="199.88" y="-434.5" font-family="Helvetica,sans-Serif" font-size="10.00">bmp390_set_filter_coefficient</text>
</a>
</g>
</g>
<!-- Node1&#45;&gt;Node17 -->
<g id="edge17_Node000001_Node000017" class="edge">
<title>Node1&#45;&gt;Node17</title>
<g id="a_edge17_Node000001_Node000017"><a xlink:title=" ">
<path fill="none" stroke="#63b8ff" d="M55.02,-525.57C68.22,-508.6 96.7,-475.1 128.5,-457 131.34,-455.39 134.31,-453.9 137.38,-452.54"/>
<polygon fill="#63b8ff" stroke="#63b8ff" points="138.59,-455.83 146.63,-448.93 136.04,-449.31 138.59,-455.83"/>
</a>
</g>
</g>
<!-- Node18 -->
<g id="Node000018" class="node">
<title>Node18</title>
<g id="a_Node000018"><a xlink:href="group__bmp390__base__driver.html#gac906ec85a28a8c3bea0b3c3425b6c27b" target="_top" xlink:title="set the iic watchdog period">
<polygon fill="white" stroke="#666666" points="265.62,-410 134.12,-410 134.12,-378 265.62,-378 265.62,-410"/>
<text xml:space="preserve" text-anchor="start" x="142.12" y="-396.5" font-family="Helvetica,sans-Serif" font-size="10.00">bmp390_set_iic_watchdog</text>
<text xml:space="preserve" text-anchor="middle" x="199.88" y="-384.5" font-family="Helvetica,sans-Serif" font-size="10.00">_period</text>
</a>
</g>
</g>
<!-- Node1&#45;&gt;Node18 -->
<g id="edge18_Node000001_Node000018" class="edge">
<title>Node1&#45;&gt;Node18</title>
<g id="a_edge18_Node000001_Node000018"><a xlink:title=" ">
<path fill="none" stroke="#63b8ff" d="M51.73,-525.63C61.99,-503.01 89.4,-448.88 128.5,-419 129.82,-417.99 131.18,-417.02 132.58,-416.09"/>
<polygon fill="#63b8ff" stroke="#63b8ff" points="134.08,-419.27 140.97,-411.21 130.56,-413.21 134.08,-419.27"/>
</a>
</g>
</g>
<!-- Node19 -->
<g id="Node000019" class="node">
<title>Node19</title>
<g id="a_Node000019"><a xlink:href="group__bmp390__base__driver.html#gaa29c6d4e04b619ff1ed8871285a8f0e1" target="_top" xlink:title="enable or disable the iic watchdog timer">
<polygon fill="white" stroke="#666666" points="265.62,-360 134.12,-360 134.12,-328 265.62,-328 265.62,-360"/>
<text xml:space="preserve" text-anchor="start" x="142.12" y="-346.5" font-family="Helvetica,sans-Serif" font-size="10.00">bmp390_set_iic_watchdog</text>
<text xml:space="preserve" text-anchor="middle" x="199.88" y="-334.5" font-family="Helvetica,sans-Serif" font-size="10.00">_timer</text>
</a>
</g>
</g>
<!-- Node1&#45;&gt;Node19 -->
<g id="edge19_Node000001_Node000019" class="edge">
<title>Node1&#45;&gt;Node19</title>
<g id="a_edge19_Node000001_Node000019"><a xlink:title=" ">
<path fill="none" stroke="#63b8ff" d="M49.38,-525.72C55.9,-496.8 78.27,-413.92 128.5,-369 129.42,-368.18 130.37,-367.38 131.34,-366.62"/>
<polygon fill="#63b8ff" stroke="#63b8ff" points="133.06,-369.68 139.42,-361.21 129.17,-363.86 133.06,-369.68"/>
</a>
</g>
</g>
<!-- Node20 -->
<g id="Node000020" class="node">
<title>Node20</title>
<g id="a_Node000020"><a xlink:href="group__bmp390__base__driver.html#gad988b048fd1f60fe4e1c4e17e6b15e7b" target="_top" xlink:title="set the interface">
<polygon fill="white" stroke="#666666" points="255.88,-310 143.88,-310 143.88,-290 255.88,-290 255.88,-310"/>
<text xml:space="preserve" text-anchor="middle" x="199.88" y="-296.5" font-family="Helvetica,sans-Serif" font-size="10.00">bmp390_set_interface</text>
</a>
</g>
</g>
<!-- Node1&#45;&gt;Node20 -->
<g id="edge20_Node000001_Node000020" class="edge">
<title>Node1&#45;&gt;Node20</title>
<g id="a_edge20_Node000001_Node000020"><a xlink:title=" ">
<path fill="none" stroke="#63b8ff" d="M47.91,-525.56C50.7,-490.7 64.52,-377.2 128.5,-319 130.15,-317.5 131.91,-316.11 133.75,-314.84"/>
<polygon fill="#63b8ff" stroke="#63b8ff" points="135.24,-318.02 142.23,-310.05 131.8,-311.92 135.24,-318.02"/>
</a>
</g>
</g>
<!-- Node21 -->
<g id="Node000021" class="node">
<title>Node21</title>
<g id="a_Node000021"><a xlink:href="group__bmp390__base__driver.html#ga1ace669e619709db2b79762373789852" target="_top" xlink:title="set the chip mode">
<polygon fill="white" stroke="#666666" points="249.12,-272 150.62,-272 150.62,-252 249.12,-252 249.12,-272"/>
<text xml:space="preserve" text-anchor="middle" x="199.88" y="-258.5" font-family="Helvetica,sans-Serif" font-size="10.00">bmp390_set_mode</text>
</a>
</g>
</g>
<!-- Node1&#45;&gt;Node21 -->
<g id="edge21_Node000001_Node000021" class="edge">
<title>Node1&#45;&gt;Node21</title>
<g id="a_edge21_Node000001_Node000021"><a xlink:title=" ">
<path fill="none" stroke="#63b8ff" d="M47.25,-525.7C47.81,-487.32 55.12,-351.16 128.5,-281 131.95,-277.7 135.9,-274.97 140.15,-272.69"/>
<polygon fill="#63b8ff" stroke="#63b8ff" points="141.31,-276.01 149.07,-268.8 138.51,-269.59 141.31,-276.01"/>
</a>
</g>
</g>
<!-- Node22 -->
<g id="Node000022" class="node">
<title>Node22</title>
<g id="a_Node000022"><a xlink:href="group__bmp390__base__driver.html#ga97ecee092d58593881186562f8d12474" target="_top" xlink:title="set the output data rate">
<polygon fill="white" stroke="#666666" points="243.88,-234 155.88,-234 155.88,-214 243.88,-214 243.88,-234"/>
<text xml:space="preserve" text-anchor="middle" x="199.88" y="-220.5" font-family="Helvetica,sans-Serif" font-size="10.00">bmp390_set_odr</text>
</a>
</g>
</g>
<!-- Node1&#45;&gt;Node22 -->
<g id="edge22_Node000001_Node000022" class="edge">
<title>Node1&#45;&gt;Node22</title>
<g id="a_edge22_Node000001_Node000022"><a xlink:title=" ">
<path fill="none" stroke="#63b8ff" d="M46.75,-525.68C45.32,-483.84 45.73,-325.21 128.5,-243 133.22,-238.32 138.96,-234.75 145.11,-232.05"/>
<polygon fill="#63b8ff" stroke="#63b8ff" points="146.07,-235.43 154.31,-228.77 143.72,-228.83 146.07,-235.43"/>
</a>
</g>
</g>
<!-- Node23 -->
<g id="Node000023" class="node">
<title>Node23</title>
<g id="a_Node000023"><a xlink:href="group__bmp390__base__driver.html#ga184807c2dd608782731cf8343ce54779" target="_top" xlink:title="enable or disable the pressure">
<polygon fill="white" stroke="#666666" points="255.88,-196 143.88,-196 143.88,-176 255.88,-176 255.88,-196"/>
<text xml:space="preserve" text-anchor="middle" x="199.88" y="-182.5" font-family="Helvetica,sans-Serif" font-size="10.00">bmp390_set_pressure</text>
</a>
</g>
</g>
<!-- Node1&#45;&gt;Node23 -->
<g id="edge23_Node000001_Node000023" class="edge">
<title>Node1&#45;&gt;Node23</title>
<g id="a_edge23_Node000001_Node000023"><a xlink:title=" ">
<path fill="none" stroke="#63b8ff" d="M48.37,-525.74C54.1,-475.16 81.66,-252.93 128.5,-205 130.09,-203.37 131.81,-201.88 133.62,-200.51"/>
<polygon fill="#63b8ff" stroke="#63b8ff" points="135.33,-203.57 142.11,-195.42 131.73,-197.56 135.33,-203.57"/>
</a>
</g>
</g>
<!-- Node24 -->
<g id="Node000024" class="node">
<title>Node24</title>
<g id="a_Node000024"><a xlink:href="group__bmp390__base__driver.html#gac812728fefd570a9bbcb2a5a26159b68" target="_top" xlink:title="set the pressure oversampling">
<polygon fill="white" stroke="#666666" points="255.88,-158 143.88,-158 143.88,-126 255.88,-126 255.88,-158"/>
<text xml:space="preserve" text-anchor="start" x="151.88" y="-144.5" font-family="Helvetica,sans-Serif" font-size="10.00">bmp390_set_pressure</text>
<text xml:space="preserve" text-anchor="middle" x="199.88" y="-132.5" font-family="Helvetica,sans-Serif" font-size="10.00">_oversampling</text>
</a>
</g>
</g>
<!-- Node1&#45;&gt;Node24 -->
<g id="edge24_Node000001_Node000024" class="edge">
<title>Node1&#45;&gt;Node24</title>
<g id="a_edge24_Node000001_Node000024"><a xlink:title=" ">
<path fill="none" stroke="#63b8ff" d="M48.18,-525.73C53.23,-471.96 79.02,-223.07 128.5,-167 130.21,-165.06 132.08,-163.28 134.07,-161.63"/>
<polygon fill="#63b8ff" stroke="#63b8ff" points="135.92,-164.61 142.24,-156.11 132,-158.81 135.92,-164.61"/>
</a>
</g>
</g>
<!-- Node25 -->
<g id="Node000025" class="node">
<title>Node25</title>
<g id="a_Node000025"><a xlink:href="group__bmp390__base__driver.html#gaf377979cf7a7dc4c5fb77df363cce0e5" target="_top" xlink:title="set the spi wire">
<polygon fill="white" stroke="#666666" points="255.12,-108 144.62,-108 144.62,-88 255.12,-88 255.12,-108"/>
<text xml:space="preserve" text-anchor="middle" x="199.88" y="-94.5" font-family="Helvetica,sans-Serif" font-size="10.00">bmp390_set_spi_wire</text>
</a>
</g>
</g>
<!-- Node1&#45;&gt;Node25 -->
<g id="edge25_Node000001_Node000025" class="edge">
<title>Node1&#45;&gt;Node25</title>
<g id="a_edge25_Node000001_Node000025"><a xlink:title=" ">
<path fill="none" stroke="#63b8ff" d="M47.8,-525.84C51.13,-467.89 70.46,-179.39 128.5,-117 130.29,-115.08 132.24,-113.35 134.33,-111.78"/>
<polygon fill="#63b8ff" stroke="#63b8ff" points="136.09,-114.81 142.92,-106.72 132.53,-108.78 136.09,-114.81"/>
</a>
</g>
</g>
<!-- Node26 -->
<g id="Node000026" class="node">
<title>Node26</title>
<g id="a_Node000026"><a xlink:href="group__bmp390__base__driver.html#ga3efa2db8b63a899e46a338650b05e079" target="_top" xlink:title="enable or disable the temperature">
<polygon fill="white" stroke="#666666" points="263,-70 136.75,-70 136.75,-50 263,-50 263,-70"/>
<text xml:space="preserve" text-anchor="middle" x="199.88" y="-56.5" font-family="Helvetica,sans-Serif" font-size="10.00">bmp390_set_temperature</text>
</a>
</g>
</g>
<!-- Node1&#45;&gt;Node26 -->
<g id="edge26_Node000001_Node000026" class="edge">
<title>Node1&#45;&gt;Node26</title>
<g id="a_edge26_Node000001_Node000026"><a xlink:title=" ">
<path fill="none" stroke="#63b8ff" d="M47.62,-525.74C50.07,-464.51 65.64,-147.64 128.5,-79 129.09,-78.35 129.71,-77.73 130.34,-77.12"/>
<polygon fill="#63b8ff" stroke="#63b8ff" points="132.29,-80.03 138.22,-71.25 128.11,-74.42 132.29,-80.03"/>
</a>
</g>
</g>
<!-- Node27 -->
<g id="Node000027" class="node">
<title>Node27</title>
<g id="a_Node000027"><a xlink:href="group__bmp390__base__driver.html#ga015c3f9054cf122df6fbba14e43c7e45" target="_top" xlink:title="set the temperature oversampling">
<polygon fill="white" stroke="#666666" points="263,-32 136.75,-32 136.75,0 263,0 263,-32"/>
<text xml:space="preserve" text-anchor="start" x="144.75" y="-18.5" font-family="Helvetica,sans-Serif" font-size="10.00">bmp390_set_temperature</text>
<text xml:space="preserve" text-anchor="middle" x="199.88" y="-6.5" font-family="Helvetica,sans-Serif" font-size="10.00">_oversampling</text>
</a>
</g>
</g>
<!-- Node1&#45;&gt;Node27 -->
<g id="edge27_Node000001_Node000027" class="edge">
<title>Node1&#45;&gt;Node27</title>
<g id="a_edge27_Node000001_Node000027"><a xlink:title=" ">
<path fill="none" stroke="#63b8ff" d="M47.55,-525.81C49.62,-462.07 63.72,-118.52 128.5,-41 128.84,-40.59 129.19,-40.19 129.55,-39.79"/>
<polygon fill="#63b8ff" stroke="#63b8ff" points="131.63,-42.62 136.82,-33.39 127,-37.37 131.63,-42.62"/>
</a>
</g>
</g>
<!-- Node10&#45;&gt;Node4 -->
<g id="edge10_Node000010_Node000004" class="edge">
<title>Node10&#45;&gt;Node4</title>
<g id="a_edge10_Node000010_Node000004"><a xlink:title=" ">
<path fill="none" stroke="#63b8ff" d="M255.54,-750.44C261.03,-752.96 266.37,-755.8 271.25,-759 303.62,-780.2 332.79,-814.33 350.59,-837.67"/>
<polygon fill="#63b8ff" stroke="#63b8ff" points="347.59,-839.5 356.37,-845.42 353.2,-835.31 347.59,-839.5"/>
</a>
</g>
</g>
</g>
</svg>
