<?xml version="1.0" encoding="UTF-8" standalone="no"?>
<!DOCTYPE svg PUBLIC "-//W3C//DTD SVG 1.1//EN"
 "http://www.w3.org/Graphics/SVG/1.1/DTD/svg11.dtd">
<!-- Generated by graphviz version 13.1.0 (20250701.0955)
 -->
<!-- Title: bmp390 driver function Pages: 1 -->
<svg width="277pt" height="390pt"
 viewBox="0.00 0.00 277.00 390.00" xmlns="http://www.w3.org/2000/svg" xmlns:xlink="http://www.w3.org/1999/xlink">
<g id="graph0" class="graph" transform="scale(1 1) rotate(0) translate(4 386)">
<title>bmp390 driver function</title>
<!-- Node3 -->
<g id="Node000003" class="node">
<title>Node3</title>
<g id="a_Node000003"><a xlink:href="group__bmp390__base__driver.html" target="_top" xlink:title="bmp390 base driver modules">
<polygon fill="white" stroke="#666666" points="260.75,-382 159.25,-382 159.25,-350 260.75,-350 260.75,-382"/>
<text xml:space="preserve" text-anchor="start" x="167.25" y="-368.5" font-family="Helvetica,sans-Serif" font-size="10.00">bmp390 base driver</text>
<text xml:space="preserve" text-anchor="middle" x="210" y="-356.5" font-family="Helvetica,sans-Serif" font-size="10.00"> function</text>
</a>
</g>
</g>
<!-- Node1 -->
<g id="Node000001" class="node">
<title>Node1</title>
<g id="a_Node000001"><a xlink:title="bmp390 driver modules">
<polygon fill="#999999" stroke="#666666" points="115,-201 0,-201 0,-181 115,-181 115,-201"/>
<text xml:space="preserve" text-anchor="middle" x="57.5" y="-187.5" font-family="Helvetica,sans-Serif" font-size="10.00">bmp390 driver function</text>
</a>
</g>
</g>
<!-- Node1&#45;&gt;Node3 -->
<g id="edge2" class="edge">
<title>Node1&#45;&gt;Node3</title>
<path fill="none" stroke="black" d="M66.51,-211.88C79.68,-243.7 108.71,-304.46 151,-341 154.73,-344.23 158.95,-347.09 163.36,-349.62"/>
<polygon fill="black" stroke="black" points="69.77,-210.61 62.81,-202.62 63.27,-213.21 69.77,-210.61"/>
</g>
<!-- Node8 -->
<g id="Node000008" class="node">
<title>Node8</title>
<g id="a_Node000008"><a xlink:href="group__bmp390__example__driver.html" target="_top" xlink:title="bmp390 example driver modules">
<polygon fill="white" stroke="#666666" points="268.62,-332 151.38,-332 151.38,-300 268.62,-300 268.62,-332"/>
<text xml:space="preserve" text-anchor="start" x="159.38" y="-318.5" font-family="Helvetica,sans-Serif" font-size="10.00">bmp390 example driver</text>
<text xml:space="preserve" text-anchor="middle" x="210" y="-306.5" font-family="Helvetica,sans-Serif" font-size="10.00"> function</text>
</a>
</g>
</g>
<!-- Node1&#45;&gt;Node8 -->
<g id="edge7" class="edge">
<title>Node1&#45;&gt;Node8</title>
<path fill="none" stroke="black" d="M72.47,-210.44C89.09,-232.43 118.69,-268.14 151,-291 155.48,-294.17 160.42,-297.05 165.47,-299.64"/>
<polygon fill="black" stroke="black" points="75.44,-208.57 66.68,-202.62 69.81,-212.74 75.44,-208.57"/>
</g>
<!-- Node6 -->
<g id="Node000006" class="node">
<title>Node6</title>
<g id="a_Node000006"><a xlink:href="group__bmp390__extern__driver.html" target="_top" xlink:title="bmp390 extern driver modules">
<polygon fill="white" stroke="#666666" points="263.75,-282 156.25,-282 156.25,-250 263.75,-250 263.75,-282"/>
<text xml:space="preserve" text-anchor="start" x="164.25" y="-268.5" font-family="Helvetica,sans-Serif" font-size="10.00">bmp390 extern driver</text>
<text xml:space="preserve" text-anchor="middle" x="210" y="-256.5" font-family="Helvetica,sans-Serif" font-size="10.00"> function</text>
</a>
</g>
</g>
<!-- Node1&#45;&gt;Node6 -->
<g id="edge5" class="edge">
<title>Node1&#45;&gt;Node6</title>
<path fill="none" stroke="black" d="M86.6,-207.03C104.77,-217.18 129.03,-230.35 151,-241 156.92,-243.87 163.25,-246.77 169.48,-249.52"/>
<polygon fill="black" stroke="black" points="88.43,-204.04 78,-202.19 85,-210.14 88.43,-204.04"/>
</g>
<!-- Node5 -->
<g id="Node000005" class="node">
<title>Node5</title>
<g id="a_Node000005"><a xlink:href="group__bmp390__fifo__driver.html" target="_top" xlink:title="bmp390 fifo driver modules">
<polygon fill="white" stroke="#666666" points="257,-232 163,-232 163,-200 257,-200 257,-232"/>
<text xml:space="preserve" text-anchor="start" x="171" y="-218.5" font-family="Helvetica,sans-Serif" font-size="10.00">bmp390 fifo driver</text>
<text xml:space="preserve" text-anchor="middle" x="210" y="-206.5" font-family="Helvetica,sans-Serif" font-size="10.00"> function</text>
</a>
</g>
</g>
<!-- Node1&#45;&gt;Node5 -->
<g id="edge4" class="edge">
<title>Node1&#45;&gt;Node5</title>
<path fill="none" stroke="black" d="M126.55,-202.3C138.81,-204.34 151.33,-206.42 162.79,-208.32"/>
<polygon fill="black" stroke="black" points="127.33,-198.89 116.89,-200.7 126.18,-205.79 127.33,-198.89"/>
</g>
<!-- Node7 -->
<g id="Node000007" class="node">
<title>Node7</title>
<g id="a_Node000007"><a xlink:href="group__bmp390__interface__driver.html" target="_top" xlink:title="bmp390 interface driver modules">
<polygon fill="white" stroke="#666666" points="269,-182 151,-182 151,-150 269,-150 269,-182"/>
<text xml:space="preserve" text-anchor="start" x="159" y="-168.5" font-family="Helvetica,sans-Serif" font-size="10.00">bmp390 interface driver</text>
<text xml:space="preserve" text-anchor="middle" x="210" y="-156.5" font-family="Helvetica,sans-Serif" font-size="10.00"> function</text>
</a>
</g>
</g>
<!-- Node1&#45;&gt;Node7 -->
<g id="edge6" class="edge">
<title>Node1&#45;&gt;Node7</title>
<path fill="none" stroke="black" d="M126.58,-179.69C134.58,-178.36 142.68,-177.02 150.52,-175.71"/>
<polygon fill="black" stroke="black" points="126.18,-176.21 116.89,-181.3 127.33,-183.11 126.18,-176.21"/>
</g>
<!-- Node4 -->
<g id="Node000004" class="node">
<title>Node4</title>
<g id="a_Node000004"><a xlink:href="group__bmp390__interrupt__driver.html" target="_top" xlink:title="bmp390 interrupt driver modules">
<polygon fill="white" stroke="#666666" points="267.88,-132 152.12,-132 152.12,-100 267.88,-100 267.88,-132"/>
<text xml:space="preserve" text-anchor="start" x="160.12" y="-118.5" font-family="Helvetica,sans-Serif" font-size="10.00">bmp390 interrupt driver</text>
<text xml:space="preserve" text-anchor="middle" x="210" y="-106.5" font-family="Helvetica,sans-Serif" font-size="10.00"> function</text>
</a>
</g>
</g>
<!-- Node1&#45;&gt;Node4 -->
<g id="edge3" class="edge">
<title>Node1&#45;&gt;Node4</title>
<path fill="none" stroke="black" d="M86.6,-174.97C104.77,-164.82 129.03,-151.65 151,-141 156.92,-138.13 163.25,-135.23 169.48,-132.48"/>
<polygon fill="black" stroke="black" points="85,-171.86 78,-179.81 88.43,-177.96 85,-171.86"/>
</g>
<!-- Node2 -->
<g id="Node000002" class="node">
<title>Node2</title>
<g id="a_Node000002"><a xlink:href="group__bmp390__link__driver.html" target="_top" xlink:title="bmp390 link driver modules">
<polygon fill="white" stroke="#666666" points="257.75,-82 162.25,-82 162.25,-50 257.75,-50 257.75,-82"/>
<text xml:space="preserve" text-anchor="start" x="170.25" y="-68.5" font-family="Helvetica,sans-Serif" font-size="10.00">bmp390 link driver</text>
<text xml:space="preserve" text-anchor="middle" x="210" y="-56.5" font-family="Helvetica,sans-Serif" font-size="10.00"> function</text>
</a>
</g>
</g>
<!-- Node1&#45;&gt;Node2 -->
<g id="edge1" class="edge">
<title>Node1&#45;&gt;Node2</title>
<path fill="none" stroke="black" d="M72.47,-171.56C89.09,-149.57 118.69,-113.86 151,-91 155.48,-87.83 160.42,-84.95 165.47,-82.36"/>
<polygon fill="black" stroke="black" points="69.81,-169.26 66.68,-179.38 75.44,-173.43 69.81,-169.26"/>
</g>
<!-- Node9 -->
<g id="Node000009" class="node">
<title>Node9</title>
<g id="a_Node000009"><a xlink:href="group__bmp390__test__driver.html" target="_top" xlink:title="bmp390 test driver modules">
<polygon fill="white" stroke="#666666" points="258.5,-32 161.5,-32 161.5,0 258.5,0 258.5,-32"/>
<text xml:space="preserve" text-anchor="start" x="169.5" y="-18.5" font-family="Helvetica,sans-Serif" font-size="10.00">bmp390 test driver</text>
<text xml:space="preserve" text-anchor="middle" x="210" y="-6.5" font-family="Helvetica,sans-Serif" font-size="10.00"> function</text>
</a>
</g>
</g>
<!-- Node1&#45;&gt;Node9 -->
<g id="edge8" class="edge">
<title>Node1&#45;&gt;Node9</title>
<path fill="none" stroke="black" d="M66.51,-170.12C79.68,-138.3 108.71,-77.54 151,-41 154.73,-37.77 158.95,-34.91 163.36,-32.38"/>
<polygon fill="black" stroke="black" points="63.27,-168.79 62.81,-179.38 69.77,-171.39 63.27,-168.79"/>
</g>
</g>
</svg>
