<?xml version="1.0" encoding="UTF-8" standalone="no"?>
<!DOCTYPE svg PUBLIC "-//W3C//DTD SVG 1.1//EN"
 "http://www.w3.org/Graphics/SVG/1.1/DTD/svg11.dtd">
<!-- Generated by graphviz version 13.1.0 (20250701.0955)
 -->
<!-- Title: bmp390_fifo_deinit Pages: 1 -->
<svg width="240pt" height="66pt"
 viewBox="0.00 0.00 240.00 66.00" xmlns="http://www.w3.org/2000/svg" xmlns:xlink="http://www.w3.org/1999/xlink">
<g id="graph0" class="graph" transform="scale(1 1) rotate(0) translate(4 62)">
<title>bmp390_fifo_deinit</title>
<!-- Node1 -->
<g id="Node000001" class="node">
<title>Node1</title>
<g id="a_Node000001"><a xlink:title="fifo example deinit">
<polygon fill="#999999" stroke="#666666" points="97.75,-39 0,-39 0,-19 97.75,-19 97.75,-39"/>
<text xml:space="preserve" text-anchor="middle" x="48.88" y="-25.5" font-family="Helvetica,sans-Serif" font-size="10.00">bmp390_fifo_deinit</text>
</a>
</g>
</g>
<!-- Node2 -->
<g id="Node000002" class="node">
<title>Node2</title>
<g id="a_Node000002"><a xlink:href="group__bmp390__base__driver.html#gad0163bb34f04eb7d0888ebfa18534760" target="_top" xlink:title="close the chip">
<polygon fill="white" stroke="#666666" points="222.5,-58 143.5,-58 143.5,-38 222.5,-38 222.5,-58"/>
<text xml:space="preserve" text-anchor="middle" x="183" y="-44.5" font-family="Helvetica,sans-Serif" font-size="10.00">bmp390_deinit</text>
</a>
</g>
</g>
<!-- Node1&#45;&gt;Node2 -->
<g id="edge1_Node000001_Node000002" class="edge">
<title>Node1&#45;&gt;Node2</title>
<g id="a_edge1_Node000001_Node000002"><a xlink:title=" ">
<path fill="none" stroke="#63b8ff" d="M97.95,-35.91C109.01,-37.5 120.8,-39.2 131.94,-40.8"/>
<polygon fill="#63b8ff" stroke="#63b8ff" points="131.37,-44.26 141.77,-42.21 132.37,-37.33 131.37,-44.26"/>
</a>
</g>
</g>
<!-- Node3 -->
<g id="Node000003" class="node">
<title>Node3</title>
<g id="a_Node000003"><a xlink:href="group__bmp390__base__driver.html#ga1ace669e619709db2b79762373789852" target="_top" xlink:title="set the chip mode">
<polygon fill="white" stroke="#666666" points="232.25,-20 133.75,-20 133.75,0 232.25,0 232.25,-20"/>
<text xml:space="preserve" text-anchor="middle" x="183" y="-6.5" font-family="Helvetica,sans-Serif" font-size="10.00">bmp390_set_mode</text>
</a>
</g>
</g>
<!-- Node1&#45;&gt;Node3 -->
<g id="edge2_Node000001_Node000003" class="edge">
<title>Node1&#45;&gt;Node3</title>
<g id="a_edge2_Node000001_Node000003"><a xlink:title=" ">
<path fill="none" stroke="#63b8ff" d="M97.95,-22.09C105.77,-20.96 113.96,-19.78 122.03,-18.62"/>
<polygon fill="#63b8ff" stroke="#63b8ff" points="122.4,-22.11 131.8,-17.22 121.4,-15.18 122.4,-22.11"/>
</a>
</g>
</g>
</g>
</svg>
