<?xml version="1.0" encoding="UTF-8" standalone="no"?>
<!DOCTYPE svg PUBLIC "-//W3C//DTD SVG 1.1//EN"
 "http://www.w3.org/Graphics/SVG/1.1/DTD/svg11.dtd">
<!-- Generated by graphviz version 13.1.0 (20250701.0955)
 -->
<!-- Title: bmp390_basic_init Pages: 1 -->
<svg width="445pt" height="1236pt"
 viewBox="0.00 0.00 445.00 1236.00" xmlns="http://www.w3.org/2000/svg" xmlns:xlink="http://www.w3.org/1999/xlink">
<g id="graph0" class="graph" transform="scale(1 1) rotate(0) translate(4 1232)">
<title>bmp390_basic_init</title>
<!-- Node1 -->
<g id="Node000001" class="node">
<title>Node1</title>
<g id="a_Node000001"><a xlink:title="basic example init">
<polygon fill="#999999" stroke="#666666" points="97,-636 0,-636 0,-616 97,-616 97,-636"/>
<text xml:space="preserve" text-anchor="middle" x="48.5" y="-622.5" font-family="Helvetica,sans-Serif" font-size="10.00">bmp390_basic_init</text>
</a>
</g>
</g>
<!-- Node2 -->
<g id="Node000002" class="node">
<title>Node2</title>
<g id="a_Node000002"><a xlink:href="group__bmp390__base__driver.html#gad0163bb34f04eb7d0888ebfa18534760" target="_top" xlink:title="close the chip">
<polygon fill="white" stroke="#666666" points="243.88,-1228 164.88,-1228 164.88,-1208 243.88,-1208 243.88,-1228"/>
<text xml:space="preserve" text-anchor="middle" x="204.38" y="-1214.5" font-family="Helvetica,sans-Serif" font-size="10.00">bmp390_deinit</text>
</a>
</g>
</g>
<!-- Node1&#45;&gt;Node2 -->
<g id="edge1_Node000001_Node000002" class="edge">
<title>Node1&#45;&gt;Node2</title>
<g id="a_edge1_Node000001_Node000002"><a xlink:title=" ">
<path fill="none" stroke="#63b8ff" d="M49.52,-636.47C49.84,-706.87 55.09,-1111.22 133,-1199 138.54,-1205.25 145.91,-1209.54 153.78,-1212.46"/>
<polygon fill="#63b8ff" stroke="#63b8ff" points="152.68,-1215.79 163.27,-1215.23 154.65,-1209.07 152.68,-1215.79"/>
</a>
</g>
</g>
<!-- Node3 -->
<g id="Node000003" class="node">
<title>Node3</title>
<g id="a_Node000003"><a xlink:href="group__bmp390__base__driver.html#ga9b7e1b2a9ba82b52b325d528fddc9947" target="_top" xlink:title="initialize the chip">
<polygon fill="white" stroke="#666666" points="238.62,-1190 170.12,-1190 170.12,-1170 238.62,-1170 238.62,-1190"/>
<text xml:space="preserve" text-anchor="middle" x="204.38" y="-1176.5" font-family="Helvetica,sans-Serif" font-size="10.00">bmp390_init</text>
</a>
</g>
</g>
<!-- Node1&#45;&gt;Node3 -->
<g id="edge2_Node000001_Node000003" class="edge">
<title>Node1&#45;&gt;Node3</title>
<g id="a_edge2_Node000001_Node000003"><a xlink:title=" ">
<path fill="none" stroke="#63b8ff" d="M49.72,-636.48C51.33,-703.62 63.31,-1073.12 133,-1156 139.64,-1163.9 148.99,-1169.2 158.72,-1172.76"/>
<polygon fill="#63b8ff" stroke="#63b8ff" points="157.7,-1176.11 168.28,-1175.65 159.72,-1169.41 157.7,-1176.11"/>
</a>
</g>
</g>
<!-- Node4 -->
<g id="Node000004" class="node">
<title>Node4</title>
<g id="a_Node000004"><a xlink:href="group__bmp390__interface__driver.html#ga285886b933f3a6b3f4304911dadfe442" target="_top" xlink:title="interface print format data">
<polygon fill="white" stroke="#666666" points="436.5,-1029 311.75,-1029 311.75,-997 436.5,-997 436.5,-1029"/>
<text xml:space="preserve" text-anchor="start" x="319.75" y="-1015.5" font-family="Helvetica,sans-Serif" font-size="10.00">bmp390_interface_debug</text>
<text xml:space="preserve" text-anchor="middle" x="374.12" y="-1003.5" font-family="Helvetica,sans-Serif" font-size="10.00">_print</text>
</a>
</g>
</g>
<!-- Node1&#45;&gt;Node4 -->
<g id="edge3_Node000001_Node000004" class="edge">
<title>Node1&#45;&gt;Node4</title>
<g id="a_edge3_Node000001_Node000004"><a xlink:title=" ">
<path fill="none" stroke="#63b8ff" d="M49.52,-636.13C49.87,-701 55.35,-1057.31 133,-1123 181.44,-1163.98 217.9,-1149.05 275.75,-1123 313.73,-1105.9 342.88,-1065.85 359.01,-1039.09"/>
<polygon fill="#63b8ff" stroke="#63b8ff" points="361.99,-1040.93 363.98,-1030.53 355.93,-1037.42 361.99,-1040.93"/>
</a>
</g>
</g>
<!-- Node5 -->
<g id="Node000005" class="node">
<title>Node5</title>
<g id="a_Node000005"><a xlink:href="group__bmp390__interface__driver.html#gad15acd2ae92f6b2a13e62c2ead8371b6" target="_top" xlink:title="interface delay ms">
<polygon fill="white" stroke="#666666" points="274.62,-1114 134.12,-1114 134.12,-1094 274.62,-1094 274.62,-1114"/>
<text xml:space="preserve" text-anchor="middle" x="204.38" y="-1100.5" font-family="Helvetica,sans-Serif" font-size="10.00">bmp390_interface_delay_ms</text>
</a>
</g>
</g>
<!-- Node1&#45;&gt;Node5 -->
<g id="edge4_Node000001_Node000005" class="edge">
<title>Node1&#45;&gt;Node5</title>
<g id="a_edge4_Node000001_Node000005"><a xlink:title=" ">
<path fill="none" stroke="#63b8ff" d="M49.92,-636.31C52.64,-697.82 69.68,-1016.14 133,-1085 133.59,-1085.65 134.21,-1086.27 134.84,-1086.88"/>
<polygon fill="#63b8ff" stroke="#63b8ff" points="132.62,-1089.58 142.73,-1092.74 136.79,-1083.97 132.62,-1089.58"/>
</a>
</g>
</g>
<!-- Node6 -->
<g id="Node000006" class="node">
<title>Node6</title>
<g id="a_Node000006"><a xlink:href="group__bmp390__interface__driver.html#ga321e928dd7c8f38e93c56af970ff0564" target="_top" xlink:title="interface iic bus deinit">
<polygon fill="white" stroke="#666666" points="258.5,-1076 150.25,-1076 150.25,-1044 258.5,-1044 258.5,-1076"/>
<text xml:space="preserve" text-anchor="start" x="158.25" y="-1062.5" font-family="Helvetica,sans-Serif" font-size="10.00">bmp390_interface_iic</text>
<text xml:space="preserve" text-anchor="middle" x="204.38" y="-1050.5" font-family="Helvetica,sans-Serif" font-size="10.00">_deinit</text>
</a>
</g>
</g>
<!-- Node1&#45;&gt;Node6 -->
<g id="edge5_Node000001_Node000006" class="edge">
<title>Node1&#45;&gt;Node6</title>
<g id="a_edge5_Node000001_Node000006"><a xlink:title=" ">
<path fill="none" stroke="#63b8ff" d="M50.25,-636.22C54.6,-693.3 78.45,-972.23 133,-1035 135.19,-1037.52 137.66,-1039.79 140.32,-1041.83"/>
<polygon fill="#63b8ff" stroke="#63b8ff" points="138.39,-1044.75 148.72,-1047.12 142.12,-1038.83 138.39,-1044.75"/>
</a>
</g>
</g>
<!-- Node7 -->
<g id="Node000007" class="node">
<title>Node7</title>
<g id="a_Node000007"><a xlink:href="group__bmp390__interface__driver.html#ga5585f9fc8896d42b83a409fd8a5b753f" target="_top" xlink:title="interface iic bus init">
<polygon fill="white" stroke="#666666" points="267.5,-1026 141.25,-1026 141.25,-1006 267.5,-1006 267.5,-1026"/>
<text xml:space="preserve" text-anchor="middle" x="204.38" y="-1012.5" font-family="Helvetica,sans-Serif" font-size="10.00">bmp390_interface_iic_init</text>
</a>
</g>
</g>
<!-- Node1&#45;&gt;Node7 -->
<g id="edge6_Node000001_Node000007" class="edge">
<title>Node1&#45;&gt;Node7</title>
<g id="a_edge6_Node000001_Node000007"><a xlink:title=" ">
<path fill="none" stroke="#63b8ff" d="M50.41,-636.39C55.37,-690.83 80.92,-942.67 133,-997 133.73,-997.76 134.48,-998.49 135.26,-999.19"/>
<polygon fill="#63b8ff" stroke="#63b8ff" points="133.01,-1001.89 143.2,-1004.81 137.06,-996.17 133.01,-1001.89"/>
</a>
</g>
</g>
<!-- Node8 -->
<g id="Node000008" class="node">
<title>Node8</title>
<g id="a_Node000008"><a xlink:href="group__bmp390__interface__driver.html#gaa1703bed8be2eb5032054b958248518c" target="_top" xlink:title="interface iic bus read">
<polygon fill="white" stroke="#666666" points="270.5,-988 138.25,-988 138.25,-968 270.5,-968 270.5,-988"/>
<text xml:space="preserve" text-anchor="middle" x="204.38" y="-974.5" font-family="Helvetica,sans-Serif" font-size="10.00">bmp390_interface_iic_read</text>
</a>
</g>
</g>
<!-- Node1&#45;&gt;Node8 -->
<g id="edge7_Node000001_Node000008" class="edge">
<title>Node1&#45;&gt;Node8</title>
<g id="a_edge7_Node000001_Node000008"><a xlink:title=" ">
<path fill="none" stroke="#63b8ff" d="M50.69,-636.33C56.73,-687.23 85.7,-910.84 133,-959 133.74,-959.75 134.5,-960.47 135.29,-961.17"/>
<polygon fill="#63b8ff" stroke="#63b8ff" points="133.07,-963.89 143.28,-966.73 137.07,-958.14 133.07,-963.89"/>
</a>
</g>
</g>
<!-- Node9 -->
<g id="Node000009" class="node">
<title>Node9</title>
<g id="a_Node000009"><a xlink:href="group__bmp390__interface__driver.html#gaa7a157a5d166f890e312e0bcea96e8ef" target="_top" xlink:title="interface iic bus write">
<polygon fill="white" stroke="#666666" points="258.5,-950 150.25,-950 150.25,-918 258.5,-918 258.5,-950"/>
<text xml:space="preserve" text-anchor="start" x="158.25" y="-936.5" font-family="Helvetica,sans-Serif" font-size="10.00">bmp390_interface_iic</text>
<text xml:space="preserve" text-anchor="middle" x="204.38" y="-924.5" font-family="Helvetica,sans-Serif" font-size="10.00">_write</text>
</a>
</g>
</g>
<!-- Node1&#45;&gt;Node9 -->
<g id="edge8_Node000001_Node000009" class="edge">
<title>Node1&#45;&gt;Node9</title>
<g id="a_edge8_Node000001_Node000009"><a xlink:title=" ">
<path fill="none" stroke="#63b8ff" d="M49.39,-636.36C49.54,-676.98 55.51,-827.17 133,-909 135.26,-911.38 137.76,-913.54 140.43,-915.49"/>
<polygon fill="#63b8ff" stroke="#63b8ff" points="138.41,-918.36 148.77,-920.58 142.05,-912.38 138.41,-918.36"/>
</a>
</g>
</g>
<!-- Node10 -->
<g id="Node000010" class="node">
<title>Node10</title>
<g id="a_Node000010"><a xlink:href="group__bmp390__interface__driver.html#gabfa274767f2bce14a65e8fd127b877bd" target="_top" xlink:title="interface receive callback">
<polygon fill="white" stroke="#666666" points="269.38,-900 139.38,-900 139.38,-868 269.38,-868 269.38,-900"/>
<text xml:space="preserve" text-anchor="start" x="147.38" y="-886.5" font-family="Helvetica,sans-Serif" font-size="10.00">bmp390_interface_receive</text>
<text xml:space="preserve" text-anchor="middle" x="204.38" y="-874.5" font-family="Helvetica,sans-Serif" font-size="10.00">_callback</text>
</a>
</g>
</g>
<!-- Node1&#45;&gt;Node10 -->
<g id="edge9_Node000001_Node000010" class="edge">
<title>Node1&#45;&gt;Node10</title>
<g id="a_edge9_Node000001_Node000010"><a xlink:title=" ">
<path fill="none" stroke="#63b8ff" d="M50.17,-636.49C53.02,-672.64 67.28,-793.46 133,-859 133.62,-859.62 134.26,-860.22 134.91,-860.81"/>
<polygon fill="#63b8ff" stroke="#63b8ff" points="132.78,-863.59 142.89,-866.74 136.95,-857.97 132.78,-863.59"/>
</a>
</g>
</g>
<!-- Node11 -->
<g id="Node000011" class="node">
<title>Node11</title>
<g id="a_Node000011"><a xlink:href="group__bmp390__interface__driver.html#ga6a6048cfb7319a197d0837d7b60b6185" target="_top" xlink:title="interface spi bus deinit">
<polygon fill="white" stroke="#666666" points="260,-850 148.75,-850 148.75,-818 260,-818 260,-850"/>
<text xml:space="preserve" text-anchor="start" x="156.75" y="-836.5" font-family="Helvetica,sans-Serif" font-size="10.00">bmp390_interface_spi</text>
<text xml:space="preserve" text-anchor="middle" x="204.38" y="-824.5" font-family="Helvetica,sans-Serif" font-size="10.00">_deinit</text>
</a>
</g>
</g>
<!-- Node1&#45;&gt;Node11 -->
<g id="edge11_Node000001_Node000011" class="edge">
<title>Node1&#45;&gt;Node11</title>
<g id="a_edge11_Node000001_Node000011"><a xlink:title=" ">
<path fill="none" stroke="#63b8ff" d="M51.3,-636.36C57.18,-667.18 78.69,-759.2 133,-809 134.86,-810.71 136.85,-812.3 138.93,-813.79"/>
<polygon fill="#63b8ff" stroke="#63b8ff" points="136.92,-816.66 147.29,-818.85 140.55,-810.67 136.92,-816.66"/>
</a>
</g>
</g>
<!-- Node12 -->
<g id="Node000012" class="node">
<title>Node12</title>
<g id="a_Node000012"><a xlink:href="group__bmp390__interface__driver.html#ga053f014efb2d0c4c3cf328ff160cc12f" target="_top" xlink:title="interface spi bus init">
<polygon fill="white" stroke="#666666" points="269,-800 139.75,-800 139.75,-780 269,-780 269,-800"/>
<text xml:space="preserve" text-anchor="middle" x="204.38" y="-786.5" font-family="Helvetica,sans-Serif" font-size="10.00">bmp390_interface_spi_init</text>
</a>
</g>
</g>
<!-- Node1&#45;&gt;Node12 -->
<g id="edge12_Node000001_Node000012" class="edge">
<title>Node1&#45;&gt;Node12</title>
<g id="a_edge12_Node000001_Node000012"><a xlink:title=" ">
<path fill="none" stroke="#63b8ff" d="M52.38,-636.26C60.41,-662.85 85.58,-734.5 133,-771 134.55,-772.19 136.17,-773.31 137.85,-774.36"/>
<polygon fill="#63b8ff" stroke="#63b8ff" points="136.13,-777.41 146.61,-778.93 139.37,-771.21 136.13,-777.41"/>
</a>
</g>
</g>
<!-- Node13 -->
<g id="Node000013" class="node">
<title>Node13</title>
<g id="a_Node000013"><a xlink:href="group__bmp390__interface__driver.html#ga1c36285d8c3dd3ec7694057b3d3eaa3a" target="_top" xlink:title="interface spi bus read">
<polygon fill="white" stroke="#666666" points="272,-762 136.75,-762 136.75,-742 272,-742 272,-762"/>
<text xml:space="preserve" text-anchor="middle" x="204.38" y="-748.5" font-family="Helvetica,sans-Serif" font-size="10.00">bmp390_interface_spi_read</text>
</a>
</g>
</g>
<!-- Node1&#45;&gt;Node13 -->
<g id="edge13_Node000001_Node000013" class="edge">
<title>Node1&#45;&gt;Node13</title>
<g id="a_edge13_Node000001_Node000013"><a xlink:title=" ">
<path fill="none" stroke="#63b8ff" d="M54.6,-636.34C65.73,-657.81 94.32,-707.33 133,-733 135.1,-734.39 137.3,-735.68 139.57,-736.88"/>
<polygon fill="#63b8ff" stroke="#63b8ff" points="137.95,-739.99 148.5,-740.92 140.83,-733.61 137.95,-739.99"/>
</a>
</g>
</g>
<!-- Node14 -->
<g id="Node000014" class="node">
<title>Node14</title>
<g id="a_Node000014"><a xlink:href="group__bmp390__interface__driver.html#ga3e56f990b6b1e08614caf1e2324cc573" target="_top" xlink:title="interface spi bus write">
<polygon fill="white" stroke="#666666" points="260,-724 148.75,-724 148.75,-692 260,-692 260,-724"/>
<text xml:space="preserve" text-anchor="start" x="156.75" y="-710.5" font-family="Helvetica,sans-Serif" font-size="10.00">bmp390_interface_spi</text>
<text xml:space="preserve" text-anchor="middle" x="204.38" y="-698.5" font-family="Helvetica,sans-Serif" font-size="10.00">_write</text>
</a>
</g>
</g>
<!-- Node1&#45;&gt;Node14 -->
<g id="edge14_Node000001_Node000014" class="edge">
<title>Node1&#45;&gt;Node14</title>
<g id="a_edge14_Node000001_Node000014"><a xlink:title=" ">
<path fill="none" stroke="#63b8ff" d="M62.43,-636.4C78.31,-648.78 106.4,-669.48 133,-683 135.87,-684.46 138.85,-685.87 141.88,-687.23"/>
<polygon fill="#63b8ff" stroke="#63b8ff" points="140.39,-690.4 150.96,-691.06 143.11,-683.95 140.39,-690.4"/>
</a>
</g>
</g>
<!-- Node15 -->
<g id="Node000015" class="node">
<title>Node15</title>
<g id="a_Node000015"><a xlink:href="group__bmp390__base__driver.html#ga7e388d2661a18be5cfb9de05f6f2cf11" target="_top" xlink:title="set the iic address pin">
<polygon fill="white" stroke="#666666" points="260,-674 148.75,-674 148.75,-654 260,-654 260,-674"/>
<text xml:space="preserve" text-anchor="middle" x="204.38" y="-660.5" font-family="Helvetica,sans-Serif" font-size="10.00">bmp390_set_addr_pin</text>
</a>
</g>
</g>
<!-- Node1&#45;&gt;Node15 -->
<g id="edge15_Node000001_Node000015" class="edge">
<title>Node1&#45;&gt;Node15</title>
<g id="a_edge15_Node000001_Node000015"><a xlink:title=" ">
<path fill="none" stroke="#63b8ff" d="M91.95,-636.48C109.95,-640.93 131.12,-646.16 150.15,-650.85"/>
<polygon fill="#63b8ff" stroke="#63b8ff" points="149.04,-654.19 159.59,-653.19 150.72,-647.39 149.04,-654.19"/>
</a>
</g>
</g>
<!-- Node16 -->
<g id="Node000016" class="node">
<title>Node16</title>
<g id="a_Node000016"><a xlink:href="group__bmp390__fifo__driver.html#ga4109aebe94da750602f05273c0e4897f" target="_top" xlink:title="enable or disable the fifo">
<polygon fill="white" stroke="#666666" points="248.38,-636 160.38,-636 160.38,-616 248.38,-616 248.38,-636"/>
<text xml:space="preserve" text-anchor="middle" x="204.38" y="-622.5" font-family="Helvetica,sans-Serif" font-size="10.00">bmp390_set_fifo</text>
</a>
</g>
</g>
<!-- Node1&#45;&gt;Node16 -->
<g id="edge16_Node000001_Node000016" class="edge">
<title>Node1&#45;&gt;Node16</title>
<g id="a_edge16_Node000001_Node000016"><a xlink:title=" ">
<path fill="none" stroke="#63b8ff" d="M97.34,-626C113.62,-626 131.92,-626 148.69,-626"/>
<polygon fill="#63b8ff" stroke="#63b8ff" points="148.49,-629.5 158.49,-626 148.49,-622.5 148.49,-629.5"/>
</a>
</g>
</g>
<!-- Node17 -->
<g id="Node000017" class="node">
<title>Node17</title>
<g id="a_Node000017"><a xlink:href="group__bmp390__base__driver.html#gaf6022756e12b6e5329ef3a3220ab9f6e" target="_top" xlink:title="set the filter coefficient">
<polygon fill="white" stroke="#666666" points="275.75,-598 133,-598 133,-578 275.75,-578 275.75,-598"/>
<text xml:space="preserve" text-anchor="middle" x="204.38" y="-584.5" font-family="Helvetica,sans-Serif" font-size="10.00">bmp390_set_filter_coefficient</text>
</a>
</g>
</g>
<!-- Node1&#45;&gt;Node17 -->
<g id="edge17_Node000001_Node000017" class="edge">
<title>Node1&#45;&gt;Node17</title>
<g id="a_edge17_Node000001_Node000017"><a xlink:title=" ">
<path fill="none" stroke="#63b8ff" d="M91.95,-615.52C109.95,-611.07 131.12,-605.84 150.15,-601.15"/>
<polygon fill="#63b8ff" stroke="#63b8ff" points="150.72,-604.61 159.59,-598.81 149.04,-597.81 150.72,-604.61"/>
</a>
</g>
</g>
<!-- Node18 -->
<g id="Node000018" class="node">
<title>Node18</title>
<g id="a_Node000018"><a xlink:href="group__bmp390__base__driver.html#gac906ec85a28a8c3bea0b3c3425b6c27b" target="_top" xlink:title="set the iic watchdog period">
<polygon fill="white" stroke="#666666" points="270.12,-560 138.62,-560 138.62,-528 270.12,-528 270.12,-560"/>
<text xml:space="preserve" text-anchor="start" x="146.62" y="-546.5" font-family="Helvetica,sans-Serif" font-size="10.00">bmp390_set_iic_watchdog</text>
<text xml:space="preserve" text-anchor="middle" x="204.38" y="-534.5" font-family="Helvetica,sans-Serif" font-size="10.00">_period</text>
</a>
</g>
</g>
<!-- Node1&#45;&gt;Node18 -->
<g id="edge18_Node000001_Node000018" class="edge">
<title>Node1&#45;&gt;Node18</title>
<g id="a_edge18_Node000001_Node000018"><a xlink:title=" ">
<path fill="none" stroke="#63b8ff" d="M62.43,-615.6C78.31,-603.22 106.4,-582.52 133,-569 135.87,-567.54 138.85,-566.13 141.88,-564.77"/>
<polygon fill="#63b8ff" stroke="#63b8ff" points="143.11,-568.05 150.96,-560.94 140.39,-561.6 143.11,-568.05"/>
</a>
</g>
</g>
<!-- Node19 -->
<g id="Node000019" class="node">
<title>Node19</title>
<g id="a_Node000019"><a xlink:href="group__bmp390__base__driver.html#gaa29c6d4e04b619ff1ed8871285a8f0e1" target="_top" xlink:title="enable or disable the iic watchdog timer">
<polygon fill="white" stroke="#666666" points="270.12,-510 138.62,-510 138.62,-478 270.12,-478 270.12,-510"/>
<text xml:space="preserve" text-anchor="start" x="146.62" y="-496.5" font-family="Helvetica,sans-Serif" font-size="10.00">bmp390_set_iic_watchdog</text>
<text xml:space="preserve" text-anchor="middle" x="204.38" y="-484.5" font-family="Helvetica,sans-Serif" font-size="10.00">_timer</text>
</a>
</g>
</g>
<!-- Node1&#45;&gt;Node19 -->
<g id="edge19_Node000001_Node000019" class="edge">
<title>Node1&#45;&gt;Node19</title>
<g id="a_edge19_Node000001_Node000019"><a xlink:title=" ">
<path fill="none" stroke="#63b8ff" d="M54.94,-615.57C66.49,-594.38 95.54,-546.01 133,-519 134.55,-517.88 136.16,-516.8 137.82,-515.77"/>
<polygon fill="#63b8ff" stroke="#63b8ff" points="139.28,-518.96 146.36,-511.08 135.91,-512.83 139.28,-518.96"/>
</a>
</g>
</g>
<!-- Node20 -->
<g id="Node000020" class="node">
<title>Node20</title>
<g id="a_Node000020"><a xlink:href="group__bmp390__base__driver.html#gad988b048fd1f60fe4e1c4e17e6b15e7b" target="_top" xlink:title="set the interface">
<polygon fill="white" stroke="#666666" points="260.38,-460 148.38,-460 148.38,-440 260.38,-440 260.38,-460"/>
<text xml:space="preserve" text-anchor="middle" x="204.38" y="-446.5" font-family="Helvetica,sans-Serif" font-size="10.00">bmp390_set_interface</text>
</a>
</g>
</g>
<!-- Node1&#45;&gt;Node20 -->
<g id="edge20_Node000001_Node000020" class="edge">
<title>Node1&#45;&gt;Node20</title>
<g id="a_edge20_Node000001_Node000020"><a xlink:title=" ">
<path fill="none" stroke="#63b8ff" d="M51.91,-615.73C59.04,-587.65 82.78,-509.02 133,-469 134.71,-467.64 136.5,-466.38 138.37,-465.2"/>
<polygon fill="#63b8ff" stroke="#63b8ff" points="139.62,-468.5 146.85,-460.76 136.37,-462.3 139.62,-468.5"/>
</a>
</g>
</g>
<!-- Node21 -->
<g id="Node000021" class="node">
<title>Node21</title>
<g id="a_Node000021"><a xlink:href="group__bmp390__interrupt__driver.html#ga644c086923d977467c6664488624c005" target="_top" xlink:title="enable or disable the data ready interrupt">
<polygon fill="white" stroke="#666666" points="259.25,-422 149.5,-422 149.5,-390 259.25,-390 259.25,-422"/>
<text xml:space="preserve" text-anchor="start" x="157.5" y="-408.5" font-family="Helvetica,sans-Serif" font-size="10.00">bmp390_set_interrupt</text>
<text xml:space="preserve" text-anchor="middle" x="204.38" y="-396.5" font-family="Helvetica,sans-Serif" font-size="10.00">_data_ready</text>
</a>
</g>
</g>
<!-- Node1&#45;&gt;Node21 -->
<g id="edge21_Node000001_Node000021" class="edge">
<title>Node1&#45;&gt;Node21</title>
<g id="a_edge21_Node000001_Node000021"><a xlink:title=" ">
<path fill="none" stroke="#63b8ff" d="M50.94,-615.89C55.98,-584.03 75.81,-484.69 133,-431 134.99,-429.13 137.14,-427.4 139.39,-425.79"/>
<polygon fill="#63b8ff" stroke="#63b8ff" points="141.13,-428.83 147.89,-420.67 137.52,-422.83 141.13,-428.83"/>
</a>
</g>
</g>
<!-- Node22 -->
<g id="Node000022" class="node">
<title>Node22</title>
<g id="a_Node000022"><a xlink:href="group__bmp390__interrupt__driver.html#gaec34cec70f66276f57af24431e04bccf" target="_top" xlink:title="enable or disable the fifo full interrupt">
<polygon fill="white" stroke="#666666" points="259.25,-372 149.5,-372 149.5,-340 259.25,-340 259.25,-372"/>
<text xml:space="preserve" text-anchor="start" x="157.5" y="-358.5" font-family="Helvetica,sans-Serif" font-size="10.00">bmp390_set_interrupt</text>
<text xml:space="preserve" text-anchor="middle" x="204.38" y="-346.5" font-family="Helvetica,sans-Serif" font-size="10.00">_fifo_full</text>
</a>
</g>
</g>
<!-- Node1&#45;&gt;Node22 -->
<g id="edge22_Node000001_Node000022" class="edge">
<title>Node1&#45;&gt;Node22</title>
<g id="a_edge22_Node000001_Node000022"><a xlink:title=" ">
<path fill="none" stroke="#63b8ff" d="M49.95,-615.51C52.13,-578.18 64.49,-450.39 133,-381 135.03,-378.94 137.25,-377.05 139.59,-375.32"/>
<polygon fill="#63b8ff" stroke="#63b8ff" points="141.26,-378.4 147.92,-370.16 137.57,-372.45 141.26,-378.4"/>
</a>
</g>
</g>
<!-- Node23 -->
<g id="Node000023" class="node">
<title>Node23</title>
<g id="a_Node000023"><a xlink:href="group__bmp390__interrupt__driver.html#ga48f948d7d23debb0dbc5a874a14ac036" target="_top" xlink:title="enable or disable the fifo watermark interrupt">
<polygon fill="white" stroke="#666666" points="259.25,-322 149.5,-322 149.5,-290 259.25,-290 259.25,-322"/>
<text xml:space="preserve" text-anchor="start" x="157.5" y="-308.5" font-family="Helvetica,sans-Serif" font-size="10.00">bmp390_set_interrupt</text>
<text xml:space="preserve" text-anchor="middle" x="204.38" y="-296.5" font-family="Helvetica,sans-Serif" font-size="10.00">_fifo_watermark</text>
</a>
</g>
</g>
<!-- Node1&#45;&gt;Node23 -->
<g id="edge23_Node000001_Node000023" class="edge">
<title>Node1&#45;&gt;Node23</title>
<g id="a_edge23_Node000001_Node000023"><a xlink:title=" ">
<path fill="none" stroke="#63b8ff" d="M49.25,-615.78C48.78,-574.33 52.59,-416.86 133,-331 135.02,-328.85 137.23,-326.88 139.59,-325.08"/>
<polygon fill="#63b8ff" stroke="#63b8ff" points="141.44,-328.05 148.03,-319.76 137.71,-322.13 141.44,-328.05"/>
</a>
</g>
</g>
<!-- Node24 -->
<g id="Node000024" class="node">
<title>Node24</title>
<g id="a_Node000024"><a xlink:href="group__bmp390__base__driver.html#ga1ace669e619709db2b79762373789852" target="_top" xlink:title="set the chip mode">
<polygon fill="white" stroke="#666666" points="253.62,-272 155.12,-272 155.12,-252 253.62,-252 253.62,-272"/>
<text xml:space="preserve" text-anchor="middle" x="204.38" y="-258.5" font-family="Helvetica,sans-Serif" font-size="10.00">bmp390_set_mode</text>
</a>
</g>
</g>
<!-- Node1&#45;&gt;Node24 -->
<g id="edge24_Node000001_Node000024" class="edge">
<title>Node1&#45;&gt;Node24</title>
<g id="a_edge24_Node000001_Node000024"><a xlink:title=" ">
<path fill="none" stroke="#63b8ff" d="M50.59,-615.65C56.29,-563.61 84.19,-331.1 133,-281 136.38,-277.53 140.32,-274.68 144.58,-272.33"/>
<polygon fill="#63b8ff" stroke="#63b8ff" points="145.87,-275.58 153.59,-268.33 143.03,-269.18 145.87,-275.58"/>
</a>
</g>
</g>
<!-- Node25 -->
<g id="Node000025" class="node">
<title>Node25</title>
<g id="a_Node000025"><a xlink:href="group__bmp390__base__driver.html#ga97ecee092d58593881186562f8d12474" target="_top" xlink:title="set the output data rate">
<polygon fill="white" stroke="#666666" points="248.38,-234 160.38,-234 160.38,-214 248.38,-214 248.38,-234"/>
<text xml:space="preserve" text-anchor="middle" x="204.38" y="-220.5" font-family="Helvetica,sans-Serif" font-size="10.00">bmp390_set_odr</text>
</a>
</g>
</g>
<!-- Node1&#45;&gt;Node25 -->
<g id="edge25_Node000001_Node000025" class="edge">
<title>Node1&#45;&gt;Node25</title>
<g id="a_edge25_Node000001_Node000025"><a xlink:title=" ">
<path fill="none" stroke="#63b8ff" d="M50.33,-615.64C54.96,-560.23 79.38,-299.31 133,-243 137.58,-238.19 143.25,-234.55 149.36,-231.8"/>
<polygon fill="#63b8ff" stroke="#63b8ff" points="150.31,-235.18 158.53,-228.5 147.94,-228.6 150.31,-235.18"/>
</a>
</g>
</g>
<!-- Node26 -->
<g id="Node000026" class="node">
<title>Node26</title>
<g id="a_Node000026"><a xlink:href="group__bmp390__base__driver.html#ga184807c2dd608782731cf8343ce54779" target="_top" xlink:title="enable or disable the pressure">
<polygon fill="white" stroke="#666666" points="260.38,-196 148.38,-196 148.38,-176 260.38,-176 260.38,-196"/>
<text xml:space="preserve" text-anchor="middle" x="204.38" y="-182.5" font-family="Helvetica,sans-Serif" font-size="10.00">bmp390_set_pressure</text>
</a>
</g>
</g>
<!-- Node1&#45;&gt;Node26 -->
<g id="edge26_Node000001_Node000026" class="edge">
<title>Node1&#45;&gt;Node26</title>
<g id="a_edge26_Node000001_Node000026"><a xlink:title=" ">
<path fill="none" stroke="#63b8ff" d="M50.1,-615.79C53.72,-557.55 74.5,-267.61 133,-205 134.72,-203.16 136.6,-201.49 138.6,-199.98"/>
<polygon fill="#63b8ff" stroke="#63b8ff" points="139.99,-203.22 146.75,-195.07 136.38,-197.23 139.99,-203.22"/>
</a>
</g>
</g>
<!-- Node27 -->
<g id="Node000027" class="node">
<title>Node27</title>
<g id="a_Node000027"><a xlink:href="group__bmp390__base__driver.html#gac812728fefd570a9bbcb2a5a26159b68" target="_top" xlink:title="set the pressure oversampling">
<polygon fill="white" stroke="#666666" points="260.38,-158 148.38,-158 148.38,-126 260.38,-126 260.38,-158"/>
<text xml:space="preserve" text-anchor="start" x="156.38" y="-144.5" font-family="Helvetica,sans-Serif" font-size="10.00">bmp390_set_pressure</text>
<text xml:space="preserve" text-anchor="middle" x="204.38" y="-132.5" font-family="Helvetica,sans-Serif" font-size="10.00">_oversampling</text>
</a>
</g>
</g>
<!-- Node1&#45;&gt;Node27 -->
<g id="edge27_Node000001_Node000027" class="edge">
<title>Node1&#45;&gt;Node27</title>
<g id="a_edge27_Node000001_Node000027"><a xlink:title=" ">
<path fill="none" stroke="#63b8ff" d="M50,-615.76C53.18,-554.65 72.4,-238.27 133,-167 134.84,-164.84 136.87,-162.87 139.06,-161.06"/>
<polygon fill="#63b8ff" stroke="#63b8ff" points="140.58,-164.26 146.91,-155.76 136.66,-158.46 140.58,-164.26"/>
</a>
</g>
</g>
<!-- Node28 -->
<g id="Node000028" class="node">
<title>Node28</title>
<g id="a_Node000028"><a xlink:href="group__bmp390__base__driver.html#gaf377979cf7a7dc4c5fb77df363cce0e5" target="_top" xlink:title="set the spi wire">
<polygon fill="white" stroke="#666666" points="259.62,-108 149.12,-108 149.12,-88 259.62,-88 259.62,-108"/>
<text xml:space="preserve" text-anchor="middle" x="204.38" y="-94.5" font-family="Helvetica,sans-Serif" font-size="10.00">bmp390_set_spi_wire</text>
</a>
</g>
</g>
<!-- Node1&#45;&gt;Node28 -->
<g id="edge28_Node000001_Node000028" class="edge">
<title>Node1&#45;&gt;Node28</title>
<g id="a_edge28_Node000001_Node000028"><a xlink:title=" ">
<path fill="none" stroke="#63b8ff" d="M49.72,-615.87C51.31,-551.02 63.2,-194.24 133,-117 134.93,-114.86 137.07,-112.96 139.38,-111.26"/>
<polygon fill="#63b8ff" stroke="#63b8ff" points="140.76,-114.5 147.63,-106.43 137.23,-108.46 140.76,-114.5"/>
</a>
</g>
</g>
<!-- Node29 -->
<g id="Node000029" class="node">
<title>Node29</title>
<g id="a_Node000029"><a xlink:href="group__bmp390__base__driver.html#ga3efa2db8b63a899e46a338650b05e079" target="_top" xlink:title="enable or disable the temperature">
<polygon fill="white" stroke="#666666" points="267.5,-70 141.25,-70 141.25,-50 267.5,-50 267.5,-70"/>
<text xml:space="preserve" text-anchor="middle" x="204.38" y="-56.5" font-family="Helvetica,sans-Serif" font-size="10.00">bmp390_set_temperature</text>
</a>
</g>
</g>
<!-- Node1&#45;&gt;Node29 -->
<g id="edge29_Node000001_Node000029" class="edge">
<title>Node1&#45;&gt;Node29</title>
<g id="a_edge29_Node000001_Node000029"><a xlink:title=" ">
<path fill="none" stroke="#63b8ff" d="M49.6,-615.57C50.43,-547.12 58.43,-162.45 133,-79 133.47,-78.47 133.96,-77.95 134.46,-77.45"/>
<polygon fill="#63b8ff" stroke="#63b8ff" points="136.54,-80.26 142.31,-71.38 132.26,-74.73 136.54,-80.26"/>
</a>
</g>
</g>
<!-- Node30 -->
<g id="Node000030" class="node">
<title>Node30</title>
<g id="a_Node000030"><a xlink:href="group__bmp390__base__driver.html#ga015c3f9054cf122df6fbba14e43c7e45" target="_top" xlink:title="set the temperature oversampling">
<polygon fill="white" stroke="#666666" points="267.5,-32 141.25,-32 141.25,0 267.5,0 267.5,-32"/>
<text xml:space="preserve" text-anchor="start" x="149.25" y="-18.5" font-family="Helvetica,sans-Serif" font-size="10.00">bmp390_set_temperature</text>
<text xml:space="preserve" text-anchor="middle" x="204.38" y="-6.5" font-family="Helvetica,sans-Serif" font-size="10.00">_oversampling</text>
</a>
</g>
</g>
<!-- Node1&#45;&gt;Node30 -->
<g id="edge30_Node000001_Node000030" class="edge">
<title>Node1&#45;&gt;Node30</title>
<g id="a_edge30_Node000001_Node000030"><a xlink:title=" ">
<path fill="none" stroke="#63b8ff" d="M49.56,-615.84C50.17,-545.74 57,-133.91 133,-41 133.34,-40.59 133.68,-40.18 134.04,-39.78"/>
<polygon fill="#63b8ff" stroke="#63b8ff" points="136.13,-42.61 141.25,-33.33 131.46,-37.39 136.13,-42.61"/>
</a>
</g>
</g>
<!-- Node10&#45;&gt;Node4 -->
<g id="edge10_Node000010_Node000004" class="edge">
<title>Node10&#45;&gt;Node4</title>
<g id="a_edge10_Node000010_Node000004"><a xlink:title=" ">
<path fill="none" stroke="#63b8ff" d="M260.04,-900.44C265.53,-902.96 270.87,-905.8 275.75,-909 308.12,-930.2 337.29,-964.33 355.09,-987.67"/>
<polygon fill="#63b8ff" stroke="#63b8ff" points="352.09,-989.5 360.87,-995.42 357.7,-985.31 352.09,-989.5"/>
</a>
</g>
</g>
</g>
</svg>
