<?xml version="1.0" encoding="UTF-8" standalone="no"?>
<!DOCTYPE svg PUBLIC "-//W3C//DTD SVG 1.1//EN"
 "http://www.w3.org/Graphics/SVG/1.1/DTD/svg11.dtd">
<!-- Generated by graphviz version 13.1.0 (20250701.0955)
 -->
<!-- Title: bmp390_fifo_init Pages: 1 -->
<svg width="292pt" height="1638pt"
 viewBox="0.00 0.00 292.00 1638.00" xmlns="http://www.w3.org/2000/svg" xmlns:xlink="http://www.w3.org/1999/xlink">
<g id="graph0" class="graph" transform="scale(1 1) rotate(0) translate(4 1634)">
<title>bmp390_fifo_init</title>
<!-- Node1 -->
<g id="Node000001" class="node">
<title>Node1</title>
<g id="a_Node000001"><a xlink:title="fifo example init">
<polygon fill="#999999" stroke="#666666" points="87.25,-843 0,-843 0,-823 87.25,-823 87.25,-843"/>
<text xml:space="preserve" text-anchor="middle" x="43.62" y="-829.5" font-family="Helvetica,sans-Serif" font-size="10.00">bmp390_fifo_init</text>
</a>
</g>
</g>
<!-- Node2 -->
<g id="Node000002" class="node">
<title>Node2</title>
<g id="a_Node000002"><a xlink:href="group__bmp390__base__driver.html#gad0163bb34f04eb7d0888ebfa18534760" target="_top" xlink:title="close the chip">
<polygon fill="white" stroke="#666666" points="243.12,-1630 164.12,-1630 164.12,-1610 243.12,-1610 243.12,-1630"/>
<text xml:space="preserve" text-anchor="middle" x="203.62" y="-1616.5" font-family="Helvetica,sans-Serif" font-size="10.00">bmp390_deinit</text>
</a>
</g>
</g>
<!-- Node1&#45;&gt;Node2 -->
<g id="edge1_Node000001_Node000002" class="edge">
<title>Node1&#45;&gt;Node2</title>
<g id="a_edge1_Node000001_Node000002"><a xlink:title=" ">
<path fill="none" stroke="#63b8ff" d="M44.97,-843.24C47.96,-930.05 70.78,-1541.05 123.25,-1601 130.81,-1609.64 141.53,-1614.71 152.66,-1617.61"/>
<polygon fill="#63b8ff" stroke="#63b8ff" points="151.84,-1621.02 162.33,-1619.54 153.21,-1614.15 151.84,-1621.02"/>
</a>
</g>
</g>
<!-- Node3 -->
<g id="Node000003" class="node">
<title>Node3</title>
<g id="a_Node000003"><a xlink:href="group__bmp390__base__driver.html#ga9b7e1b2a9ba82b52b325d528fddc9947" target="_top" xlink:title="initialize the chip">
<polygon fill="white" stroke="#666666" points="237.88,-1592 169.38,-1592 169.38,-1572 237.88,-1572 237.88,-1592"/>
<text xml:space="preserve" text-anchor="middle" x="203.62" y="-1578.5" font-family="Helvetica,sans-Serif" font-size="10.00">bmp390_init</text>
</a>
</g>
</g>
<!-- Node1&#45;&gt;Node3 -->
<g id="edge2_Node000001_Node000003" class="edge">
<title>Node1&#45;&gt;Node3</title>
<g id="a_edge2_Node000001_Node000003"><a xlink:title=" ">
<path fill="none" stroke="#63b8ff" d="M45.02,-843.26C48.4,-927.7 73.31,-1506.24 123.25,-1563 132.01,-1572.96 144.97,-1578.17 157.89,-1580.78"/>
<polygon fill="#63b8ff" stroke="#63b8ff" points="157.23,-1584.22 167.64,-1582.24 158.26,-1577.3 157.23,-1584.22"/>
</a>
</g>
</g>
<!-- Node4 -->
<g id="Node000004" class="node">
<title>Node4</title>
<g id="a_Node000004"><a xlink:href="group__bmp390__interface__driver.html#ga285886b933f3a6b3f4304911dadfe442" target="_top" xlink:title="interface print format data">
<polygon fill="white" stroke="#666666" points="266,-1554 141.25,-1554 141.25,-1522 266,-1522 266,-1554"/>
<text xml:space="preserve" text-anchor="start" x="149.25" y="-1540.5" font-family="Helvetica,sans-Serif" font-size="10.00">bmp390_interface_debug</text>
<text xml:space="preserve" text-anchor="middle" x="203.62" y="-1528.5" font-family="Helvetica,sans-Serif" font-size="10.00">_print</text>
</a>
</g>
</g>
<!-- Node1&#45;&gt;Node4 -->
<g id="edge3_Node000001_Node000004" class="edge">
<title>Node1&#45;&gt;Node4</title>
<g id="a_edge3_Node000001_Node000004"><a xlink:title=" ">
<path fill="none" stroke="#63b8ff" d="M45.15,-843.29C49.33,-924.4 78.5,-1458.83 123.25,-1513 125.64,-1515.9 128.37,-1518.46 131.33,-1520.73"/>
<polygon fill="#63b8ff" stroke="#63b8ff" points="129.25,-1523.56 139.58,-1525.91 132.97,-1517.63 129.25,-1523.56"/>
</a>
</g>
</g>
<!-- Node5 -->
<g id="Node000005" class="node">
<title>Node5</title>
<g id="a_Node000005"><a xlink:href="group__bmp390__interface__driver.html#gad15acd2ae92f6b2a13e62c2ead8371b6" target="_top" xlink:title="interface delay ms">
<polygon fill="white" stroke="#666666" points="273.88,-1504 133.38,-1504 133.38,-1484 273.88,-1484 273.88,-1504"/>
<text xml:space="preserve" text-anchor="middle" x="203.62" y="-1490.5" font-family="Helvetica,sans-Serif" font-size="10.00">bmp390_interface_delay_ms</text>
</a>
</g>
</g>
<!-- Node1&#45;&gt;Node5 -->
<g id="edge4_Node000001_Node000005" class="edge">
<title>Node1&#45;&gt;Node5</title>
<g id="a_edge4_Node000001_Node000005"><a xlink:title=" ">
<path fill="none" stroke="#63b8ff" d="M45.2,-843.49C49.6,-922.74 79.17,-1425.63 123.25,-1475 123.72,-1475.53 124.21,-1476.04 124.7,-1476.55"/>
<polygon fill="#63b8ff" stroke="#63b8ff" points="122.4,-1479.19 132.41,-1482.65 126.74,-1473.7 122.4,-1479.19"/>
</a>
</g>
</g>
<!-- Node6 -->
<g id="Node000006" class="node">
<title>Node6</title>
<g id="a_Node000006"><a xlink:href="group__bmp390__interface__driver.html#ga321e928dd7c8f38e93c56af970ff0564" target="_top" xlink:title="interface iic bus deinit">
<polygon fill="white" stroke="#666666" points="257.75,-1466 149.5,-1466 149.5,-1434 257.75,-1434 257.75,-1466"/>
<text xml:space="preserve" text-anchor="start" x="157.5" y="-1452.5" font-family="Helvetica,sans-Serif" font-size="10.00">bmp390_interface_iic</text>
<text xml:space="preserve" text-anchor="middle" x="203.62" y="-1440.5" font-family="Helvetica,sans-Serif" font-size="10.00">_deinit</text>
</a>
</g>
</g>
<!-- Node1&#45;&gt;Node6 -->
<g id="edge5_Node000001_Node000006" class="edge">
<title>Node1&#45;&gt;Node6</title>
<g id="a_edge5_Node000001_Node000006"><a xlink:title=" ">
<path fill="none" stroke="#63b8ff" d="M44.54,-843.31C44.14,-914.42 45.21,-1332.13 123.25,-1425 127.6,-1430.17 133,-1434.29 138.94,-1437.56"/>
<polygon fill="#63b8ff" stroke="#63b8ff" points="137.41,-1440.71 147.96,-1441.69 140.32,-1434.35 137.41,-1440.71"/>
</a>
</g>
</g>
<!-- Node7 -->
<g id="Node000007" class="node">
<title>Node7</title>
<g id="a_Node000007"><a xlink:href="group__bmp390__interface__driver.html#ga5585f9fc8896d42b83a409fd8a5b753f" target="_top" xlink:title="interface iic bus init">
<polygon fill="white" stroke="#666666" points="266.75,-1416 140.5,-1416 140.5,-1396 266.75,-1396 266.75,-1416"/>
<text xml:space="preserve" text-anchor="middle" x="203.62" y="-1402.5" font-family="Helvetica,sans-Serif" font-size="10.00">bmp390_interface_iic_init</text>
</a>
</g>
</g>
<!-- Node1&#45;&gt;Node7 -->
<g id="edge6_Node000001_Node000007" class="edge">
<title>Node1&#45;&gt;Node7</title>
<g id="a_edge6_Node000001_Node000007"><a xlink:title=" ">
<path fill="none" stroke="#63b8ff" d="M44.57,-843.14C44.42,-911.36 46.91,-1303.12 123.25,-1387 125.37,-1389.33 127.72,-1391.39 130.24,-1393.23"/>
<polygon fill="#63b8ff" stroke="#63b8ff" points="128.31,-1396.15 138.72,-1398.14 131.82,-1390.1 128.31,-1396.15"/>
</a>
</g>
</g>
<!-- Node8 -->
<g id="Node000008" class="node">
<title>Node8</title>
<g id="a_Node000008"><a xlink:href="group__bmp390__interface__driver.html#gaa1703bed8be2eb5032054b958248518c" target="_top" xlink:title="interface iic bus read">
<polygon fill="white" stroke="#666666" points="269.75,-1378 137.5,-1378 137.5,-1358 269.75,-1358 269.75,-1378"/>
<text xml:space="preserve" text-anchor="middle" x="203.62" y="-1364.5" font-family="Helvetica,sans-Serif" font-size="10.00">bmp390_interface_iic_read</text>
</a>
</g>
</g>
<!-- Node1&#45;&gt;Node8 -->
<g id="edge7_Node000001_Node000008" class="edge">
<title>Node1&#45;&gt;Node8</title>
<g id="a_edge7_Node000001_Node000008"><a xlink:title=" ">
<path fill="none" stroke="#63b8ff" d="M44.69,-843.29C45.31,-909.15 51.94,-1271.46 123.25,-1349 124.6,-1350.47 126.05,-1351.84 127.57,-1353.1"/>
<polygon fill="#63b8ff" stroke="#63b8ff" points="125.49,-1355.93 135.76,-1358.52 129.35,-1350.09 125.49,-1355.93"/>
</a>
</g>
</g>
<!-- Node9 -->
<g id="Node000009" class="node">
<title>Node9</title>
<g id="a_Node000009"><a xlink:href="group__bmp390__interface__driver.html#gaa7a157a5d166f890e312e0bcea96e8ef" target="_top" xlink:title="interface iic bus write">
<polygon fill="white" stroke="#666666" points="257.75,-1340 149.5,-1340 149.5,-1308 257.75,-1308 257.75,-1340"/>
<text xml:space="preserve" text-anchor="start" x="157.5" y="-1326.5" font-family="Helvetica,sans-Serif" font-size="10.00">bmp390_interface_iic</text>
<text xml:space="preserve" text-anchor="middle" x="203.62" y="-1314.5" font-family="Helvetica,sans-Serif" font-size="10.00">_write</text>
</a>
</g>
</g>
<!-- Node1&#45;&gt;Node9 -->
<g id="edge8_Node000001_Node000009" class="edge">
<title>Node1&#45;&gt;Node9</title>
<g id="a_edge8_Node000001_Node000009"><a xlink:title=" ">
<path fill="none" stroke="#63b8ff" d="M44.95,-843.42C47.08,-905.61 61.02,-1227.53 123.25,-1299 127.63,-1304.03 133,-1308.05 138.88,-1311.28"/>
<polygon fill="#63b8ff" stroke="#63b8ff" points="137.22,-1314.37 147.77,-1315.35 140.13,-1308 137.22,-1314.37"/>
</a>
</g>
</g>
<!-- Node10 -->
<g id="Node000010" class="node">
<title>Node10</title>
<g id="a_Node000010"><a xlink:href="group__bmp390__interface__driver.html#ga6a6048cfb7319a197d0837d7b60b6185" target="_top" xlink:title="interface spi bus deinit">
<polygon fill="white" stroke="#666666" points="259.25,-1290 148,-1290 148,-1258 259.25,-1258 259.25,-1290"/>
<text xml:space="preserve" text-anchor="start" x="156" y="-1276.5" font-family="Helvetica,sans-Serif" font-size="10.00">bmp390_interface_spi</text>
<text xml:space="preserve" text-anchor="middle" x="203.62" y="-1264.5" font-family="Helvetica,sans-Serif" font-size="10.00">_deinit</text>
</a>
</g>
</g>
<!-- Node1&#45;&gt;Node10 -->
<g id="edge9_Node000001_Node000010" class="edge">
<title>Node1&#45;&gt;Node10</title>
<g id="a_edge9_Node000001_Node000010"><a xlink:title=" ">
<path fill="none" stroke="#63b8ff" d="M45.18,-843.42C48.46,-901.61 67.24,-1185.94 123.25,-1249 127.33,-1253.59 132.24,-1257.35 137.59,-1260.42"/>
<polygon fill="#63b8ff" stroke="#63b8ff" points="135.74,-1263.41 146.27,-1264.58 138.77,-1257.1 135.74,-1263.41"/>
</a>
</g>
</g>
<!-- Node11 -->
<g id="Node000011" class="node">
<title>Node11</title>
<g id="a_Node000011"><a xlink:href="group__bmp390__interface__driver.html#ga053f014efb2d0c4c3cf328ff160cc12f" target="_top" xlink:title="interface spi bus init">
<polygon fill="white" stroke="#666666" points="268.25,-1240 139,-1240 139,-1220 268.25,-1220 268.25,-1240"/>
<text xml:space="preserve" text-anchor="middle" x="203.62" y="-1226.5" font-family="Helvetica,sans-Serif" font-size="10.00">bmp390_interface_spi_init</text>
</a>
</g>
</g>
<!-- Node1&#45;&gt;Node11 -->
<g id="edge10_Node000001_Node000011" class="edge">
<title>Node1&#45;&gt;Node11</title>
<g id="a_edge10_Node000001_Node000011"><a xlink:title=" ">
<path fill="none" stroke="#63b8ff" d="M45.31,-843.25C49.15,-898.04 69.91,-1156.05 123.25,-1211 125.05,-1212.86 127.01,-1214.55 129.07,-1216.09"/>
<polygon fill="#63b8ff" stroke="#63b8ff" points="127.11,-1218.99 137.5,-1221.11 130.7,-1212.98 127.11,-1218.99"/>
</a>
</g>
</g>
<!-- Node12 -->
<g id="Node000012" class="node">
<title>Node12</title>
<g id="a_Node000012"><a xlink:href="group__bmp390__interface__driver.html#ga1c36285d8c3dd3ec7694057b3d3eaa3a" target="_top" xlink:title="interface spi bus read">
<polygon fill="white" stroke="#666666" points="271.25,-1202 136,-1202 136,-1182 271.25,-1182 271.25,-1202"/>
<text xml:space="preserve" text-anchor="middle" x="203.62" y="-1188.5" font-family="Helvetica,sans-Serif" font-size="10.00">bmp390_interface_spi_read</text>
</a>
</g>
</g>
<!-- Node1&#45;&gt;Node12 -->
<g id="edge11_Node000001_Node000012" class="edge">
<title>Node1&#45;&gt;Node12</title>
<g id="a_edge11_Node000001_Node000012"><a xlink:title=" ">
<path fill="none" stroke="#63b8ff" d="M45.56,-843.22C50.46,-894.61 74.81,-1124.19 123.25,-1173 124.29,-1174.05 125.37,-1175.04 126.5,-1175.98"/>
<polygon fill="#63b8ff" stroke="#63b8ff" points="124.34,-1178.75 134.6,-1181.4 128.23,-1172.93 124.34,-1178.75"/>
</a>
</g>
</g>
<!-- Node13 -->
<g id="Node000013" class="node">
<title>Node13</title>
<g id="a_Node000013"><a xlink:href="group__bmp390__interface__driver.html#ga3e56f990b6b1e08614caf1e2324cc573" target="_top" xlink:title="interface spi bus write">
<polygon fill="white" stroke="#666666" points="259.25,-1164 148,-1164 148,-1132 259.25,-1132 259.25,-1164"/>
<text xml:space="preserve" text-anchor="start" x="156" y="-1150.5" font-family="Helvetica,sans-Serif" font-size="10.00">bmp390_interface_spi</text>
<text xml:space="preserve" text-anchor="middle" x="203.62" y="-1138.5" font-family="Helvetica,sans-Serif" font-size="10.00">_write</text>
</a>
</g>
</g>
<!-- Node1&#45;&gt;Node13 -->
<g id="edge12_Node000001_Node000013" class="edge">
<title>Node1&#45;&gt;Node13</title>
<g id="a_edge12_Node000001_Node000013"><a xlink:title=" ">
<path fill="none" stroke="#63b8ff" d="M44.15,-843.4C42.82,-884.84 43.57,-1040.04 123.25,-1123 127.34,-1127.25 132.14,-1130.79 137.32,-1133.72"/>
<polygon fill="#63b8ff" stroke="#63b8ff" points="135.78,-1136.86 146.31,-1138.01 138.79,-1130.54 135.78,-1136.86"/>
</a>
</g>
</g>
<!-- Node14 -->
<g id="Node000014" class="node">
<title>Node14</title>
<g id="a_Node000014"><a xlink:href="group__bmp390__base__driver.html#ga7e388d2661a18be5cfb9de05f6f2cf11" target="_top" xlink:title="set the iic address pin">
<polygon fill="white" stroke="#666666" points="259.25,-1114 148,-1114 148,-1094 259.25,-1094 259.25,-1114"/>
<text xml:space="preserve" text-anchor="middle" x="203.62" y="-1100.5" font-family="Helvetica,sans-Serif" font-size="10.00">bmp390_set_addr_pin</text>
</a>
</g>
</g>
<!-- Node1&#45;&gt;Node14 -->
<g id="edge13_Node000001_Node000014" class="edge">
<title>Node1&#45;&gt;Node14</title>
<g id="a_edge13_Node000001_Node000014"><a xlink:title=" ">
<path fill="none" stroke="#63b8ff" d="M44.48,-843.5C44.57,-882.01 50.26,-1016.78 123.25,-1085 127.31,-1088.79 131.98,-1091.87 136.99,-1094.36"/>
<polygon fill="#63b8ff" stroke="#63b8ff" points="135.66,-1097.6 146.25,-1098.12 138.3,-1091.11 135.66,-1097.6"/>
</a>
</g>
</g>
<!-- Node15 -->
<g id="Node000015" class="node">
<title>Node15</title>
<g id="a_Node000015"><a xlink:href="group__bmp390__fifo__driver.html#ga4109aebe94da750602f05273c0e4897f" target="_top" xlink:title="enable or disable the fifo">
<polygon fill="white" stroke="#666666" points="247.62,-1076 159.62,-1076 159.62,-1056 247.62,-1056 247.62,-1076"/>
<text xml:space="preserve" text-anchor="middle" x="203.62" y="-1062.5" font-family="Helvetica,sans-Serif" font-size="10.00">bmp390_set_fifo</text>
</a>
</g>
</g>
<!-- Node1&#45;&gt;Node15 -->
<g id="edge14_Node000001_Node000015" class="edge">
<title>Node1&#45;&gt;Node15</title>
<g id="a_edge14_Node000001_Node000015"><a xlink:title=" ">
<path fill="none" stroke="#63b8ff" d="M45.14,-843.36C47.42,-877.94 59.66,-990.45 123.25,-1047 130.4,-1053.36 139.31,-1057.69 148.55,-1060.61"/>
<polygon fill="#63b8ff" stroke="#63b8ff" points="147.43,-1063.94 157.99,-1063.06 149.19,-1057.16 147.43,-1063.94"/>
</a>
</g>
</g>
<!-- Node16 -->
<g id="Node000016" class="node">
<title>Node16</title>
<g id="a_Node000016"><a xlink:href="group__bmp390__fifo__driver.html#ga03bcd3cd4a51af537721261e6cb2723d" target="_top" xlink:title="set the fifo data source">
<polygon fill="white" stroke="#666666" points="259.62,-1038 147.62,-1038 147.62,-1006 259.62,-1006 259.62,-1038"/>
<text xml:space="preserve" text-anchor="start" x="155.62" y="-1024.5" font-family="Helvetica,sans-Serif" font-size="10.00">bmp390_set_fifo_data</text>
<text xml:space="preserve" text-anchor="middle" x="203.62" y="-1012.5" font-family="Helvetica,sans-Serif" font-size="10.00">_source</text>
</a>
</g>
</g>
<!-- Node1&#45;&gt;Node16 -->
<g id="edge15_Node000001_Node000016" class="edge">
<title>Node1&#45;&gt;Node16</title>
<g id="a_edge15_Node000001_Node000016"><a xlink:title=" ">
<path fill="none" stroke="#63b8ff" d="M46.56,-843.18C52.54,-871.81 73.4,-953.76 123.25,-997 127.4,-1000.6 132.06,-1003.68 137,-1006.31"/>
<polygon fill="#63b8ff" stroke="#63b8ff" points="135.52,-1009.49 146.07,-1010.5 138.45,-1003.13 135.52,-1009.49"/>
</a>
</g>
</g>
<!-- Node17 -->
<g id="Node000017" class="node">
<title>Node17</title>
<g id="a_Node000017"><a xlink:href="group__bmp390__fifo__driver.html#ga1da99909a4d1b912d93c0a1e8424cb95" target="_top" xlink:title="enable or disable the fifo pressure on">
<polygon fill="white" stroke="#666666" points="276.88,-988 130.38,-988 130.38,-968 276.88,-968 276.88,-988"/>
<text xml:space="preserve" text-anchor="middle" x="203.62" y="-974.5" font-family="Helvetica,sans-Serif" font-size="10.00">bmp390_set_fifo_pressure_on</text>
</a>
</g>
</g>
<!-- Node1&#45;&gt;Node17 -->
<g id="edge16_Node000001_Node000017" class="edge">
<title>Node1&#45;&gt;Node17</title>
<g id="a_edge16_Node000001_Node000017"><a xlink:title=" ">
<path fill="none" stroke="#63b8ff" d="M48,-843.39C56.46,-867.71 80.98,-928.57 123.25,-959 125.06,-960.3 126.95,-961.52 128.9,-962.65"/>
<polygon fill="#63b8ff" stroke="#63b8ff" points="127.21,-965.72 137.73,-966.99 130.29,-959.44 127.21,-965.72"/>
</a>
</g>
</g>
<!-- Node18 -->
<g id="Node000018" class="node">
<title>Node18</title>
<g id="a_Node000018"><a xlink:href="group__bmp390__fifo__driver.html#ga9186f64723fc0b400c5b2350df07157e" target="_top" xlink:title="enable or disable the fifo sensor time on">
<polygon fill="white" stroke="#666666" points="282.12,-950 125.12,-950 125.12,-930 282.12,-930 282.12,-950"/>
<text xml:space="preserve" text-anchor="middle" x="203.62" y="-936.5" font-family="Helvetica,sans-Serif" font-size="10.00">bmp390_set_fifo_sensortime_on</text>
</a>
</g>
</g>
<!-- Node1&#45;&gt;Node18 -->
<g id="edge17_Node000001_Node000018" class="edge">
<title>Node1&#45;&gt;Node18</title>
<g id="a_edge17_Node000001_Node000018"><a xlink:title=" ">
<path fill="none" stroke="#63b8ff" d="M50.76,-843.26C62.42,-861.83 89.65,-900.94 123.25,-921 125.84,-922.55 128.55,-923.97 131.34,-925.27"/>
<polygon fill="#63b8ff" stroke="#63b8ff" points="129.75,-928.4 140.33,-928.94 132.39,-921.92 129.75,-928.4"/>
</a>
</g>
</g>
<!-- Node19 -->
<g id="Node000019" class="node">
<title>Node19</title>
<g id="a_Node000019"><a xlink:href="group__bmp390__fifo__driver.html#gaa57c1ace01a617ed82927cd7067d0d87" target="_top" xlink:title="enable or disable the fifo stopping on full">
<polygon fill="white" stroke="#666666" points="259.62,-912 147.62,-912 147.62,-880 259.62,-880 259.62,-912"/>
<text xml:space="preserve" text-anchor="start" x="155.62" y="-898.5" font-family="Helvetica,sans-Serif" font-size="10.00">bmp390_set_fifo_stop</text>
<text xml:space="preserve" text-anchor="middle" x="203.62" y="-886.5" font-family="Helvetica,sans-Serif" font-size="10.00">_on_full</text>
</a>
</g>
</g>
<!-- Node1&#45;&gt;Node19 -->
<g id="edge18_Node000001_Node000019" class="edge">
<title>Node1&#45;&gt;Node19</title>
<g id="a_edge18_Node000001_Node000019"><a xlink:title=" ">
<path fill="none" stroke="#63b8ff" d="M64.3,-843.5C80,-851.63 102.68,-862.84 123.25,-871 127.56,-872.71 132.03,-874.38 136.56,-876"/>
<polygon fill="#63b8ff" stroke="#63b8ff" points="135.15,-879.22 145.75,-879.18 137.44,-872.6 135.15,-879.22"/>
</a>
</g>
</g>
<!-- Node20 -->
<g id="Node000020" class="node">
<title>Node20</title>
<g id="a_Node000020"><a xlink:href="group__bmp390__fifo__driver.html#ga91af03895dc93bc5aed8e42a85fcd0e9" target="_top" xlink:title="set the fifo subsampling">
<polygon fill="white" stroke="#666666" points="277.62,-862 129.62,-862 129.62,-842 277.62,-842 277.62,-862"/>
<text xml:space="preserve" text-anchor="middle" x="203.62" y="-848.5" font-family="Helvetica,sans-Serif" font-size="10.00">bmp390_set_fifo_subsampling</text>
</a>
</g>
</g>
<!-- Node1&#45;&gt;Node20 -->
<g id="edge19_Node000001_Node000020" class="edge">
<title>Node1&#45;&gt;Node20</title>
<g id="a_edge19_Node000001_Node000020"><a xlink:title=" ">
<path fill="none" stroke="#63b8ff" d="M87.38,-838.14C97.01,-839.3 107.56,-840.57 118.24,-841.85"/>
<polygon fill="#63b8ff" stroke="#63b8ff" points="117.54,-845.29 127.89,-843.01 118.38,-838.34 117.54,-845.29"/>
</a>
</g>
</g>
<!-- Node21 -->
<g id="Node000021" class="node">
<title>Node21</title>
<g id="a_Node000021"><a xlink:href="group__bmp390__fifo__driver.html#ga2e2ca585ac158b8523355f88ddcede31" target="_top" xlink:title="enable or disable the fifo temperature on">
<polygon fill="white" stroke="#666666" points="284,-824 123.25,-824 123.25,-804 284,-804 284,-824"/>
<text xml:space="preserve" text-anchor="middle" x="203.62" y="-810.5" font-family="Helvetica,sans-Serif" font-size="10.00">bmp390_set_fifo_temperature_on</text>
</a>
</g>
</g>
<!-- Node1&#45;&gt;Node21 -->
<g id="edge20_Node000001_Node000021" class="edge">
<title>Node1&#45;&gt;Node21</title>
<g id="a_edge20_Node000001_Node000021"><a xlink:title=" ">
<path fill="none" stroke="#63b8ff" d="M87.38,-827.86C95.07,-826.93 103.34,-825.94 111.8,-824.92"/>
<polygon fill="#63b8ff" stroke="#63b8ff" points="111.98,-828.43 121.49,-823.76 111.15,-821.48 111.98,-828.43"/>
</a>
</g>
</g>
<!-- Node22 -->
<g id="Node000022" class="node">
<title>Node22</title>
<g id="a_Node000022"><a xlink:href="group__bmp390__fifo__driver.html#gabdec82c148e0fb3e9666e58abaad5740" target="_top" xlink:title="set the fifo watermark">
<polygon fill="white" stroke="#666666" points="273.12,-786 134.12,-786 134.12,-766 273.12,-766 273.12,-786"/>
<text xml:space="preserve" text-anchor="middle" x="203.62" y="-772.5" font-family="Helvetica,sans-Serif" font-size="10.00">bmp390_set_fifo_watermark</text>
</a>
</g>
</g>
<!-- Node1&#45;&gt;Node22 -->
<g id="edge21_Node000001_Node000022" class="edge">
<title>Node1&#45;&gt;Node22</title>
<g id="a_edge21_Node000001_Node000022"><a xlink:title=" ">
<path fill="none" stroke="#63b8ff" d="M63.2,-822.61C78.83,-814.22 101.97,-802.59 123.25,-795 128.92,-792.98 134.9,-791.1 140.92,-789.38"/>
<polygon fill="#63b8ff" stroke="#63b8ff" points="141.56,-792.84 150.3,-786.85 139.73,-786.08 141.56,-792.84"/>
</a>
</g>
</g>
<!-- Node23 -->
<g id="Node000023" class="node">
<title>Node23</title>
<g id="a_Node000023"><a xlink:href="group__bmp390__base__driver.html#gaf6022756e12b6e5329ef3a3220ab9f6e" target="_top" xlink:title="set the filter coefficient">
<polygon fill="white" stroke="#666666" points="275,-748 132.25,-748 132.25,-728 275,-728 275,-748"/>
<text xml:space="preserve" text-anchor="middle" x="203.62" y="-734.5" font-family="Helvetica,sans-Serif" font-size="10.00">bmp390_set_filter_coefficient</text>
</a>
</g>
</g>
<!-- Node1&#45;&gt;Node23 -->
<g id="edge22_Node000001_Node000023" class="edge">
<title>Node1&#45;&gt;Node23</title>
<g id="a_edge22_Node000001_Node000023"><a xlink:title=" ">
<path fill="none" stroke="#63b8ff" d="M52.31,-822.6C65.11,-806.06 92.46,-773.89 123.25,-757 126.26,-755.35 129.41,-753.84 132.65,-752.46"/>
<polygon fill="#63b8ff" stroke="#63b8ff" points="133.67,-755.82 141.8,-749.02 131.21,-749.26 133.67,-755.82"/>
</a>
</g>
</g>
<!-- Node24 -->
<g id="Node000024" class="node">
<title>Node24</title>
<g id="a_Node000024"><a xlink:href="group__bmp390__base__driver.html#gac906ec85a28a8c3bea0b3c3425b6c27b" target="_top" xlink:title="set the iic watchdog period">
<polygon fill="white" stroke="#666666" points="269.38,-710 137.88,-710 137.88,-678 269.38,-678 269.38,-710"/>
<text xml:space="preserve" text-anchor="start" x="145.88" y="-696.5" font-family="Helvetica,sans-Serif" font-size="10.00">bmp390_set_iic_watchdog</text>
<text xml:space="preserve" text-anchor="middle" x="203.62" y="-684.5" font-family="Helvetica,sans-Serif" font-size="10.00">_period</text>
</a>
</g>
</g>
<!-- Node1&#45;&gt;Node24 -->
<g id="edge23_Node000001_Node000024" class="edge">
<title>Node1&#45;&gt;Node24</title>
<g id="a_edge23_Node000001_Node000024"><a xlink:title=" ">
<path fill="none" stroke="#63b8ff" d="M48.86,-822.79C58.6,-800.54 84.76,-747.42 123.25,-719 124.77,-717.88 126.34,-716.81 127.95,-715.78"/>
<polygon fill="#63b8ff" stroke="#63b8ff" points="129.23,-719.08 136.26,-711.15 125.82,-712.96 129.23,-719.08"/>
</a>
</g>
</g>
<!-- Node25 -->
<g id="Node000025" class="node">
<title>Node25</title>
<g id="a_Node000025"><a xlink:href="group__bmp390__base__driver.html#gaa29c6d4e04b619ff1ed8871285a8f0e1" target="_top" xlink:title="enable or disable the iic watchdog timer">
<polygon fill="white" stroke="#666666" points="269.38,-660 137.88,-660 137.88,-628 269.38,-628 269.38,-660"/>
<text xml:space="preserve" text-anchor="start" x="145.88" y="-646.5" font-family="Helvetica,sans-Serif" font-size="10.00">bmp390_set_iic_watchdog</text>
<text xml:space="preserve" text-anchor="middle" x="203.62" y="-634.5" font-family="Helvetica,sans-Serif" font-size="10.00">_timer</text>
</a>
</g>
</g>
<!-- Node1&#45;&gt;Node25 -->
<g id="edge24_Node000001_Node000025" class="edge">
<title>Node1&#45;&gt;Node25</title>
<g id="a_edge24_Node000001_Node000025"><a xlink:title=" ">
<path fill="none" stroke="#63b8ff" d="M46.56,-822.82C52.54,-794.19 73.4,-712.24 123.25,-669 124.71,-667.73 126.24,-666.53 127.82,-665.38"/>
<polygon fill="#63b8ff" stroke="#63b8ff" points="129.43,-668.5 136.1,-660.27 125.75,-662.55 129.43,-668.5"/>
</a>
</g>
</g>
<!-- Node26 -->
<g id="Node000026" class="node">
<title>Node26</title>
<g id="a_Node000026"><a xlink:href="group__bmp390__base__driver.html#gad988b048fd1f60fe4e1c4e17e6b15e7b" target="_top" xlink:title="set the interface">
<polygon fill="white" stroke="#666666" points="259.62,-610 147.62,-610 147.62,-590 259.62,-590 259.62,-610"/>
<text xml:space="preserve" text-anchor="middle" x="203.62" y="-596.5" font-family="Helvetica,sans-Serif" font-size="10.00">bmp390_set_interface</text>
</a>
</g>
</g>
<!-- Node1&#45;&gt;Node26 -->
<g id="edge25_Node000001_Node000026" class="edge">
<title>Node1&#45;&gt;Node26</title>
<g id="a_edge25_Node000001_Node000026"><a xlink:title=" ">
<path fill="none" stroke="#63b8ff" d="M45.14,-822.64C47.42,-788.06 59.66,-675.55 123.25,-619 127.34,-615.37 132,-612.4 136.96,-609.97"/>
<polygon fill="#63b8ff" stroke="#63b8ff" points="138.13,-613.28 146.09,-606.29 135.51,-606.78 138.13,-613.28"/>
</a>
</g>
</g>
<!-- Node27 -->
<g id="Node000027" class="node">
<title>Node27</title>
<g id="a_Node000027"><a xlink:href="group__bmp390__interrupt__driver.html#gaef16b2d51c9d4d5eaaf109ca1bfc19aa" target="_top" xlink:title="set the interrupt active level">
<polygon fill="white" stroke="#666666" points="258.5,-572 148.75,-572 148.75,-540 258.5,-540 258.5,-572"/>
<text xml:space="preserve" text-anchor="start" x="156.75" y="-558.5" font-family="Helvetica,sans-Serif" font-size="10.00">bmp390_set_interrupt</text>
<text xml:space="preserve" text-anchor="middle" x="203.62" y="-546.5" font-family="Helvetica,sans-Serif" font-size="10.00">_active_level</text>
</a>
</g>
</g>
<!-- Node1&#45;&gt;Node27 -->
<g id="edge26_Node000001_Node000027" class="edge">
<title>Node1&#45;&gt;Node27</title>
<g id="a_edge26_Node000001_Node000027"><a xlink:title=" ">
<path fill="none" stroke="#63b8ff" d="M44.64,-822.67C45.29,-784.74 52.7,-651.74 123.25,-581 127.59,-576.65 132.67,-573.06 138.13,-570.09"/>
<polygon fill="#63b8ff" stroke="#63b8ff" points="139.32,-573.4 146.93,-566.03 136.38,-567.04 139.32,-573.4"/>
</a>
</g>
</g>
<!-- Node28 -->
<g id="Node000028" class="node">
<title>Node28</title>
<g id="a_Node000028"><a xlink:href="group__bmp390__interrupt__driver.html#ga644c086923d977467c6664488624c005" target="_top" xlink:title="enable or disable the data ready interrupt">
<polygon fill="white" stroke="#666666" points="258.5,-522 148.75,-522 148.75,-490 258.5,-490 258.5,-522"/>
<text xml:space="preserve" text-anchor="start" x="156.75" y="-508.5" font-family="Helvetica,sans-Serif" font-size="10.00">bmp390_set_interrupt</text>
<text xml:space="preserve" text-anchor="middle" x="203.62" y="-496.5" font-family="Helvetica,sans-Serif" font-size="10.00">_data_ready</text>
</a>
</g>
</g>
<!-- Node1&#45;&gt;Node28 -->
<g id="edge27_Node000001_Node000028" class="edge">
<title>Node1&#45;&gt;Node28</title>
<g id="a_edge27_Node000001_Node000028"><a xlink:title=" ">
<path fill="none" stroke="#63b8ff" d="M45.96,-822.73C52.34,-774.99 81.25,-575.17 123.25,-531 127.54,-526.48 132.64,-522.78 138.15,-519.74"/>
<polygon fill="#63b8ff" stroke="#63b8ff" points="139.47,-522.99 147.06,-515.6 136.52,-516.64 139.47,-522.99"/>
</a>
</g>
</g>
<!-- Node29 -->
<g id="Node000029" class="node">
<title>Node29</title>
<g id="a_Node000029"><a xlink:href="group__bmp390__interrupt__driver.html#gaec34cec70f66276f57af24431e04bccf" target="_top" xlink:title="enable or disable the fifo full interrupt">
<polygon fill="white" stroke="#666666" points="258.5,-472 148.75,-472 148.75,-440 258.5,-440 258.5,-472"/>
<text xml:space="preserve" text-anchor="start" x="156.75" y="-458.5" font-family="Helvetica,sans-Serif" font-size="10.00">bmp390_set_interrupt</text>
<text xml:space="preserve" text-anchor="middle" x="203.62" y="-446.5" font-family="Helvetica,sans-Serif" font-size="10.00">_fifo_full</text>
</a>
</g>
</g>
<!-- Node1&#45;&gt;Node29 -->
<g id="edge28_Node000001_Node000029" class="edge">
<title>Node1&#45;&gt;Node29</title>
<g id="a_edge28_Node000001_Node000029"><a xlink:title=" ">
<path fill="none" stroke="#63b8ff" d="M45.54,-822.83C50.43,-770.67 75.08,-533.47 123.25,-481 127.52,-476.34 132.66,-472.55 138.23,-469.46"/>
<polygon fill="#63b8ff" stroke="#63b8ff" points="139.68,-472.64 147.27,-465.25 136.72,-466.3 139.68,-472.64"/>
</a>
</g>
</g>
<!-- Node30 -->
<g id="Node000030" class="node">
<title>Node30</title>
<g id="a_Node000030"><a xlink:href="group__bmp390__interrupt__driver.html#ga48f948d7d23debb0dbc5a874a14ac036" target="_top" xlink:title="enable or disable the fifo watermark interrupt">
<polygon fill="white" stroke="#666666" points="258.5,-422 148.75,-422 148.75,-390 258.5,-390 258.5,-422"/>
<text xml:space="preserve" text-anchor="start" x="156.75" y="-408.5" font-family="Helvetica,sans-Serif" font-size="10.00">bmp390_set_interrupt</text>
<text xml:space="preserve" text-anchor="middle" x="203.62" y="-396.5" font-family="Helvetica,sans-Serif" font-size="10.00">_fifo_watermark</text>
</a>
</g>
</g>
<!-- Node1&#45;&gt;Node30 -->
<g id="edge29_Node000001_Node000030" class="edge">
<title>Node1&#45;&gt;Node30</title>
<g id="a_edge29_Node000001_Node000030"><a xlink:title=" ">
<path fill="none" stroke="#63b8ff" d="M45.25,-822.55C48.89,-765.48 68.99,-491.71 123.25,-431 127.46,-426.29 132.55,-422.46 138.1,-419.34"/>
<polygon fill="#63b8ff" stroke="#63b8ff" points="139.54,-422.53 147.11,-415.12 136.57,-416.19 139.54,-422.53"/>
</a>
</g>
</g>
<!-- Node31 -->
<g id="Node000031" class="node">
<title>Node31</title>
<g id="a_Node000031"><a xlink:href="group__bmp390__interrupt__driver.html#gaccc2a21a1e18425aeebf16b3ac07f2bc" target="_top" xlink:title="set the interrupt pin type">
<polygon fill="white" stroke="#666666" points="258.5,-372 148.75,-372 148.75,-340 258.5,-340 258.5,-372"/>
<text xml:space="preserve" text-anchor="start" x="156.75" y="-358.5" font-family="Helvetica,sans-Serif" font-size="10.00">bmp390_set_interrupt</text>
<text xml:space="preserve" text-anchor="middle" x="203.62" y="-346.5" font-family="Helvetica,sans-Serif" font-size="10.00">_pin_type</text>
</a>
</g>
</g>
<!-- Node1&#45;&gt;Node31 -->
<g id="edge30_Node000001_Node000031" class="edge">
<title>Node1&#45;&gt;Node31</title>
<g id="a_edge30_Node000001_Node000031"><a xlink:title=" ">
<path fill="none" stroke="#63b8ff" d="M44.99,-822.89C47.4,-762.55 62.66,-450.23 123.25,-381 127.41,-376.24 132.47,-372.38 138,-369.25"/>
<polygon fill="#63b8ff" stroke="#63b8ff" points="139.44,-372.44 146.99,-365.01 136.45,-366.11 139.44,-372.44"/>
</a>
</g>
</g>
<!-- Node32 -->
<g id="Node000032" class="node">
<title>Node32</title>
<g id="a_Node000032"><a xlink:href="group__bmp390__interrupt__driver.html#gaaefbe53f31fb34b64b173fe9196fdf0a" target="_top" xlink:title="enable or disable latching interrupt pin and interrupt status">
<polygon fill="white" stroke="#666666" points="271.62,-322 135.62,-322 135.62,-290 271.62,-290 271.62,-322"/>
<text xml:space="preserve" text-anchor="start" x="143.62" y="-308.5" font-family="Helvetica,sans-Serif" font-size="10.00">bmp390_set_latch_interrupt</text>
<text xml:space="preserve" text-anchor="middle" x="203.62" y="-296.5" font-family="Helvetica,sans-Serif" font-size="10.00">_pin_and_interrupt_status</text>
</a>
</g>
</g>
<!-- Node1&#45;&gt;Node32 -->
<g id="edge31_Node000001_Node000032" class="edge">
<title>Node1&#45;&gt;Node32</title>
<g id="a_edge31_Node000001_Node000032"><a xlink:title=" ">
<path fill="none" stroke="#63b8ff" d="M44.81,-822.64C46.16,-757.83 56.51,-408.57 123.25,-331 124.23,-329.86 125.26,-328.77 126.34,-327.73"/>
<polygon fill="#63b8ff" stroke="#63b8ff" points="128.46,-330.52 134.2,-321.62 124.16,-324.99 128.46,-330.52"/>
</a>
</g>
</g>
<!-- Node33 -->
<g id="Node000033" class="node">
<title>Node33</title>
<g id="a_Node000033"><a xlink:href="group__bmp390__base__driver.html#ga1ace669e619709db2b79762373789852" target="_top" xlink:title="set the chip mode">
<polygon fill="white" stroke="#666666" points="252.88,-272 154.38,-272 154.38,-252 252.88,-252 252.88,-272"/>
<text xml:space="preserve" text-anchor="middle" x="203.62" y="-258.5" font-family="Helvetica,sans-Serif" font-size="10.00">bmp390_set_mode</text>
</a>
</g>
</g>
<!-- Node1&#45;&gt;Node33 -->
<g id="edge32_Node000001_Node000033" class="edge">
<title>Node1&#45;&gt;Node33</title>
<g id="a_edge32_Node000001_Node000033"><a xlink:title=" ">
<path fill="none" stroke="#63b8ff" d="M44.58,-822.89C44.46,-754.92 47.16,-364.56 123.25,-281 128.7,-275.02 135.66,-270.76 143.2,-267.75"/>
<polygon fill="#63b8ff" stroke="#63b8ff" points="144.21,-271.1 152.69,-264.74 142.1,-264.43 144.21,-271.1"/>
</a>
</g>
</g>
<!-- Node34 -->
<g id="Node000034" class="node">
<title>Node34</title>
<g id="a_Node000034"><a xlink:href="group__bmp390__base__driver.html#ga97ecee092d58593881186562f8d12474" target="_top" xlink:title="set the output data rate">
<polygon fill="white" stroke="#666666" points="247.62,-234 159.62,-234 159.62,-214 247.62,-214 247.62,-234"/>
<text xml:space="preserve" text-anchor="middle" x="203.62" y="-220.5" font-family="Helvetica,sans-Serif" font-size="10.00">bmp390_set_odr</text>
</a>
</g>
</g>
<!-- Node1&#45;&gt;Node34 -->
<g id="edge33_Node000001_Node000034" class="edge">
<title>Node1&#45;&gt;Node34</title>
<g id="a_edge33_Node000001_Node000034"><a xlink:title=" ">
<path fill="none" stroke="#63b8ff" d="M44.47,-822.67C43.64,-751.38 42.25,-332.76 123.25,-243 129.94,-235.59 138.96,-230.81 148.53,-227.79"/>
<polygon fill="#63b8ff" stroke="#63b8ff" points="149.13,-231.25 157.99,-225.44 147.44,-224.46 149.13,-231.25"/>
</a>
</g>
</g>
<!-- Node35 -->
<g id="Node000035" class="node">
<title>Node35</title>
<g id="a_Node000035"><a xlink:href="group__bmp390__base__driver.html#ga184807c2dd608782731cf8343ce54779" target="_top" xlink:title="enable or disable the pressure">
<polygon fill="white" stroke="#666666" points="259.62,-196 147.62,-196 147.62,-176 259.62,-176 259.62,-196"/>
<text xml:space="preserve" text-anchor="middle" x="203.62" y="-182.5" font-family="Helvetica,sans-Serif" font-size="10.00">bmp390_set_pressure</text>
</a>
</g>
</g>
<!-- Node1&#45;&gt;Node35 -->
<g id="edge34_Node000001_Node000035" class="edge">
<title>Node1&#45;&gt;Node35</title>
<g id="a_edge34_Node000001_Node000035"><a xlink:title=" ">
<path fill="none" stroke="#63b8ff" d="M44.39,-822.96C42.87,-749.98 37.13,-301.19 123.25,-205 127.17,-200.63 131.89,-197.17 137.07,-194.45"/>
<polygon fill="#63b8ff" stroke="#63b8ff" points="138.22,-197.76 146.08,-190.66 135.5,-191.31 138.22,-197.76"/>
</a>
</g>
</g>
<!-- Node36 -->
<g id="Node000036" class="node">
<title>Node36</title>
<g id="a_Node000036"><a xlink:href="group__bmp390__base__driver.html#gac812728fefd570a9bbcb2a5a26159b68" target="_top" xlink:title="set the pressure oversampling">
<polygon fill="white" stroke="#666666" points="259.62,-158 147.62,-158 147.62,-126 259.62,-126 259.62,-158"/>
<text xml:space="preserve" text-anchor="start" x="155.62" y="-144.5" font-family="Helvetica,sans-Serif" font-size="10.00">bmp390_set_pressure</text>
<text xml:space="preserve" text-anchor="middle" x="203.62" y="-132.5" font-family="Helvetica,sans-Serif" font-size="10.00">_oversampling</text>
</a>
</g>
</g>
<!-- Node1&#45;&gt;Node36 -->
<g id="edge35_Node000001_Node000036" class="edge">
<title>Node1&#45;&gt;Node36</title>
<g id="a_edge35_Node000001_Node000036"><a xlink:title=" ">
<path fill="none" stroke="#63b8ff" d="M45.16,-822.92C49.46,-743.48 79.35,-220.02 123.25,-167 127.17,-162.27 131.97,-158.42 137.26,-155.29"/>
<polygon fill="#63b8ff" stroke="#63b8ff" points="138.42,-158.62 145.85,-151.07 135.34,-152.34 138.42,-158.62"/>
</a>
</g>
</g>
<!-- Node37 -->
<g id="Node000037" class="node">
<title>Node37</title>
<g id="a_Node000037"><a xlink:href="group__bmp390__base__driver.html#gaf377979cf7a7dc4c5fb77df363cce0e5" target="_top" xlink:title="set the spi wire">
<polygon fill="white" stroke="#666666" points="258.88,-108 148.38,-108 148.38,-88 258.88,-88 258.88,-108"/>
<text xml:space="preserve" text-anchor="middle" x="203.62" y="-94.5" font-family="Helvetica,sans-Serif" font-size="10.00">bmp390_set_spi_wire</text>
</a>
</g>
</g>
<!-- Node1&#45;&gt;Node37 -->
<g id="edge36_Node000001_Node000037" class="edge">
<title>Node1&#45;&gt;Node37</title>
<g id="a_edge36_Node000001_Node000037"><a xlink:title=" ">
<path fill="none" stroke="#63b8ff" d="M45.05,-822.67C48.59,-738.91 74.25,-172.58 123.25,-117 127.35,-112.35 132.37,-108.73 137.87,-105.94"/>
<polygon fill="#63b8ff" stroke="#63b8ff" points="138.85,-109.31 146.8,-102.3 136.21,-102.83 138.85,-109.31"/>
</a>
</g>
</g>
<!-- Node38 -->
<g id="Node000038" class="node">
<title>Node38</title>
<g id="a_Node000038"><a xlink:href="group__bmp390__base__driver.html#ga3efa2db8b63a899e46a338650b05e079" target="_top" xlink:title="enable or disable the temperature">
<polygon fill="white" stroke="#666666" points="266.75,-70 140.5,-70 140.5,-50 266.75,-50 266.75,-70"/>
<text xml:space="preserve" text-anchor="middle" x="203.62" y="-56.5" font-family="Helvetica,sans-Serif" font-size="10.00">bmp390_set_temperature</text>
</a>
</g>
</g>
<!-- Node1&#45;&gt;Node38 -->
<g id="edge37_Node000001_Node000038" class="edge">
<title>Node1&#45;&gt;Node38</title>
<g id="a_edge37_Node000001_Node000038"><a xlink:title=" ">
<path fill="none" stroke="#63b8ff" d="M44.99,-822.68C48.13,-736.45 71.73,-137.76 123.25,-79 125.37,-76.59 127.73,-74.45 130.28,-72.56"/>
<polygon fill="#63b8ff" stroke="#63b8ff" points="132.04,-75.59 138.92,-67.52 128.52,-69.54 132.04,-75.59"/>
</a>
</g>
</g>
<!-- Node39 -->
<g id="Node000039" class="node">
<title>Node39</title>
<g id="a_Node000039"><a xlink:href="group__bmp390__base__driver.html#ga015c3f9054cf122df6fbba14e43c7e45" target="_top" xlink:title="set the temperature oversampling">
<polygon fill="white" stroke="#666666" points="266.75,-32 140.5,-32 140.5,0 266.75,0 266.75,-32"/>
<text xml:space="preserve" text-anchor="start" x="148.5" y="-18.5" font-family="Helvetica,sans-Serif" font-size="10.00">bmp390_set_temperature</text>
<text xml:space="preserve" text-anchor="middle" x="203.62" y="-6.5" font-family="Helvetica,sans-Serif" font-size="10.00">_oversampling</text>
</a>
</g>
</g>
<!-- Node1&#45;&gt;Node39 -->
<g id="edge38_Node000001_Node000039" class="edge">
<title>Node1&#45;&gt;Node39</title>
<g id="a_edge38_Node000001_Node000039"><a xlink:title=" ">
<path fill="none" stroke="#63b8ff" d="M44.97,-822.75C48,-734.51 71.41,-104.81 123.25,-41 125.5,-38.23 128.06,-35.76 130.84,-33.56"/>
<polygon fill="#63b8ff" stroke="#63b8ff" points="132.6,-36.59 139.11,-28.24 128.81,-30.71 132.6,-36.59"/>
</a>
</g>
</g>
</g>
</svg>
