<?xml version="1.0" encoding="UTF-8" standalone="no"?>
<!DOCTYPE svg PUBLIC "-//W3C//DTD SVG 1.1//EN"
 "http://www.w3.org/Graphics/SVG/1.1/DTD/svg11.dtd">
<!-- Generated by graphviz version 13.1.0 (20250701.0955)
 -->
<!-- Title: bmp390_interrupt_init Pages: 1 -->
<svg width="296pt" height="1348pt"
 viewBox="0.00 0.00 296.00 1348.00" xmlns="http://www.w3.org/2000/svg" xmlns:xlink="http://www.w3.org/1999/xlink">
<g id="graph0" class="graph" transform="scale(1 1) rotate(0) translate(4 1344)">
<title>bmp390_interrupt_init</title>
<!-- Node1 -->
<g id="Node000001" class="node">
<title>Node1</title>
<g id="a_Node000001"><a xlink:title="interrupt example init">
<polygon fill="#999999" stroke="#666666" points="109,-704 0,-704 0,-684 109,-684 109,-704"/>
<text xml:space="preserve" text-anchor="middle" x="54.5" y="-690.5" font-family="Helvetica,sans-Serif" font-size="10.00">bmp390_interrupt_init</text>
</a>
</g>
</g>
<!-- Node2 -->
<g id="Node000002" class="node">
<title>Node2</title>
<g id="a_Node000002"><a xlink:href="group__bmp390__base__driver.html#gad0163bb34f04eb7d0888ebfa18534760" target="_top" xlink:title="close the chip">
<polygon fill="white" stroke="#666666" points="255.88,-1340 176.88,-1340 176.88,-1320 255.88,-1320 255.88,-1340"/>
<text xml:space="preserve" text-anchor="middle" x="216.38" y="-1326.5" font-family="Helvetica,sans-Serif" font-size="10.00">bmp390_deinit</text>
</a>
</g>
</g>
<!-- Node1&#45;&gt;Node2 -->
<g id="edge1_Node000001_Node000002" class="edge">
<title>Node1&#45;&gt;Node2</title>
<g id="a_edge1_Node000001_Node000002"><a xlink:title=" ">
<path fill="none" stroke="#63b8ff" d="M55.51,-704.32C55.76,-777.34 60.79,-1216.06 145,-1311 150.54,-1317.25 157.9,-1321.54 165.78,-1324.46"/>
<polygon fill="#63b8ff" stroke="#63b8ff" points="164.68,-1327.79 175.26,-1327.24 166.65,-1321.07 164.68,-1327.79"/>
</a>
</g>
</g>
<!-- Node3 -->
<g id="Node000003" class="node">
<title>Node3</title>
<g id="a_Node000003"><a xlink:href="group__bmp390__base__driver.html#ga9b7e1b2a9ba82b52b325d528fddc9947" target="_top" xlink:title="initialize the chip">
<polygon fill="white" stroke="#666666" points="250.62,-1302 182.12,-1302 182.12,-1282 250.62,-1282 250.62,-1302"/>
<text xml:space="preserve" text-anchor="middle" x="216.38" y="-1288.5" font-family="Helvetica,sans-Serif" font-size="10.00">bmp390_init</text>
</a>
</g>
</g>
<!-- Node1&#45;&gt;Node3 -->
<g id="edge2_Node000001_Node000003" class="edge">
<title>Node1&#45;&gt;Node3</title>
<g id="a_edge2_Node000001_Node000003"><a xlink:title=" ">
<path fill="none" stroke="#63b8ff" d="M55.61,-704.13C56.58,-774 65.62,-1184.34 145,-1273 151.75,-1280.54 161.14,-1285.22 170.87,-1288.09"/>
<polygon fill="#63b8ff" stroke="#63b8ff" points="169.87,-1291.45 180.4,-1290.29 171.44,-1284.63 169.87,-1291.45"/>
</a>
</g>
</g>
<!-- Node4 -->
<g id="Node000004" class="node">
<title>Node4</title>
<g id="a_Node000004"><a xlink:href="group__bmp390__interface__driver.html#ga285886b933f3a6b3f4304911dadfe442" target="_top" xlink:title="interface print format data">
<polygon fill="white" stroke="#666666" points="278.75,-1264 154,-1264 154,-1232 278.75,-1232 278.75,-1264"/>
<text xml:space="preserve" text-anchor="start" x="162" y="-1250.5" font-family="Helvetica,sans-Serif" font-size="10.00">bmp390_interface_debug</text>
<text xml:space="preserve" text-anchor="middle" x="216.38" y="-1238.5" font-family="Helvetica,sans-Serif" font-size="10.00">_print</text>
</a>
</g>
</g>
<!-- Node1&#45;&gt;Node4 -->
<g id="edge3_Node000001_Node000004" class="edge">
<title>Node1&#45;&gt;Node4</title>
<g id="a_edge3_Node000001_Node000004"><a xlink:title=" ">
<path fill="none" stroke="#63b8ff" d="M55.86,-704.46C58.39,-771.44 75.36,-1140.08 145,-1223 145.34,-1223.41 145.7,-1223.81 146.05,-1224.21"/>
<polygon fill="#63b8ff" stroke="#63b8ff" points="143.51,-1226.63 153.33,-1230.6 148.13,-1221.37 143.51,-1226.63"/>
</a>
</g>
</g>
<!-- Node5 -->
<g id="Node000005" class="node">
<title>Node5</title>
<g id="a_Node000005"><a xlink:href="group__bmp390__interface__driver.html#gad15acd2ae92f6b2a13e62c2ead8371b6" target="_top" xlink:title="interface delay ms">
<polygon fill="white" stroke="#666666" points="286.62,-1214 146.12,-1214 146.12,-1194 286.62,-1194 286.62,-1214"/>
<text xml:space="preserve" text-anchor="middle" x="216.38" y="-1200.5" font-family="Helvetica,sans-Serif" font-size="10.00">bmp390_interface_delay_ms</text>
</a>
</g>
</g>
<!-- Node1&#45;&gt;Node5 -->
<g id="edge4_Node000001_Node000005" class="edge">
<title>Node1&#45;&gt;Node5</title>
<g id="a_edge4_Node000001_Node000005"><a xlink:title=" ">
<path fill="none" stroke="#63b8ff" d="M55.92,-704.19C58.74,-767.88 76.95,-1111.03 145,-1185 145.59,-1185.65 146.21,-1186.27 146.84,-1186.88"/>
<polygon fill="#63b8ff" stroke="#63b8ff" points="144.62,-1189.58 154.73,-1192.74 148.79,-1183.97 144.62,-1189.58"/>
</a>
</g>
</g>
<!-- Node6 -->
<g id="Node000006" class="node">
<title>Node6</title>
<g id="a_Node000006"><a xlink:href="group__bmp390__interface__driver.html#ga321e928dd7c8f38e93c56af970ff0564" target="_top" xlink:title="interface iic bus deinit">
<polygon fill="white" stroke="#666666" points="270.5,-1176 162.25,-1176 162.25,-1144 270.5,-1144 270.5,-1176"/>
<text xml:space="preserve" text-anchor="start" x="170.25" y="-1162.5" font-family="Helvetica,sans-Serif" font-size="10.00">bmp390_interface_iic</text>
<text xml:space="preserve" text-anchor="middle" x="216.38" y="-1150.5" font-family="Helvetica,sans-Serif" font-size="10.00">_deinit</text>
</a>
</g>
</g>
<!-- Node1&#45;&gt;Node6 -->
<g id="edge5_Node000001_Node000006" class="edge">
<title>Node1&#45;&gt;Node6</title>
<g id="a_edge5_Node000001_Node000006"><a xlink:title=" ">
<path fill="none" stroke="#63b8ff" d="M56.23,-704.23C60.68,-763.93 85.98,-1067 145,-1135 147.19,-1137.52 149.65,-1139.79 152.31,-1141.83"/>
<polygon fill="#63b8ff" stroke="#63b8ff" points="150.39,-1144.76 160.71,-1147.12 154.11,-1138.83 150.39,-1144.76"/>
</a>
</g>
</g>
<!-- Node7 -->
<g id="Node000007" class="node">
<title>Node7</title>
<g id="a_Node000007"><a xlink:href="group__bmp390__interface__driver.html#ga5585f9fc8896d42b83a409fd8a5b753f" target="_top" xlink:title="interface iic bus init">
<polygon fill="white" stroke="#666666" points="279.5,-1126 153.25,-1126 153.25,-1106 279.5,-1106 279.5,-1126"/>
<text xml:space="preserve" text-anchor="middle" x="216.38" y="-1112.5" font-family="Helvetica,sans-Serif" font-size="10.00">bmp390_interface_iic_init</text>
</a>
</g>
</g>
<!-- Node1&#45;&gt;Node7 -->
<g id="edge6_Node000001_Node000007" class="edge">
<title>Node1&#45;&gt;Node7</title>
<g id="a_edge6_Node000001_Node000007"><a xlink:title=" ">
<path fill="none" stroke="#63b8ff" d="M56.35,-704.15C61.31,-760.81 88.17,-1037.55 145,-1097 145.61,-1097.63 146.23,-1098.25 146.87,-1098.84"/>
<polygon fill="#63b8ff" stroke="#63b8ff" points="144.71,-1101.6 154.86,-1104.62 148.81,-1095.92 144.71,-1101.6"/>
</a>
</g>
</g>
<!-- Node8 -->
<g id="Node000008" class="node">
<title>Node8</title>
<g id="a_Node000008"><a xlink:href="group__bmp390__interface__driver.html#gaa1703bed8be2eb5032054b958248518c" target="_top" xlink:title="interface iic bus read">
<polygon fill="white" stroke="#666666" points="282.5,-1088 150.25,-1088 150.25,-1068 282.5,-1068 282.5,-1088"/>
<text xml:space="preserve" text-anchor="middle" x="216.38" y="-1074.5" font-family="Helvetica,sans-Serif" font-size="10.00">bmp390_interface_iic_read</text>
</a>
</g>
</g>
<!-- Node1&#45;&gt;Node8 -->
<g id="edge7_Node000001_Node000008" class="edge">
<title>Node1&#45;&gt;Node8</title>
<g id="a_edge7_Node000001_Node000008"><a xlink:title=" ">
<path fill="none" stroke="#63b8ff" d="M56.61,-704.23C62.64,-757.84 93.02,-1005.8 145,-1059 145.74,-1059.75 146.5,-1060.48 147.28,-1061.17"/>
<polygon fill="#63b8ff" stroke="#63b8ff" points="145.06,-1063.89 155.26,-1066.75 149.07,-1058.15 145.06,-1063.89"/>
</a>
</g>
</g>
<!-- Node9 -->
<g id="Node000009" class="node">
<title>Node9</title>
<g id="a_Node000009"><a xlink:href="group__bmp390__interface__driver.html#gaa7a157a5d166f890e312e0bcea96e8ef" target="_top" xlink:title="interface iic bus write">
<polygon fill="white" stroke="#666666" points="270.5,-1050 162.25,-1050 162.25,-1018 270.5,-1018 270.5,-1050"/>
<text xml:space="preserve" text-anchor="start" x="170.25" y="-1036.5" font-family="Helvetica,sans-Serif" font-size="10.00">bmp390_interface_iic</text>
<text xml:space="preserve" text-anchor="middle" x="216.38" y="-1024.5" font-family="Helvetica,sans-Serif" font-size="10.00">_write</text>
</a>
</g>
</g>
<!-- Node1&#45;&gt;Node9 -->
<g id="edge8_Node000001_Node000009" class="edge">
<title>Node1&#45;&gt;Node9</title>
<g id="a_edge8_Node000001_Node000009"><a xlink:title=" ">
<path fill="none" stroke="#63b8ff" d="M55.25,-704.32C54.77,-747.66 58.68,-916.92 145,-1009 147.24,-1011.39 149.73,-1013.56 152.4,-1015.52"/>
<polygon fill="#63b8ff" stroke="#63b8ff" points="150.37,-1018.38 160.73,-1020.62 154.03,-1012.41 150.37,-1018.38"/>
</a>
</g>
</g>
<!-- Node10 -->
<g id="Node000010" class="node">
<title>Node10</title>
<g id="a_Node000010"><a xlink:href="group__bmp390__interface__driver.html#ga6a6048cfb7319a197d0837d7b60b6185" target="_top" xlink:title="interface spi bus deinit">
<polygon fill="white" stroke="#666666" points="272,-1000 160.75,-1000 160.75,-968 272,-968 272,-1000"/>
<text xml:space="preserve" text-anchor="start" x="168.75" y="-986.5" font-family="Helvetica,sans-Serif" font-size="10.00">bmp390_interface_spi</text>
<text xml:space="preserve" text-anchor="middle" x="216.38" y="-974.5" font-family="Helvetica,sans-Serif" font-size="10.00">_deinit</text>
</a>
</g>
</g>
<!-- Node1&#45;&gt;Node10 -->
<g id="edge9_Node000001_Node000010" class="edge">
<title>Node1&#45;&gt;Node10</title>
<g id="a_edge9_Node000001_Node000010"><a xlink:title=" ">
<path fill="none" stroke="#63b8ff" d="M55.89,-704.26C57.94,-743.16 70.39,-883.22 145,-959 146.81,-960.84 148.77,-962.54 150.83,-964.12"/>
<polygon fill="#63b8ff" stroke="#63b8ff" points="148.9,-967.04 159.21,-969.46 152.66,-961.14 148.9,-967.04"/>
</a>
</g>
</g>
<!-- Node11 -->
<g id="Node000011" class="node">
<title>Node11</title>
<g id="a_Node000011"><a xlink:href="group__bmp390__interface__driver.html#ga053f014efb2d0c4c3cf328ff160cc12f" target="_top" xlink:title="interface spi bus init">
<polygon fill="white" stroke="#666666" points="281,-950 151.75,-950 151.75,-930 281,-930 281,-950"/>
<text xml:space="preserve" text-anchor="middle" x="216.38" y="-936.5" font-family="Helvetica,sans-Serif" font-size="10.00">bmp390_interface_spi_init</text>
</a>
</g>
</g>
<!-- Node1&#45;&gt;Node11 -->
<g id="edge10_Node000001_Node000011" class="edge">
<title>Node1&#45;&gt;Node11</title>
<g id="a_edge10_Node000001_Node000011"><a xlink:title=" ">
<path fill="none" stroke="#63b8ff" d="M56.38,-704.43C59.97,-740.34 76.78,-860.02 145,-921 146.09,-921.97 147.22,-922.9 148.39,-923.77"/>
<polygon fill="#63b8ff" stroke="#63b8ff" points="146.37,-926.64 156.73,-928.84 150,-920.65 146.37,-926.64"/>
</a>
</g>
</g>
<!-- Node12 -->
<g id="Node000012" class="node">
<title>Node12</title>
<g id="a_Node000012"><a xlink:href="group__bmp390__interface__driver.html#ga1c36285d8c3dd3ec7694057b3d3eaa3a" target="_top" xlink:title="interface spi bus read">
<polygon fill="white" stroke="#666666" points="284,-912 148.75,-912 148.75,-892 284,-892 284,-912"/>
<text xml:space="preserve" text-anchor="middle" x="216.38" y="-898.5" font-family="Helvetica,sans-Serif" font-size="10.00">bmp390_interface_spi_read</text>
</a>
</g>
</g>
<!-- Node1&#45;&gt;Node12 -->
<g id="edge11_Node000001_Node000012" class="edge">
<title>Node1&#45;&gt;Node12</title>
<g id="a_edge11_Node000001_Node000012"><a xlink:title=" ">
<path fill="none" stroke="#63b8ff" d="M57.29,-704.46C63.32,-736.42 85.94,-833.64 145,-883 146.27,-884.07 147.6,-885.07 148.98,-886.02"/>
<polygon fill="#63b8ff" stroke="#63b8ff" points="146.88,-888.85 157.3,-890.76 150.34,-882.77 146.88,-888.85"/>
</a>
</g>
</g>
<!-- Node13 -->
<g id="Node000013" class="node">
<title>Node13</title>
<g id="a_Node000013"><a xlink:href="group__bmp390__interface__driver.html#ga3e56f990b6b1e08614caf1e2324cc573" target="_top" xlink:title="interface spi bus write">
<polygon fill="white" stroke="#666666" points="272,-874 160.75,-874 160.75,-842 272,-842 272,-874"/>
<text xml:space="preserve" text-anchor="start" x="168.75" y="-860.5" font-family="Helvetica,sans-Serif" font-size="10.00">bmp390_interface_spi</text>
<text xml:space="preserve" text-anchor="middle" x="216.38" y="-848.5" font-family="Helvetica,sans-Serif" font-size="10.00">_write</text>
</a>
</g>
</g>
<!-- Node1&#45;&gt;Node13 -->
<g id="edge12_Node000001_Node000013" class="edge">
<title>Node1&#45;&gt;Node13</title>
<g id="a_edge12_Node000001_Node000013"><a xlink:title=" ">
<path fill="none" stroke="#63b8ff" d="M59.4,-704.37C69.52,-729.96 99.11,-796.64 145,-833 146.75,-834.39 148.59,-835.7 150.49,-836.95"/>
<polygon fill="#63b8ff" stroke="#63b8ff" points="148.7,-839.96 159.12,-841.86 152.16,-833.87 148.7,-839.96"/>
</a>
</g>
</g>
<!-- Node14 -->
<g id="Node000014" class="node">
<title>Node14</title>
<g id="a_Node000014"><a xlink:href="group__bmp390__base__driver.html#ga7e388d2661a18be5cfb9de05f6f2cf11" target="_top" xlink:title="set the iic address pin">
<polygon fill="white" stroke="#666666" points="272,-824 160.75,-824 160.75,-804 272,-804 272,-824"/>
<text xml:space="preserve" text-anchor="middle" x="216.38" y="-810.5" font-family="Helvetica,sans-Serif" font-size="10.00">bmp390_set_addr_pin</text>
</a>
</g>
</g>
<!-- Node1&#45;&gt;Node14 -->
<g id="edge13_Node000001_Node000014" class="edge">
<title>Node1&#45;&gt;Node14</title>
<g id="a_edge13_Node000001_Node000014"><a xlink:title=" ">
<path fill="none" stroke="#63b8ff" d="M61.71,-704.37C74.56,-724.93 106.16,-770.94 145,-795 147.31,-796.43 149.74,-797.76 152.23,-798.99"/>
<polygon fill="#63b8ff" stroke="#63b8ff" points="150.86,-802.21 161.43,-802.91 153.6,-795.77 150.86,-802.21"/>
</a>
</g>
</g>
<!-- Node15 -->
<g id="Node000015" class="node">
<title>Node15</title>
<g id="a_Node000015"><a xlink:href="group__bmp390__fifo__driver.html#ga4109aebe94da750602f05273c0e4897f" target="_top" xlink:title="enable or disable the fifo">
<polygon fill="white" stroke="#666666" points="260.38,-786 172.38,-786 172.38,-766 260.38,-766 260.38,-786"/>
<text xml:space="preserve" text-anchor="middle" x="216.38" y="-772.5" font-family="Helvetica,sans-Serif" font-size="10.00">bmp390_set_fifo</text>
</a>
</g>
</g>
<!-- Node1&#45;&gt;Node15 -->
<g id="edge14_Node000001_Node000015" class="edge">
<title>Node1&#45;&gt;Node15</title>
<g id="a_edge14_Node000001_Node000015"><a xlink:title=" ">
<path fill="none" stroke="#63b8ff" d="M67.39,-704.45C83.77,-718.35 114.72,-742.8 145,-757 150.17,-759.42 155.7,-761.58 161.3,-763.49"/>
<polygon fill="#63b8ff" stroke="#63b8ff" points="160.06,-766.77 170.65,-766.42 162.16,-760.09 160.06,-766.77"/>
</a>
</g>
</g>
<!-- Node16 -->
<g id="Node000016" class="node">
<title>Node16</title>
<g id="a_Node000016"><a xlink:href="group__bmp390__base__driver.html#gaf6022756e12b6e5329ef3a3220ab9f6e" target="_top" xlink:title="set the filter coefficient">
<polygon fill="white" stroke="#666666" points="287.75,-748 145,-748 145,-728 287.75,-728 287.75,-748"/>
<text xml:space="preserve" text-anchor="middle" x="216.38" y="-734.5" font-family="Helvetica,sans-Serif" font-size="10.00">bmp390_set_filter_coefficient</text>
</a>
</g>
</g>
<!-- Node1&#45;&gt;Node16 -->
<g id="edge15_Node000001_Node000016" class="edge">
<title>Node1&#45;&gt;Node16</title>
<g id="a_edge15_Node000001_Node000016"><a xlink:title=" ">
<path fill="none" stroke="#63b8ff" d="M92.49,-704.41C108.61,-708.93 127.73,-714.26 145,-719 151.65,-720.83 158.65,-722.73 165.56,-724.61"/>
<polygon fill="#63b8ff" stroke="#63b8ff" points="164.24,-727.88 174.81,-727.11 166.07,-721.12 164.24,-727.88"/>
</a>
</g>
</g>
<!-- Node17 -->
<g id="Node000017" class="node">
<title>Node17</title>
<g id="a_Node000017"><a xlink:href="group__bmp390__base__driver.html#gac906ec85a28a8c3bea0b3c3425b6c27b" target="_top" xlink:title="set the iic watchdog period">
<polygon fill="white" stroke="#666666" points="282.12,-710 150.62,-710 150.62,-678 282.12,-678 282.12,-710"/>
<text xml:space="preserve" text-anchor="start" x="158.62" y="-696.5" font-family="Helvetica,sans-Serif" font-size="10.00">bmp390_set_iic_watchdog</text>
<text xml:space="preserve" text-anchor="middle" x="216.38" y="-684.5" font-family="Helvetica,sans-Serif" font-size="10.00">_period</text>
</a>
</g>
</g>
<!-- Node1&#45;&gt;Node17 -->
<g id="edge16_Node000001_Node000017" class="edge">
<title>Node1&#45;&gt;Node17</title>
<g id="a_edge16_Node000001_Node000017"><a xlink:title=" ">
<path fill="none" stroke="#63b8ff" d="M109.18,-694C118.74,-694 128.86,-694 138.9,-694"/>
<polygon fill="#63b8ff" stroke="#63b8ff" points="138.67,-697.5 148.67,-694 138.67,-690.5 138.67,-697.5"/>
</a>
</g>
</g>
<!-- Node18 -->
<g id="Node000018" class="node">
<title>Node18</title>
<g id="a_Node000018"><a xlink:href="group__bmp390__base__driver.html#gaa29c6d4e04b619ff1ed8871285a8f0e1" target="_top" xlink:title="enable or disable the iic watchdog timer">
<polygon fill="white" stroke="#666666" points="282.12,-660 150.62,-660 150.62,-628 282.12,-628 282.12,-660"/>
<text xml:space="preserve" text-anchor="start" x="158.62" y="-646.5" font-family="Helvetica,sans-Serif" font-size="10.00">bmp390_set_iic_watchdog</text>
<text xml:space="preserve" text-anchor="middle" x="216.38" y="-634.5" font-family="Helvetica,sans-Serif" font-size="10.00">_timer</text>
</a>
</g>
</g>
<!-- Node1&#45;&gt;Node18 -->
<g id="edge17_Node000001_Node000018" class="edge">
<title>Node1&#45;&gt;Node18</title>
<g id="a_edge17_Node000001_Node000018"><a xlink:title=" ">
<path fill="none" stroke="#63b8ff" d="M89.02,-683.52C107.27,-677.81 130.46,-670.56 151.98,-663.83"/>
<polygon fill="#63b8ff" stroke="#63b8ff" points="152.76,-667.25 161.26,-660.92 150.68,-660.57 152.76,-667.25"/>
</a>
</g>
</g>
<!-- Node19 -->
<g id="Node000019" class="node">
<title>Node19</title>
<g id="a_Node000019"><a xlink:href="group__bmp390__base__driver.html#gad988b048fd1f60fe4e1c4e17e6b15e7b" target="_top" xlink:title="set the interface">
<polygon fill="white" stroke="#666666" points="272.38,-610 160.38,-610 160.38,-590 272.38,-590 272.38,-610"/>
<text xml:space="preserve" text-anchor="middle" x="216.38" y="-596.5" font-family="Helvetica,sans-Serif" font-size="10.00">bmp390_set_interface</text>
</a>
</g>
</g>
<!-- Node1&#45;&gt;Node19 -->
<g id="edge18_Node000001_Node000019" class="edge">
<title>Node1&#45;&gt;Node19</title>
<g id="a_edge18_Node000001_Node000019"><a xlink:title=" ">
<path fill="none" stroke="#63b8ff" d="M64.91,-683.63C80.16,-667.45 111.92,-636.24 145,-619 148.25,-617.3 151.67,-615.75 155.18,-614.32"/>
<polygon fill="#63b8ff" stroke="#63b8ff" points="156.26,-617.65 164.46,-610.94 153.86,-611.08 156.26,-617.65"/>
</a>
</g>
</g>
<!-- Node20 -->
<g id="Node000020" class="node">
<title>Node20</title>
<g id="a_Node000020"><a xlink:href="group__bmp390__interrupt__driver.html#gaef16b2d51c9d4d5eaaf109ca1bfc19aa" target="_top" xlink:title="set the interrupt active level">
<polygon fill="white" stroke="#666666" points="271.25,-572 161.5,-572 161.5,-540 271.25,-540 271.25,-572"/>
<text xml:space="preserve" text-anchor="start" x="169.5" y="-558.5" font-family="Helvetica,sans-Serif" font-size="10.00">bmp390_set_interrupt</text>
<text xml:space="preserve" text-anchor="middle" x="216.38" y="-546.5" font-family="Helvetica,sans-Serif" font-size="10.00">_active_level</text>
</a>
</g>
</g>
<!-- Node1&#45;&gt;Node20 -->
<g id="edge19_Node000001_Node000020" class="edge">
<title>Node1&#45;&gt;Node20</title>
<g id="a_edge19_Node000001_Node000020"><a xlink:title=" ">
<path fill="none" stroke="#63b8ff" d="M61,-683.67C73.2,-661.66 104.7,-609.84 145,-581 146.94,-579.61 148.96,-578.3 151.04,-577.05"/>
<polygon fill="#63b8ff" stroke="#63b8ff" points="152.62,-580.17 159.82,-572.4 149.34,-573.99 152.62,-580.17"/>
</a>
</g>
</g>
<!-- Node21 -->
<g id="Node000021" class="node">
<title>Node21</title>
<g id="a_Node000021"><a xlink:href="group__bmp390__interrupt__driver.html#ga644c086923d977467c6664488624c005" target="_top" xlink:title="enable or disable the data ready interrupt">
<polygon fill="white" stroke="#666666" points="271.25,-522 161.5,-522 161.5,-490 271.25,-490 271.25,-522"/>
<text xml:space="preserve" text-anchor="start" x="169.5" y="-508.5" font-family="Helvetica,sans-Serif" font-size="10.00">bmp390_set_interrupt</text>
<text xml:space="preserve" text-anchor="middle" x="216.38" y="-496.5" font-family="Helvetica,sans-Serif" font-size="10.00">_data_ready</text>
</a>
</g>
</g>
<!-- Node1&#45;&gt;Node21 -->
<g id="edge20_Node000001_Node000021" class="edge">
<title>Node1&#45;&gt;Node21</title>
<g id="a_edge20_Node000001_Node000021"><a xlink:title=" ">
<path fill="none" stroke="#63b8ff" d="M58.37,-683.55C66.74,-654.92 93.86,-574.52 145,-531 147.04,-529.26 149.21,-527.64 151.48,-526.13"/>
<polygon fill="#63b8ff" stroke="#63b8ff" points="153,-529.3 159.93,-521.28 149.51,-523.23 153,-529.3"/>
</a>
</g>
</g>
<!-- Node22 -->
<g id="Node000022" class="node">
<title>Node22</title>
<g id="a_Node000022"><a xlink:href="group__bmp390__interrupt__driver.html#gaec34cec70f66276f57af24431e04bccf" target="_top" xlink:title="enable or disable the fifo full interrupt">
<polygon fill="white" stroke="#666666" points="271.25,-472 161.5,-472 161.5,-440 271.25,-440 271.25,-472"/>
<text xml:space="preserve" text-anchor="start" x="169.5" y="-458.5" font-family="Helvetica,sans-Serif" font-size="10.00">bmp390_set_interrupt</text>
<text xml:space="preserve" text-anchor="middle" x="216.38" y="-446.5" font-family="Helvetica,sans-Serif" font-size="10.00">_fifo_full</text>
</a>
</g>
</g>
<!-- Node1&#45;&gt;Node22 -->
<g id="edge21_Node000001_Node000022" class="edge">
<title>Node1&#45;&gt;Node22</title>
<g id="a_edge21_Node000001_Node000022"><a xlink:title=" ">
<path fill="none" stroke="#63b8ff" d="M56.83,-683.92C61.8,-650.21 82.32,-540.23 145,-481 147.06,-479.05 149.28,-477.25 151.63,-475.6"/>
<polygon fill="#63b8ff" stroke="#63b8ff" points="153.1,-478.8 159.86,-470.64 149.49,-472.8 153.1,-478.8"/>
</a>
</g>
</g>
<!-- Node23 -->
<g id="Node000023" class="node">
<title>Node23</title>
<g id="a_Node000023"><a xlink:href="group__bmp390__interrupt__driver.html#ga48f948d7d23debb0dbc5a874a14ac036" target="_top" xlink:title="enable or disable the fifo watermark interrupt">
<polygon fill="white" stroke="#666666" points="271.25,-422 161.5,-422 161.5,-390 271.25,-390 271.25,-422"/>
<text xml:space="preserve" text-anchor="start" x="169.5" y="-408.5" font-family="Helvetica,sans-Serif" font-size="10.00">bmp390_set_interrupt</text>
<text xml:space="preserve" text-anchor="middle" x="216.38" y="-396.5" font-family="Helvetica,sans-Serif" font-size="10.00">_fifo_watermark</text>
</a>
</g>
</g>
<!-- Node1&#45;&gt;Node23 -->
<g id="edge22_Node000001_Node000023" class="edge">
<title>Node1&#45;&gt;Node23</title>
<g id="a_edge22_Node000001_Node000023"><a xlink:title=" ">
<path fill="none" stroke="#63b8ff" d="M55.93,-683.55C58.11,-644.57 70.98,-506.01 145,-431 147.03,-428.94 149.24,-427.05 151.59,-425.32"/>
<polygon fill="#63b8ff" stroke="#63b8ff" points="153.26,-428.4 159.91,-420.16 149.57,-422.45 153.26,-428.4"/>
</a>
</g>
</g>
<!-- Node24 -->
<g id="Node000024" class="node">
<title>Node24</title>
<g id="a_Node000024"><a xlink:href="group__bmp390__interrupt__driver.html#gaccc2a21a1e18425aeebf16b3ac07f2bc" target="_top" xlink:title="set the interrupt pin type">
<polygon fill="white" stroke="#666666" points="271.25,-372 161.5,-372 161.5,-340 271.25,-340 271.25,-372"/>
<text xml:space="preserve" text-anchor="start" x="169.5" y="-358.5" font-family="Helvetica,sans-Serif" font-size="10.00">bmp390_set_interrupt</text>
<text xml:space="preserve" text-anchor="middle" x="216.38" y="-346.5" font-family="Helvetica,sans-Serif" font-size="10.00">_pin_type</text>
</a>
</g>
</g>
<!-- Node1&#45;&gt;Node24 -->
<g id="edge23_Node000001_Node000024" class="edge">
<title>Node1&#45;&gt;Node24</title>
<g id="a_edge23_Node000001_Node000024"><a xlink:title=" ">
<path fill="none" stroke="#63b8ff" d="M55.27,-683.74C54.88,-640.68 59.11,-472.46 145,-381 147.02,-378.85 149.24,-376.88 151.6,-375.09"/>
<polygon fill="#63b8ff" stroke="#63b8ff" points="153.45,-378.06 160.04,-369.77 149.72,-372.14 153.45,-378.06"/>
</a>
</g>
</g>
<!-- Node25 -->
<g id="Node000025" class="node">
<title>Node25</title>
<g id="a_Node000025"><a xlink:href="group__bmp390__interrupt__driver.html#gaaefbe53f31fb34b64b173fe9196fdf0a" target="_top" xlink:title="enable or disable latching interrupt pin and interrupt status">
<polygon fill="white" stroke="#666666" points="284.38,-322 148.38,-322 148.38,-290 284.38,-290 284.38,-322"/>
<text xml:space="preserve" text-anchor="start" x="156.38" y="-308.5" font-family="Helvetica,sans-Serif" font-size="10.00">bmp390_set_latch_interrupt</text>
<text xml:space="preserve" text-anchor="middle" x="216.38" y="-296.5" font-family="Helvetica,sans-Serif" font-size="10.00">_pin_and_interrupt_status</text>
</a>
</g>
</g>
<!-- Node1&#45;&gt;Node25 -->
<g id="edge24_Node000001_Node000025" class="edge">
<title>Node1&#45;&gt;Node25</title>
<g id="a_edge24_Node000001_Node000025"><a xlink:title=" ">
<path fill="none" stroke="#63b8ff" d="M56.74,-683.54C63.29,-629.86 95.46,-385.74 145,-331 145.46,-330.49 145.94,-329.99 146.42,-329.5"/>
<polygon fill="#63b8ff" stroke="#63b8ff" points="148.38,-332.42 153.9,-323.38 143.94,-327 148.38,-332.42"/>
</a>
</g>
</g>
<!-- Node26 -->
<g id="Node000026" class="node">
<title>Node26</title>
<g id="a_Node000026"><a xlink:href="group__bmp390__base__driver.html#ga1ace669e619709db2b79762373789852" target="_top" xlink:title="set the chip mode">
<polygon fill="white" stroke="#666666" points="265.62,-272 167.12,-272 167.12,-252 265.62,-252 265.62,-272"/>
<text xml:space="preserve" text-anchor="middle" x="216.38" y="-258.5" font-family="Helvetica,sans-Serif" font-size="10.00">bmp390_set_mode</text>
</a>
</g>
</g>
<!-- Node1&#45;&gt;Node26 -->
<g id="edge25_Node000001_Node000026" class="edge">
<title>Node1&#45;&gt;Node26</title>
<g id="a_edge25_Node000001_Node000026"><a xlink:title=" ">
<path fill="none" stroke="#63b8ff" d="M56.31,-683.6C61.06,-625.55 86.99,-342.01 145,-281 148.34,-277.49 152.25,-274.61 156.48,-272.24"/>
<polygon fill="#63b8ff" stroke="#63b8ff" points="157.77,-275.5 165.47,-268.22 154.91,-269.11 157.77,-275.5"/>
</a>
</g>
</g>
<!-- Node27 -->
<g id="Node000027" class="node">
<title>Node27</title>
<g id="a_Node000027"><a xlink:href="group__bmp390__base__driver.html#ga97ecee092d58593881186562f8d12474" target="_top" xlink:title="set the output data rate">
<polygon fill="white" stroke="#666666" points="260.38,-234 172.38,-234 172.38,-214 260.38,-214 260.38,-234"/>
<text xml:space="preserve" text-anchor="middle" x="216.38" y="-220.5" font-family="Helvetica,sans-Serif" font-size="10.00">bmp390_set_odr</text>
</a>
</g>
</g>
<!-- Node1&#45;&gt;Node27 -->
<g id="edge26_Node000001_Node000027" class="edge">
<title>Node1&#45;&gt;Node27</title>
<g id="a_edge26_Node000001_Node000027"><a xlink:title=" ">
<path fill="none" stroke="#63b8ff" d="M56.09,-683.86C59.83,-623.37 82.05,-310.37 145,-243 149.59,-238.08 155.32,-234.39 161.5,-231.62"/>
<polygon fill="#63b8ff" stroke="#63b8ff" points="162.56,-234.96 170.8,-228.3 160.2,-228.37 162.56,-234.96"/>
</a>
</g>
</g>
<!-- Node28 -->
<g id="Node000028" class="node">
<title>Node28</title>
<g id="a_Node000028"><a xlink:href="group__bmp390__base__driver.html#ga184807c2dd608782731cf8343ce54779" target="_top" xlink:title="enable or disable the pressure">
<polygon fill="white" stroke="#666666" points="272.38,-196 160.38,-196 160.38,-176 272.38,-176 272.38,-196"/>
<text xml:space="preserve" text-anchor="middle" x="216.38" y="-182.5" font-family="Helvetica,sans-Serif" font-size="10.00">bmp390_set_pressure</text>
</a>
</g>
</g>
<!-- Node1&#45;&gt;Node28 -->
<g id="edge27_Node000001_Node000028" class="edge">
<title>Node1&#45;&gt;Node28</title>
<g id="a_edge27_Node000001_Node000028"><a xlink:title=" ">
<path fill="none" stroke="#63b8ff" d="M55.92,-683.85C58.78,-620.42 77.19,-278.66 145,-205 146.71,-203.15 148.57,-201.47 150.56,-199.94"/>
<polygon fill="#63b8ff" stroke="#63b8ff" points="151.96,-203.19 158.69,-195.01 148.33,-197.21 151.96,-203.19"/>
</a>
</g>
</g>
<!-- Node29 -->
<g id="Node000029" class="node">
<title>Node29</title>
<g id="a_Node000029"><a xlink:href="group__bmp390__base__driver.html#gac812728fefd570a9bbcb2a5a26159b68" target="_top" xlink:title="set the pressure oversampling">
<polygon fill="white" stroke="#666666" points="272.38,-158 160.38,-158 160.38,-126 272.38,-126 272.38,-158"/>
<text xml:space="preserve" text-anchor="start" x="168.38" y="-144.5" font-family="Helvetica,sans-Serif" font-size="10.00">bmp390_set_pressure</text>
<text xml:space="preserve" text-anchor="middle" x="216.38" y="-132.5" font-family="Helvetica,sans-Serif" font-size="10.00">_oversampling</text>
</a>
</g>
</g>
<!-- Node1&#45;&gt;Node29 -->
<g id="edge28_Node000001_Node000029" class="edge">
<title>Node1&#45;&gt;Node29</title>
<g id="a_edge28_Node000001_Node000029"><a xlink:title=" ">
<path fill="none" stroke="#63b8ff" d="M55.87,-683.58C58.44,-616.85 75.6,-249.59 145,-167 146.82,-164.83 148.85,-162.85 151.03,-161.04"/>
<polygon fill="#63b8ff" stroke="#63b8ff" points="152.55,-164.24 158.85,-155.72 148.62,-158.44 152.55,-164.24"/>
</a>
</g>
</g>
<!-- Node30 -->
<g id="Node000030" class="node">
<title>Node30</title>
<g id="a_Node000030"><a xlink:href="group__bmp390__base__driver.html#gaf377979cf7a7dc4c5fb77df363cce0e5" target="_top" xlink:title="set the spi wire">
<polygon fill="white" stroke="#666666" points="271.62,-108 161.12,-108 161.12,-88 271.62,-88 271.62,-108"/>
<text xml:space="preserve" text-anchor="middle" x="216.38" y="-94.5" font-family="Helvetica,sans-Serif" font-size="10.00">bmp390_set_spi_wire</text>
</a>
</g>
</g>
<!-- Node1&#45;&gt;Node30 -->
<g id="edge29_Node000001_Node000030" class="edge">
<title>Node1&#45;&gt;Node30</title>
<g id="a_edge29_Node000001_Node000030"><a xlink:title=" ">
<path fill="none" stroke="#63b8ff" d="M55.62,-683.91C56.62,-614.27 65.86,-205.34 145,-117 146.92,-114.86 149.06,-112.94 151.35,-111.24"/>
<polygon fill="#63b8ff" stroke="#63b8ff" points="152.74,-114.48 159.59,-106.4 149.2,-108.44 152.74,-114.48"/>
</a>
</g>
</g>
<!-- Node31 -->
<g id="Node000031" class="node">
<title>Node31</title>
<g id="a_Node000031"><a xlink:href="group__bmp390__base__driver.html#ga3efa2db8b63a899e46a338650b05e079" target="_top" xlink:title="enable or disable the temperature">
<polygon fill="white" stroke="#666666" points="279.5,-70 153.25,-70 153.25,-50 279.5,-50 279.5,-70"/>
<text xml:space="preserve" text-anchor="middle" x="216.38" y="-56.5" font-family="Helvetica,sans-Serif" font-size="10.00">bmp390_set_temperature</text>
</a>
</g>
</g>
<!-- Node1&#45;&gt;Node31 -->
<g id="edge30_Node000001_Node000031" class="edge">
<title>Node1&#45;&gt;Node31</title>
<g id="a_edge30_Node000001_Node000031"><a xlink:title=" ">
<path fill="none" stroke="#63b8ff" d="M55.51,-683.72C55.8,-610.93 61.03,-173.62 145,-79 145.47,-78.47 145.96,-77.95 146.46,-77.44"/>
<polygon fill="#63b8ff" stroke="#63b8ff" points="148.54,-80.26 154.29,-71.36 144.24,-74.73 148.54,-80.26"/>
</a>
</g>
</g>
<!-- Node32 -->
<g id="Node000032" class="node">
<title>Node32</title>
<g id="a_Node000032"><a xlink:href="group__bmp390__base__driver.html#ga015c3f9054cf122df6fbba14e43c7e45" target="_top" xlink:title="set the temperature oversampling">
<polygon fill="white" stroke="#666666" points="279.5,-32 153.25,-32 153.25,0 279.5,0 279.5,-32"/>
<text xml:space="preserve" text-anchor="start" x="161.25" y="-18.5" font-family="Helvetica,sans-Serif" font-size="10.00">bmp390_set_temperature</text>
<text xml:space="preserve" text-anchor="middle" x="216.38" y="-6.5" font-family="Helvetica,sans-Serif" font-size="10.00">_oversampling</text>
</a>
</g>
</g>
<!-- Node1&#45;&gt;Node32 -->
<g id="edge31_Node000001_Node000032" class="edge">
<title>Node1&#45;&gt;Node32</title>
<g id="a_edge31_Node000001_Node000032"><a xlink:title=" ">
<path fill="none" stroke="#63b8ff" d="M55.5,-683.64C55.66,-608.37 60.16,-145.31 145,-41 145.34,-40.59 145.68,-40.18 146.03,-39.78"/>
<polygon fill="#63b8ff" stroke="#63b8ff" points="148.13,-42.6 153.23,-33.32 143.45,-37.39 148.13,-42.6"/>
</a>
</g>
</g>
</g>
</svg>
